if (_typeface_js && _typeface_js.loadFace) _typeface_js.loadFace({"glyphs":{"S":{"x_min":52.78125,"x_max":1082.03125,"ha":1124,"o":"m 513 -27 q 290 -1 394 -27 q 145 51 187 25 q 88 88 102 77 q 52 169 52 118 q 62 245 52 209 q 127 313 80 313 q 225 281 143 312 q 355 251 308 251 q 426 306 426 251 q 391 368 426 340 q 307 423 356 397 q 208 484 258 450 q 123 578 158 518 q 88 719 88 638 q 219 928 88 852 q 556 1004 350 1004 q 885 961 763 1004 q 1007 844 1007 919 q 982 749 1007 790 q 929 708 957 708 q 864 729 919 708 q 765 751 809 751 q 677 683 677 751 q 719 622 677 650 q 820 568 761 594 q 938 511 879 543 q 1040 423 998 479 q 1082 288 1082 368 q 1031 144 1082 209 q 897 43 980 79 q 513 -27 732 -27 "},"¦":{"x_min":83.34375,"x_max":405.59375,"ha":489,"o":"m 83 300 q 144 358 83 358 l 344 358 q 405 300 405 358 q 398 -156 402 -102 q 377 -229 394 -211 q 319 -247 361 -247 l 169 -247 q 111 -229 127 -247 q 91 -172 94 -211 q 83 300 83 -59 m 83 651 q 91 1125 83 1012 q 111 1182 94 1163 q 169 1200 127 1200 l 319 1200 q 377 1182 361 1200 q 397 1125 394 1163 q 405 651 405 1012 q 344 593 405 593 l 144 593 q 83 651 83 593 "},"/":{"x_min":104.171875,"x_max":893.125,"ha":997,"o":"m 162 -247 q 104 -205 104 -247 q 111 -172 104 -191 q 230 194 147 -41 q 562 1115 541 1066 q 606 1182 583 1163 q 670 1200 629 1200 l 834 1200 q 893 1158 893 1200 q 886 1125 893 1144 q 666 476 840 963 q 430 -172 488 -36 q 391 -229 413 -211 q 326 -247 368 -247 l 162 -247 "},"y":{"x_min":29.171875,"x_max":1038.96875,"ha":1067,"o":"m 183 -54 q 366 0 366 -54 q 344 54 366 18 q 44 600 243 212 q 29 650 29 632 q 86 707 29 707 l 391 707 q 459 693 436 707 q 502 640 481 679 l 632 398 q 655 381 640 381 q 679 398 670 381 l 812 675 q 841 705 825 702 q 862 707 847 705 l 1008 707 q 1036 688 1027 707 q 1038 670 1038 680 q 1028 639 1038 659 q 923 418 1018 619 q 779 122 829 216 q 710 -6 730 27 q 656 -89 690 -41 q 593 -161 623 -137 q 516 -211 562 -186 q 310 -254 436 -254 q 144 -232 184 -254 q 104 -138 104 -211 q 117 -79 104 -104 q 152 -54 130 -54 l 183 -54 "},"≈":{"x_min":112.515625,"x_max":1033.421875,"ha":1146,"o":"m 1027 702 q 924 578 1000 620 q 768 536 848 536 q 580 578 687 536 q 414 620 473 620 q 290 566 355 620 q 256 552 273 552 q 223 563 240 552 l 141 619 q 112 666 112 637 q 118 693 112 679 q 221 817 145 775 q 377 859 297 859 q 565 817 458 859 q 731 775 672 775 q 855 829 790 775 q 888 843 872 843 q 922 832 905 843 l 1004 776 q 1033 729 1033 758 q 1027 702 1033 716 m 1027 295 q 924 171 1000 213 q 768 129 848 129 q 580 171 687 129 q 414 213 473 213 q 290 159 355 213 q 256 145 273 145 q 223 156 240 145 l 141 212 q 112 259 112 230 q 118 286 112 272 q 221 410 145 368 q 377 452 297 452 q 565 410 458 452 q 731 368 672 368 q 855 422 790 368 q 888 436 872 436 q 922 425 905 436 l 1004 369 q 1033 322 1033 351 q 1027 295 1033 309 "},"Á":{"x_min":48.609375,"x_max":1457.0625,"ha":1506,"o":"m 975 907 l 1429 138 q 1457 61 1457 93 q 1432 15 1457 30 q 1373 0 1407 0 l 926 0 q 838 25 858 0 q 823 54 833 33 l 783 140 q 698 186 765 180 l 436 186 q 391 180 406 186 q 366 155 376 175 l 312 43 q 281 9 298 18 q 233 0 265 0 l 108 0 q 50 38 54 0 q 48 50 48 44 q 69 111 48 81 l 504 877 q 707 986 566 986 l 818 986 q 975 907 929 986 m 525 551 l 461 425 q 455 402 455 412 q 490 366 455 366 l 616 366 q 657 381 645 366 q 668 406 668 395 q 663 429 668 418 l 611 548 q 568 584 594 584 q 525 551 541 584 m 979 1052 l 602 1052 q 568 1090 568 1052 q 588 1135 568 1127 q 666 1165 608 1143 q 761 1201 723 1187 q 941 1257 909 1257 q 988 1226 972 1257 q 1044 1093 1044 1113 q 979 1052 1044 1052 "},"g":{"x_min":52.78125,"x_max":1063.96875,"ha":1147,"o":"m 538 494 q 456 374 456 494 q 536 254 456 254 q 596 272 570 254 q 622 326 622 291 l 622 422 q 596 475 622 455 q 538 494 570 494 m 1061 640 l 1063 213 q 1062 2 1063 75 q 1020 -127 1061 -69 q 911 -219 980 -186 q 548 -281 775 -281 q 177 -220 322 -281 q 127 -188 143 -205 q 111 -127 111 -170 q 128 -62 111 -83 q 169 -41 145 -41 q 227 -58 193 -41 q 441 -111 334 -111 q 529 -100 490 -111 q 597 -58 568 -90 q 627 23 627 -26 l 626 97 q 618 111 626 111 q 609 106 613 111 q 365 0 498 0 q 142 84 231 0 q 52 352 52 169 q 158 629 52 536 q 416 723 263 723 q 643 627 569 723 q 669 683 644 663 q 725 705 694 702 q 836 708 755 708 l 983 705 q 1035 686 1009 705 q 1061 640 1061 668 "},"²":{"x_min":45.84375,"x_max":698.671875,"ha":789,"o":"m 101 948 q 368 1004 216 1004 q 587 957 519 1004 q 655 837 655 911 q 488 626 655 702 q 472 613 472 618 q 487 608 472 608 q 666 615 502 608 q 690 593 682 615 q 698 527 698 570 q 687 454 698 484 q 643 422 676 423 q 383 419 470 419 q 197 421 295 419 q 88 424 98 423 q 68 432 79 425 q 54 455 56 440 l 47 505 q 45 522 45 513 q 66 570 45 555 q 109 597 76 577 q 167 635 143 618 q 219 675 191 652 q 277 775 277 723 q 261 819 277 801 q 216 837 245 837 q 108 791 155 837 q 86 786 100 783 q 48 877 48 794 q 101 948 48 923 "},"–":{"x_min":111.125,"x_max":932.015625,"ha":1043,"o":"m 890 269 q 538 261 829 261 q 186 269 247 261 q 129 288 147 272 q 111 347 111 305 l 111 368 q 129 426 111 409 q 186 445 147 443 q 538 454 247 454 q 890 445 829 454 q 922 426 912 443 q 932 366 932 409 l 932 345 q 922 288 932 305 q 890 269 912 272 "},"ë":{"x_min":55.5625,"x_max":975.078125,"ha":1031,"o":"m 275 664 q 406 709 338 695 q 572 723 473 723 q 762 699 672 723 q 897 633 852 675 q 975 454 975 556 q 702 293 975 293 q 504 311 607 293 q 538 181 508 219 q 644 144 568 144 q 770 161 720 144 q 851 195 820 177 q 903 212 882 212 q 940 193 925 212 q 963 124 963 168 q 946 64 963 80 q 891 33 929 48 q 516 -22 759 -22 q 185 74 315 -22 q 55 334 55 170 q 84 479 55 413 q 162 589 113 545 q 275 664 211 633 m 597 565 q 505 427 512 565 q 575 422 572 422 q 666 483 666 422 q 597 565 666 565 m 250 891 q 290 979 250 943 q 396 1016 330 1016 q 494 981 462 1016 q 526 898 526 945 q 487 813 526 851 q 390 775 448 775 q 290 807 331 775 q 250 891 250 838 m 619 891 q 659 979 619 943 q 766 1016 700 1016 q 863 981 832 1016 q 895 898 895 945 q 857 813 895 851 q 759 775 818 775 q 660 807 701 775 q 619 891 619 838 "},"ƒ":{"x_min":-165.296875,"x_max":995.90625,"ha":883,"o":"m 654 675 q 680 655 654 655 l 794 655 q 844 640 827 655 q 861 570 861 625 q 845 500 861 515 q 793 484 829 484 l 654 484 q 627 456 630 484 q 575 55 607 287 q 397 -200 550 -130 q 58 -259 263 -259 q -116 -219 -18 -259 q -165 -120 -165 -200 q -120 -15 -165 -15 q -60 -31 -106 -15 q 9 -47 -13 -47 q 140 93 123 -47 l 181 438 q 181 478 186 470 q 161 486 176 486 l 90 486 q 38 501 54 486 q 22 571 22 516 q 38 641 22 626 q 88 655 54 655 l 191 655 q 213 676 213 655 q 405 969 244 895 q 741 1027 536 1027 q 947 995 855 1027 q 995 884 995 979 q 951 788 995 788 q 882 802 932 788 q 797 815 832 815 q 696 779 733 815 q 654 693 659 744 l 654 675 "},"Î":{"x_min":83.34375,"x_max":672.28125,"ha":756,"o":"m 191 972 l 563 972 q 641 943 622 972 q 666 822 659 913 q 672 470 672 732 q 661 86 672 208 q 632 29 657 54 q 568 1 608 4 q 384 -4 488 -4 q 187 1 280 -4 q 122 29 147 4 q 94 86 98 54 q 83 470 83 208 q 89 822 83 732 q 114 943 95 913 q 191 972 133 972 m 331 1308 l 423 1308 q 500 1266 451 1308 l 662 1125 q 669 1102 669 1113 q 653 1042 669 1061 q 625 1023 637 1023 q 605 1027 613 1023 l 377 1130 l 150 1027 q 129 1023 141 1023 q 102 1041 118 1023 q 86 1075 87 1059 q 86 1102 86 1090 q 93 1125 86 1113 l 255 1266 q 331 1308 304 1308 "},"e":{"x_min":55.5625,"x_max":975.078125,"ha":1031,"o":"m 275 664 q 406 709 338 695 q 572 723 473 723 q 762 699 672 723 q 897 633 852 675 q 975 454 975 556 q 702 293 975 293 q 504 311 607 293 q 538 181 508 219 q 644 144 568 144 q 770 161 720 144 q 851 195 820 177 q 903 212 882 212 q 940 193 925 212 q 963 124 963 168 q 946 64 963 80 q 891 33 929 48 q 516 -22 759 -22 q 185 74 315 -22 q 55 334 55 170 q 84 479 55 413 q 162 589 113 545 q 275 664 211 633 m 597 565 q 505 427 512 565 q 575 422 572 422 q 666 483 666 422 q 597 565 666 565 "},"Ã":{"x_min":48.609375,"x_max":1457.0625,"ha":1506,"o":"m 975 907 l 1429 138 q 1457 61 1457 93 q 1432 15 1457 30 q 1373 0 1407 0 l 926 0 q 838 25 858 0 q 823 54 833 33 l 783 140 q 698 186 765 180 l 436 186 q 391 180 406 186 q 366 155 376 175 l 312 43 q 281 9 298 18 q 233 0 265 0 l 108 0 q 50 38 54 0 q 48 50 48 44 q 69 111 48 81 l 504 877 q 707 986 566 986 l 818 986 q 975 907 929 986 m 525 551 l 461 425 q 459 384 451 402 q 490 366 468 366 l 616 366 q 657 381 645 366 q 668 406 668 395 q 663 429 668 418 l 611 548 q 568 584 594 584 q 525 551 541 584 m 861 1034 q 716 1084 798 1034 q 599 1133 634 1133 q 543 1116 563 1133 q 504 1055 522 1098 q 481 1040 497 1040 l 408 1044 q 391 1055 394 1048 q 387 1080 387 1062 q 454 1295 387 1218 q 633 1372 520 1372 q 777 1323 695 1372 q 895 1273 859 1273 q 951 1291 930 1273 q 990 1351 972 1308 q 1012 1366 997 1366 l 1086 1362 q 1103 1351 1100 1358 q 1107 1326 1107 1344 q 1040 1111 1107 1188 q 861 1034 973 1034 "},"J":{"x_min":47.21875,"x_max":829.234375,"ha":915,"o":"m 256 379 l 252 807 q 254 887 252 869 q 275 952 255 932 q 354 972 295 972 l 726 972 q 804 952 784 972 q 826 887 825 932 q 829 677 829 800 q 823 379 829 554 q 544 22 819 108 q 138 -27 386 -27 q 65 5 83 -27 q 47 121 47 38 q 111 211 47 204 q 222 277 188 220 q 256 379 256 333 "},"»":{"x_min":97.234375,"x_max":979.25,"ha":1063,"o":"m 979 343 l 979 279 q 950 218 979 243 l 658 -31 q 636 -41 648 -41 q 602 -34 623 -41 q 550 2 581 -26 q 519 54 519 31 q 531 91 519 76 l 711 311 l 531 530 q 519 562 519 545 q 611 659 519 609 q 634 663 620 663 q 666 647 647 663 l 950 404 q 979 343 979 379 m 556 343 l 556 279 q 527 218 556 243 l 236 -31 q 213 -41 226 -41 q 180 -34 201 -41 q 128 2 159 -26 q 97 54 97 31 q 109 91 97 76 l 288 311 l 109 530 q 97 562 97 545 q 188 659 97 609 q 211 663 198 663 q 244 647 225 663 l 527 404 q 556 343 556 379 "},"∆":{"x_min":44.453125,"x_max":1279.265625,"ha":1338,"o":"m 429 873 q 516 947 454 920 q 650 973 577 973 q 782 948 722 973 q 868 876 841 923 q 1266 93 1072 498 q 1279 45 1279 66 q 1269 9 1279 25 q 1202 -25 1251 -25 l 116 -25 q 51 11 68 -25 q 44 45 44 26 q 56 90 44 65 q 429 873 325 673 m 412 188 l 600 188 q 618 197 615 188 q 622 210 622 205 q 619 219 622 215 l 545 409 q 515 431 537 431 q 481 409 493 431 l 393 219 q 390 210 390 215 q 393 197 390 205 q 412 188 397 188 "},"©":{"x_min":55.5625,"x_max":1123.703125,"ha":1157,"o":"m 993 147 q 832 20 932 69 q 606 -27 733 -27 q 370 15 479 -27 q 193 133 261 59 q 90 297 126 206 q 55 487 55 388 q 91 677 55 586 q 195 841 127 768 q 370 959 262 915 q 629 1004 479 1004 q 898 933 780 1004 q 1070 754 1016 862 q 1123 533 1123 647 q 1089 322 1123 419 q 993 147 1055 226 m 793 268 q 579 245 726 245 q 357 306 431 245 q 283 495 283 368 q 371 687 283 623 q 595 751 459 751 q 787 734 730 751 q 822 685 822 723 q 813 627 822 647 q 779 608 804 607 q 695 619 705 619 q 617 588 644 619 q 590 512 590 556 q 616 434 590 468 q 678 398 641 400 q 788 397 715 397 q 829 361 823 397 q 830 331 830 345 q 829 302 830 316 q 793 268 823 276 m 613 111 q 814 172 727 111 q 943 326 901 234 q 984 518 984 418 q 888 763 984 662 q 604 865 791 865 q 305 752 416 865 q 194 486 194 640 q 304 222 194 333 q 613 111 415 111 "},"˘":{"x_min":413.921875,"x_max":902.84375,"ha":1157,"o":"m 902 1302 q 836 1100 902 1173 q 657 1027 769 1027 q 479 1100 545 1027 q 413 1302 413 1173 q 418 1326 413 1319 q 434 1337 422 1333 l 506 1341 q 529 1326 522 1341 q 554 1275 544 1291 q 591 1241 565 1258 q 657 1225 618 1225 q 722 1241 695 1225 q 760 1275 750 1258 q 786 1326 770 1291 q 808 1341 794 1341 l 882 1337 q 898 1326 894 1333 q 902 1302 902 1319 "},"≥":{"x_min":111.125,"x_max":863.953125,"ha":975,"o":"m 163 491 l 523 647 l 163 802 q 111 887 111 826 l 111 925 q 138 989 111 965 q 194 1013 166 1013 q 236 1007 222 1013 l 829 737 q 863 663 863 720 l 863 630 q 829 558 863 575 l 236 287 q 194 280 222 280 q 138 304 166 280 q 111 369 111 329 l 111 406 q 163 491 111 468 m 111 102 l 111 108 q 136 193 112 173 q 209 212 161 212 l 761 212 q 836 192 811 212 q 862 108 862 172 l 862 101 q 836 18 861 37 q 763 -1 812 -1 l 212 -1 q 136 18 162 -1 q 111 102 111 38 "},"ò":{"x_min":55.5625,"x_max":1091.75,"ha":1147,"o":"m 569 968 l 641 832 q 646 802 654 813 q 616 791 638 791 l 520 791 q 473 807 493 791 l 323 932 q 297 991 280 968 q 337 1004 306 1004 l 504 1004 q 569 968 545 1004 m 491 347 q 573 191 491 191 q 655 347 655 191 q 638 456 655 418 q 573 494 622 494 q 508 456 525 494 q 491 347 491 418 m 1091 347 q 573 -30 1091 -30 q 55 347 55 -30 q 187 625 55 526 q 573 723 319 723 q 959 625 827 723 q 1091 347 1091 526 "},"^":{"x_min":112.515625,"x_max":820.90625,"ha":933,"o":"m 440 868 l 493 868 q 555 837 540 868 l 815 294 q 820 275 820 283 q 816 255 820 266 q 790 244 811 244 l 644 244 q 615 266 626 244 l 466 573 l 318 266 q 288 244 306 244 l 143 244 q 117 255 122 244 q 112 275 112 266 q 118 294 112 283 l 377 837 q 440 868 393 868 "},"«":{"x_min":97.234375,"x_max":979.25,"ha":1063,"o":"m 97 279 l 97 343 q 126 404 97 379 l 409 647 q 442 663 429 663 q 465 659 455 663 q 556 562 556 609 q 544 530 556 545 l 365 311 l 544 91 q 556 54 556 76 q 525 2 556 31 q 473 -34 494 -26 q 440 -41 452 -41 q 418 -31 427 -41 l 126 218 q 97 279 97 243 m 519 279 l 519 343 q 548 404 519 379 l 832 647 q 864 663 851 663 q 887 659 877 663 q 979 562 979 609 q 966 530 979 545 l 787 311 l 966 91 q 979 54 979 76 q 947 2 979 31 q 895 -34 916 -26 q 862 -41 875 -41 q 840 -31 850 -41 l 548 218 q 519 279 519 243 "},"D":{"x_min":80.5625,"x_max":1198.703125,"ha":1249,"o":"m 722 2 q 455 -5 629 -5 q 218 0 281 -5 q 123 22 155 4 q 88 79 91 40 q 80 421 80 229 q 86 829 80 613 q 209 970 88 962 q 469 976 294 976 q 743 971 644 976 q 935 925 843 966 q 1083 819 1027 884 q 1198 506 1198 684 q 1077 172 1198 319 q 927 55 1019 101 q 722 2 834 9 m 659 672 l 659 336 q 668 315 659 325 q 690 305 676 305 q 827 366 779 305 q 875 511 875 427 q 831 656 875 594 q 713 718 787 718 q 686 716 695 718 q 659 672 659 709 "},"ÿ":{"x_min":29.171875,"x_max":1038.96875,"ha":1067,"o":"m 183 -54 q 366 0 366 -54 q 344 54 366 18 q 44 600 243 212 q 29 650 29 632 q 86 707 29 707 l 391 707 q 459 693 436 707 q 502 640 481 679 l 632 398 q 655 381 640 381 q 679 398 670 381 l 812 675 q 841 705 825 702 q 862 707 847 705 l 1008 707 q 1036 688 1027 707 q 1038 670 1038 680 q 1028 639 1038 659 q 923 418 1018 619 q 779 122 829 216 q 710 -6 730 27 q 656 -89 690 -41 q 593 -161 623 -137 q 516 -211 562 -186 q 310 -254 436 -254 q 144 -232 184 -254 q 104 -138 104 -211 q 117 -79 104 -104 q 152 -54 130 -54 l 183 -54 m 322 888 q 362 977 322 940 q 468 1013 402 1013 q 566 978 534 1013 q 598 895 598 943 q 559 810 598 848 q 462 772 520 772 q 363 804 404 772 q 322 888 322 836 m 691 888 q 732 977 691 940 q 838 1013 772 1013 q 936 978 904 1013 q 968 895 968 943 q 929 810 968 848 q 832 772 890 772 q 732 804 773 772 q 691 888 691 836 "},"í":{"x_min":83.34375,"x_max":561.15625,"ha":615,"o":"m 516 1004 q 561 977 561 1004 q 537 937 561 957 q 486 894 513 918 q 380 807 422 840 q 333 791 361 791 l 237 791 q 207 802 215 791 q 212 832 200 813 l 284 968 q 350 1004 308 1004 l 516 1004 m 172 702 l 443 702 q 506 681 490 702 q 527 589 522 661 q 531 328 531 518 q 523 61 531 138 q 500 19 519 37 q 431 -2 480 1 q 313 -5 381 -5 q 190 -2 245 -5 q 115 19 134 1 q 93 61 95 37 q 83 338 83 151 q 88 593 83 525 q 109 681 94 661 q 172 702 125 702 "},"ˆ":{"x_min":98.625,"x_max":682,"ha":782,"o":"m 344 1034 l 436 1034 q 512 993 463 1034 l 675 851 q 682 827 682 840 q 666 768 682 787 q 638 750 650 750 q 618 754 626 750 l 390 857 l 162 754 q 142 750 154 750 q 115 768 130 750 q 99 801 100 786 q 98 828 98 816 q 105 851 98 840 l 268 993 q 344 1034 316 1034 "},"w":{"x_min":50,"x_max":1554.296875,"ha":1583,"o":"m 1526 705 q 1554 670 1554 705 q 1542 626 1554 659 q 1491 478 1530 593 q 1432 311 1451 363 q 1316 44 1377 163 q 1245 -11 1297 8 q 1126 -30 1194 -30 q 992 -10 1058 -30 q 904 52 926 9 q 847 180 882 94 q 805 280 812 266 q 713 48 734 88 q 640 -11 691 8 q 520 -30 588 -30 q 386 -10 452 -30 q 301 47 320 9 q 62 600 183 275 q 50 658 50 634 q 104 707 50 707 l 395 707 q 472 693 445 707 q 506 640 498 680 l 569 398 q 592 381 573 381 q 616 398 611 381 l 733 644 q 818 708 758 708 l 968 708 q 1039 695 1015 708 q 1079 641 1063 682 l 1175 398 q 1198 381 1180 381 q 1222 398 1216 381 l 1330 673 q 1349 700 1339 694 q 1377 705 1359 707 l 1526 705 "},"$":{"x_min":54.171875,"x_max":1082.03125,"ha":1124,"o":"m 436 -69 l 431 0 q 134 79 238 15 q 71 125 88 105 q 54 175 54 145 q 56 223 54 204 q 66 266 59 243 q 89 305 73 290 q 124 320 105 320 q 225 290 143 319 q 355 261 308 261 q 427 313 427 261 q 393 372 427 345 q 308 425 358 400 q 208 482 258 450 q 123 572 158 515 q 88 705 88 629 q 182 879 88 811 q 433 966 276 947 q 436 1033 433 1000 q 455 1084 438 1066 q 513 1102 472 1102 l 594 1102 q 652 1084 636 1102 q 675 970 675 1061 q 918 921 829 959 q 1007 828 1007 883 q 981 736 1007 773 q 929 698 955 698 q 864 718 919 698 q 765 737 809 737 q 679 673 679 737 q 720 616 679 643 q 821 566 762 590 q 939 513 880 543 q 1040 430 998 483 q 1082 309 1082 377 q 967 104 1082 179 q 675 6 852 30 q 670 -83 672 -56 q 594 -144 668 -144 l 513 -144 q 455 -126 472 -144 q 436 -69 438 -108 "},"∫":{"x_min":69.453125,"x_max":983.40625,"ha":1053,"o":"m 744 679 l 744 54 q 566 -220 744 -154 q 341 -256 468 -256 q 118 -219 215 -256 q 69 -107 69 -202 q 113 -12 69 -12 q 161 -28 126 -12 q 220 -44 197 -44 q 287 -4 266 -44 q 308 91 308 34 l 308 716 q 486 991 308 925 q 711 1027 584 1027 q 934 990 837 1027 q 983 878 983 973 q 938 783 983 783 q 891 799 926 783 q 832 815 855 815 q 765 775 786 815 q 744 679 744 736 "},"\\":{"x_min":104.171875,"x_max":893.125,"ha":997,"o":"m 104 1158 q 162 1200 104 1200 l 326 1200 q 391 1182 368 1200 q 434 1115 413 1163 q 568 748 455 1066 q 766 194 682 430 q 886 -172 850 -41 q 893 -205 893 -191 q 834 -247 893 -247 l 670 -247 q 606 -229 629 -247 q 566 -172 583 -211 q 330 476 508 -36 q 111 1125 156 963 q 104 1158 104 1144 "},"Ì":{"x_min":83.34375,"x_max":672.28125,"ha":756,"o":"m 191 972 l 563 972 q 641 943 622 972 q 666 822 659 913 q 672 470 672 732 q 661 86 672 208 q 632 29 657 54 q 568 1 608 4 q 384 -4 488 -4 q 187 1 280 -4 q 122 29 147 4 q 94 86 98 54 q 83 470 83 208 q 89 822 83 732 q 114 943 95 913 q 191 972 133 972 m 581 1052 l 205 1052 q 140 1093 140 1052 q 195 1226 140 1113 q 241 1257 212 1257 q 368 1222 275 1257 q 518 1165 461 1187 q 596 1135 576 1143 q 616 1090 616 1127 q 581 1052 616 1052 "},"µ":{"x_min":83.34375,"x_max":1119.53125,"ha":1203,"o":"m 516 645 l 515 306 q 533 245 515 266 q 579 225 551 225 q 634 246 608 225 q 670 305 659 268 l 670 390 q 679 640 670 573 q 702 682 683 663 q 771 703 722 700 q 869 707 820 707 q 1034 701 918 707 q 1087 682 1068 700 q 1109 640 1107 663 q 1119 363 1119 550 q 1113 108 1119 176 q 1093 19 1108 40 q 1030 -1 1077 -1 l 790 -1 q 730 27 745 -1 q 711 125 715 56 q 650 27 698 68 q 544 -12 602 -12 q 458 8 486 -12 q 452 9 455 11 q 451 -6 448 6 q 461 -52 454 -19 q 475 -148 475 -127 q 433 -222 475 -198 q 279 -247 391 -247 q 94 -183 108 -247 q 88 45 93 -173 q 83 434 83 265 q 84 638 83 602 q 103 691 86 675 q 170 707 120 707 l 437 709 q 499 693 481 709 q 516 645 516 677 "},"Ç":{"x_min":33.34375,"x_max":1094.53125,"ha":1142,"o":"m 452 -145 l 472 -147 q 523 -122 523 -147 q 489 -89 523 -102 q 455 -54 455 -76 q 461 -34 455 -45 q 450 -18 465 -23 q 143 134 254 11 q 33 458 33 256 q 79 707 33 600 q 211 877 126 813 q 654 1004 379 1004 q 1009 955 832 1004 q 1077 845 1077 933 q 1002 726 1077 726 q 920 737 990 726 q 823 748 851 748 q 671 679 725 748 q 618 516 618 611 q 668 348 618 420 q 804 273 718 276 q 1011 270 862 270 q 1090 202 1083 270 q 1094 152 1094 177 q 1090 100 1094 126 q 1019 29 1082 50 q 638 -26 879 -16 q 636 -31 633 -26 l 641 -34 q 708 -136 708 -58 q 669 -206 708 -175 q 558 -241 630 -238 l 541 -241 q 431 -213 431 -241 q 452 -145 431 -147 "},"’":{"x_min":83.34375,"x_max":444.484375,"ha":556,"o":"m 93 619 q 165 702 179 663 q 144 741 158 722 q 98 861 98 798 q 152 963 98 923 q 276 1004 205 1004 q 395 964 347 1004 q 444 851 444 925 q 349 632 444 727 q 129 537 254 537 q 99 559 115 537 q 83 597 83 581 q 93 619 83 613 "},"-":{"x_min":111.125,"x_max":590.328125,"ha":703,"o":"m 590 387 l 590 330 q 572 274 590 287 q 523 261 555 261 l 175 261 q 127 274 143 261 q 111 330 112 287 l 111 387 q 128 443 111 430 q 177 456 145 456 l 526 456 q 573 443 558 456 q 590 387 588 430 "},"Q":{"x_min":50,"x_max":1445.953125,"ha":1497,"o":"m 1050 31 q 746 -27 912 -27 q 444 15 580 -27 q 223 133 308 59 q 94 297 138 206 q 50 487 50 388 q 95 677 50 586 q 224 841 140 768 q 444 959 308 915 q 743 1004 580 1004 q 1030 963 905 1004 q 1232 854 1155 923 q 1387 518 1387 712 q 1282 213 1387 355 l 1414 201 q 1445 159 1445 197 q 1429 70 1445 122 q 1399 -5 1414 19 q 1345 -30 1384 -30 q 1050 31 1298 -30 m 1023 511 q 976 627 1023 577 q 832 676 929 676 q 679 625 736 676 q 622 500 622 573 q 681 381 622 426 q 825 337 741 337 q 966 391 909 337 q 1023 511 1023 445 "},"M":{"x_min":66.671875,"x_max":1469.5625,"ha":1553,"o":"m 569 900 q 687 735 620 836 q 780 601 754 634 q 822 568 807 568 q 851 586 838 568 q 943 725 863 604 q 1073 909 1022 845 q 1155 973 1125 972 q 1234 975 1186 975 q 1348 972 1283 975 q 1435 938 1414 969 q 1461 850 1457 907 q 1469 463 1469 704 q 1457 83 1469 222 q 1432 23 1454 50 q 1370 -2 1409 -2 q 1182 -4 1286 -4 q 1018 0 1079 -4 q 978 17 995 1 q 959 59 961 33 l 951 288 q 936 326 950 322 q 912 308 923 330 q 729 16 838 177 q 659 -23 702 -23 q 588 16 616 -23 q 423 311 540 86 q 407 327 416 325 q 391 320 398 330 q 384 288 384 311 l 377 59 q 354 17 376 33 q 302 0 331 1 l 165 0 q 104 26 127 1 q 77 83 81 51 q 66 467 66 206 q 73 850 66 727 q 100 940 77 908 q 179 972 122 972 q 494 968 470 972 q 569 900 518 963 "},"C":{"x_min":33.34375,"x_max":1094.53125,"ha":1142,"o":"m 573 -27 q 178 99 323 -27 q 33 458 33 226 q 79 707 33 600 q 211 877 126 813 q 654 1004 379 1004 q 1009 955 832 1004 q 1077 845 1077 933 q 1002 726 1077 726 q 920 737 990 726 q 823 748 851 748 q 671 679 725 748 q 618 516 618 611 q 668 348 618 420 q 804 273 718 276 q 1011 270 862 270 q 1090 202 1083 270 q 1094 152 1094 177 q 1090 100 1094 126 q 1012 27 1082 50 q 812 -11 943 4 q 573 -27 682 -27 "},"!":{"x_min":83.34375,"x_max":605.609375,"ha":689,"o":"m 224 996 q 348 1004 276 1004 q 472 996 420 1004 q 548 979 523 988 q 587 952 573 969 q 603 922 601 934 q 605 891 605 911 q 491 395 605 686 q 443 348 477 358 q 352 338 408 338 l 337 338 q 197 395 218 338 q 83 891 83 686 q 86 922 83 909 q 104 952 88 936 q 145 979 119 969 q 224 996 172 988 m 169 121 q 218 236 169 188 q 351 283 268 283 q 475 237 434 283 q 515 131 515 191 q 466 21 515 70 q 345 -27 418 -27 q 220 13 272 -27 q 169 121 169 54 "},"ç":{"x_min":69.453125,"x_max":897.296875,"ha":939,"o":"m 411 -145 l 430 -147 q 481 -122 481 -147 q 447 -89 481 -102 q 413 -54 413 -76 q 422 -29 413 -38 l 422 -23 q 97 175 165 8 q 69 341 69 240 q 113 520 69 441 q 233 641 156 600 q 594 719 377 719 q 832 682 711 719 q 883 570 883 665 q 834 475 883 475 q 759 491 813 475 q 666 506 704 506 q 569 463 601 506 q 537 356 537 420 q 575 247 537 293 q 695 201 612 201 q 773 215 722 201 q 845 229 825 229 q 897 136 894 229 q 892 61 897 95 q 840 11 887 26 q 590 -31 716 -27 q 593 -36 590 -34 q 666 -136 666 -56 q 627 -206 666 -175 q 516 -241 588 -238 l 500 -241 q 390 -213 390 -241 q 411 -145 390 -147 "},"È":{"x_min":77.78125,"x_max":1122.3125,"ha":1172,"o":"m 186 0 q 120 25 147 0 q 85 110 93 51 q 77 464 77 169 q 87 850 77 759 q 186 969 98 966 q 1015 972 286 972 q 1097 868 1097 972 q 1025 786 1097 786 l 719 786 q 672 766 690 786 q 655 716 655 747 l 655 616 q 693 575 655 575 l 945 575 q 979 570 968 575 q 1001 546 991 566 q 1011 480 1011 526 q 995 419 1011 434 q 943 404 979 404 l 716 404 q 668 386 682 404 q 655 333 655 369 l 655 265 q 712 205 655 205 l 1058 205 q 1102 190 1083 205 q 1122 127 1122 176 q 1098 38 1122 77 q 1043 0 1075 0 l 186 0 m 790 1052 l 413 1052 q 348 1093 348 1052 q 404 1226 348 1113 q 450 1257 420 1257 q 576 1222 483 1257 q 727 1165 669 1187 q 804 1135 784 1143 q 825 1090 825 1127 q 790 1052 825 1052 "},"{":{"x_min":55.5625,"x_max":691.71875,"ha":749,"o":"m 494 898 l 495 690 q 390 487 495 516 q 495 273 495 444 l 494 65 q 522 -9 494 18 q 618 -47 550 -37 q 672 -77 654 -52 q 691 -136 691 -102 q 531 -237 691 -237 q 227 -152 323 -237 q 130 66 130 -68 q 188 269 130 166 q 209 335 209 305 q 183 388 209 365 q 120 412 156 412 q 70 435 84 412 q 55 481 55 458 q 70 528 55 505 q 120 551 84 551 q 183 575 156 551 q 209 627 209 598 q 190 693 209 657 q 150 780 170 729 q 130 897 130 832 q 227 1116 130 1032 q 531 1201 323 1201 q 691 1100 691 1201 q 672 1041 691 1066 q 618 1011 654 1016 q 522 973 550 1001 q 494 898 494 945 "},"X":{"x_min":48.609375,"x_max":1377.890625,"ha":1428,"o":"m 76 0 q 48 20 48 0 q 63 50 48 33 l 433 440 l 95 833 q 66 892 66 869 q 73 929 66 915 q 147 970 94 970 l 672 972 q 732 959 712 972 q 780 908 752 947 l 854 802 q 888 770 875 770 q 926 797 901 770 l 1066 938 q 1098 966 1087 961 q 1130 972 1109 972 l 1351 972 q 1377 954 1377 972 q 1362 920 1377 940 l 1036 559 q 1345 133 1248 275 q 1376 55 1376 90 q 1319 4 1376 5 q 1073 1 1191 1 q 873 2 955 1 q 776 25 791 2 l 616 223 q 588 244 600 244 q 555 223 576 244 l 372 31 q 341 4 351 9 q 309 0 330 0 l 76 0 "},"ô":{"x_min":55.5625,"x_max":1091.75,"ha":1147,"o":"m 491 347 q 573 191 491 191 q 655 347 655 191 q 638 456 655 418 q 573 494 622 494 q 508 456 525 494 q 491 347 491 418 m 1091 347 q 573 -30 1091 -30 q 55 347 55 -30 q 187 625 55 526 q 573 723 319 723 q 959 625 827 723 q 1091 347 1091 526 m 527 1034 l 619 1034 q 695 993 647 1034 l 858 851 q 865 827 865 840 q 849 768 865 787 q 821 750 833 750 q 801 754 809 750 l 573 857 l 345 754 q 325 750 337 750 q 298 768 313 750 q 282 801 283 786 q 281 828 281 816 q 288 851 281 840 l 451 993 q 527 1034 500 1034 "},"¼":{"x_min":83.34375,"x_max":1675.140625,"ha":1758,"o":"m 1091 919 q 1141 963 1123 955 q 1195 972 1159 972 l 1377 972 q 1420 947 1411 972 q 1423 926 1423 940 q 1389 875 1423 912 q 1063 527 1354 838 q 611 48 772 215 q 562 4 580 12 q 506 -4 544 -4 l 325 -4 q 281 22 291 -4 q 279 41 279 27 q 298 76 279 55 q 1091 919 551 337 m 1640 118 l 1622 116 q 1619 58 1622 81 q 1557 4 1611 8 q 1436 1 1502 1 q 1302 5 1369 1 q 1266 20 1279 6 q 1250 52 1252 34 q 1245 116 1245 111 l 1075 116 q 986 162 986 119 l 984 198 q 1000 250 984 230 q 1247 541 1122 412 q 1284 551 1259 551 l 1555 551 q 1604 535 1593 551 q 1620 473 1616 519 q 1625 272 1625 427 l 1625 241 l 1640 241 q 1666 230 1657 241 q 1675 205 1675 219 l 1675 159 q 1640 118 1675 118 m 479 994 q 530 976 518 994 q 547 916 543 958 q 554 697 554 816 q 544 487 554 579 q 525 452 541 468 q 474 434 508 436 q 354 431 440 431 q 231 434 268 431 q 180 452 195 436 q 165 486 165 468 q 158 677 158 590 q 159 795 158 763 l 120 798 q 83 852 83 800 q 90 921 83 905 q 129 944 98 937 q 479 994 323 980 m 1247 344 q 1200 290 1226 322 q 1175 255 1175 258 q 1180 252 1175 252 l 1247 252 l 1247 344 "},"#":{"x_min":111.125,"x_max":1107.03125,"ha":1218,"o":"m 652 100 l 668 216 l 476 216 l 461 97 q 434 24 455 48 q 355 -1 413 0 l 329 -1 q 259 20 272 -1 q 247 62 247 41 q 250 100 247 83 l 265 216 l 175 216 q 127 229 143 216 q 111 286 112 243 l 111 343 q 128 399 111 386 q 177 412 145 412 l 290 412 l 308 558 l 219 558 q 172 571 187 558 q 155 627 156 584 l 155 684 q 172 741 155 727 q 222 754 190 754 l 334 754 l 350 873 q 376 946 355 922 q 455 972 397 970 l 483 972 q 555 945 540 972 q 563 910 563 930 q 559 870 563 890 l 544 754 l 737 754 l 752 873 q 779 946 758 922 q 858 972 800 970 l 886 972 q 958 945 943 972 q 966 910 966 930 q 962 870 966 890 l 947 754 l 1043 754 q 1090 741 1075 754 q 1107 684 1105 727 l 1107 627 q 1089 571 1107 584 q 1040 558 1072 558 l 922 558 l 904 412 l 998 412 q 1045 399 1030 412 q 1062 343 1061 386 l 1062 286 q 1045 229 1062 243 q 995 216 1027 216 l 879 216 l 863 97 q 837 24 858 48 q 758 -1 816 0 l 732 -1 q 662 20 675 -1 q 650 62 650 41 q 652 100 650 83 m 519 558 l 501 412 l 693 412 l 711 558 l 519 558 "},"Ê":{"x_min":77.78125,"x_max":1122.3125,"ha":1172,"o":"m 186 0 q 120 25 147 0 q 85 110 93 51 q 77 464 77 169 q 87 850 77 759 q 186 969 98 966 q 1015 972 286 972 q 1097 868 1097 972 q 1025 786 1097 786 l 719 786 q 672 766 690 786 q 655 716 655 747 l 655 616 q 693 575 655 575 l 945 575 q 979 570 968 575 q 1001 546 991 566 q 1011 480 1011 526 q 995 419 1011 434 q 943 404 979 404 l 716 404 q 668 386 682 404 q 655 333 655 369 l 655 265 q 712 205 655 205 l 1058 205 q 1102 190 1083 205 q 1122 127 1122 176 q 1098 38 1122 77 q 1043 0 1075 0 l 186 0 m 540 1308 l 632 1308 q 708 1266 659 1308 l 870 1125 q 877 1102 877 1113 q 861 1042 877 1061 q 834 1023 845 1023 q 813 1027 822 1023 l 586 1130 l 358 1027 q 338 1023 350 1023 q 311 1041 326 1023 q 295 1075 295 1059 q 294 1102 294 1090 q 301 1125 294 1113 l 463 1266 q 540 1308 512 1308 "},")":{"x_min":83.34375,"x_max":652.828125,"ha":736,"o":"m 104 -136 q 243 137 193 -22 q 293 477 293 297 q 243 817 293 657 q 104 1091 193 977 q 83 1152 83 1126 q 161 1198 83 1198 l 263 1198 q 395 1138 326 1198 q 521 980 465 1077 q 615 747 577 883 q 652 454 652 612 q 590 125 652 295 q 437 -143 527 -44 q 263 -243 347 -243 l 161 -243 q 83 -197 83 -243 q 104 -136 83 -170 "},"Å":{"x_min":48.609375,"x_max":1457.0625,"ha":1506,"o":"m 975 907 l 1429 138 q 1457 61 1457 93 q 1432 15 1457 30 q 1373 0 1407 0 l 926 0 q 838 25 858 0 q 823 54 833 33 l 783 140 q 698 186 765 180 l 436 186 q 391 180 406 186 q 366 155 376 175 l 312 43 q 281 9 298 18 q 233 0 265 0 l 108 0 q 50 38 54 0 q 48 50 48 44 q 69 111 48 81 l 504 877 q 707 986 566 986 l 818 986 q 975 907 929 986 m 525 551 l 461 425 q 455 402 455 412 q 490 366 455 366 l 616 366 q 657 381 645 366 q 668 406 668 395 q 663 429 668 418 l 611 548 q 568 584 594 584 q 525 551 541 584 m 788 1226 q 750 1240 775 1240 q 711 1225 725 1240 q 698 1188 698 1209 q 711 1152 698 1168 q 749 1137 725 1137 q 788 1154 773 1137 q 802 1191 802 1170 q 788 1226 802 1212 m 941 1202 q 889 1071 941 1132 q 746 1011 837 1011 q 606 1070 655 1011 q 557 1198 556 1129 q 608 1322 558 1266 q 747 1377 658 1377 q 888 1325 837 1377 q 941 1202 940 1272 "},"Δ":{"x_min":44.453125,"x_max":1279.265625,"ha":1338,"o":"m 429 873 q 516 947 454 920 q 650 973 577 973 q 782 948 722 973 q 868 876 841 923 q 1266 93 1072 498 q 1279 45 1279 66 q 1269 9 1279 25 q 1202 -25 1251 -25 l 116 -25 q 51 11 68 -25 q 44 45 44 26 q 56 90 44 65 q 429 873 325 673 m 412 188 l 600 188 q 618 197 615 188 q 622 210 622 205 q 619 219 622 215 l 545 409 q 515 431 537 431 q 481 409 493 431 l 393 219 q 390 210 390 215 q 393 197 390 205 q 412 188 397 188 "},"ø":{"x_min":55.5625,"x_max":1091.75,"ha":1147,"o":"m 882 830 q 912 815 902 830 q 922 784 922 800 q 868 675 922 769 q 1091 347 1091 583 q 573 -30 1091 -30 q 455 -25 530 -30 l 405 -108 q 322 -159 370 -159 l 254 -159 q 223 -144 233 -159 q 213 -113 213 -129 q 276 13 213 -98 q 55 347 55 97 q 187 625 55 526 q 573 723 319 723 q 690 718 640 723 l 729 779 q 813 830 765 830 l 882 830 m 491 347 q 573 191 491 191 q 655 347 655 191 q 638 456 655 418 q 573 494 622 494 q 508 456 525 494 q 491 347 491 418 "},"â":{"x_min":69.453125,"x_max":1045.921875,"ha":1129,"o":"m 586 729 q 1043 434 1038 729 q 1045 205 1045 309 q 1044 65 1045 101 q 1025 13 1043 29 q 958 -2 1008 -2 l 663 -2 q 602 13 619 -2 q 584 61 586 29 q 584 65 584 62 q 583 72 583 69 q 333 -22 491 -22 q 146 32 223 -22 q 69 184 69 87 q 124 338 69 280 q 254 416 179 395 q 417 437 330 437 q 587 420 504 437 l 587 426 q 560 526 587 495 q 472 556 533 556 q 372 546 412 556 q 311 525 331 536 q 231 491 254 491 q 192 512 209 491 q 175 577 175 533 q 190 637 175 620 q 241 670 206 654 q 586 729 362 729 m 520 161 q 583 184 581 161 q 586 305 586 230 q 541 334 586 334 q 469 313 497 334 q 441 250 441 291 q 464 184 441 208 q 520 161 487 161 m 575 1034 l 666 1034 q 743 993 694 1034 l 905 851 q 912 827 912 840 q 896 768 912 787 q 868 750 880 750 q 848 754 857 750 l 620 857 l 393 754 q 372 750 384 750 q 345 768 361 750 q 329 801 330 786 q 329 828 329 816 q 336 851 329 840 l 498 993 q 575 1034 547 1034 "},"}":{"x_min":56.953125,"x_max":693.109375,"ha":749,"o":"m 254 65 l 252 273 q 358 487 252 444 q 252 690 252 516 l 254 898 q 226 973 254 945 q 130 1011 198 1001 q 75 1041 94 1016 q 56 1100 56 1066 q 216 1201 56 1201 q 521 1116 425 1201 q 618 897 618 1032 q 597 780 618 832 q 558 693 577 729 q 538 627 538 657 q 565 575 538 598 q 627 551 591 551 q 678 528 663 551 q 693 481 693 505 q 678 435 693 458 q 627 412 663 412 q 565 388 591 412 q 538 335 538 365 q 558 269 538 305 q 618 66 618 161 q 521 -152 618 -68 q 216 -237 425 -237 q 56 -136 56 -237 q 75 -77 56 -102 q 130 -47 94 -52 q 226 -9 198 -37 q 254 65 254 18 "},"‰":{"x_min":166.6875,"x_max":2583.546875,"ha":2695,"o":"m 2229 563 q 2489 479 2396 563 q 2583 277 2583 395 q 2508 79 2583 162 q 2398 10 2469 36 q 2229 -15 2326 -15 q 1929 98 2019 -15 q 1633 -15 1839 -15 q 1464 10 1536 -15 q 1352 79 1391 36 q 1276 278 1276 161 q 1370 479 1276 395 q 1633 563 1465 563 q 1929 441 1833 563 q 2229 563 2027 563 m 1298 919 q 1348 963 1330 955 q 1402 972 1366 972 l 1612 972 q 1655 947 1645 972 q 1658 926 1658 940 q 1623 875 1658 912 q 1298 527 1589 838 q 845 48 1007 215 q 797 4 815 12 q 741 -4 779 -4 l 531 -4 q 488 22 498 -4 q 486 41 486 27 q 505 76 486 55 q 1298 919 758 337 m 166 707 q 261 909 166 825 q 522 993 355 993 q 784 909 690 993 q 877 707 877 825 q 802 508 877 591 q 692 439 763 465 q 523 413 620 413 q 354 439 426 413 q 241 508 281 465 q 166 707 166 590 m 1682 275 q 1632 397 1682 397 q 1582 275 1582 397 q 1632 152 1582 152 q 1682 275 1682 152 m 572 704 q 522 826 572 826 q 472 704 472 826 q 522 581 472 581 q 572 704 572 581 m 2277 275 q 2227 397 2277 397 q 2177 275 2177 397 q 2227 152 2177 152 q 2277 275 2277 152 "},"Ä":{"x_min":48.609375,"x_max":1457.0625,"ha":1506,"o":"m 975 907 l 1429 138 q 1457 61 1457 93 q 1432 15 1457 30 q 1373 0 1407 0 l 926 0 q 838 25 858 0 q 823 54 833 33 l 783 140 q 698 186 765 180 l 436 186 q 391 180 406 186 q 366 155 376 175 l 312 43 q 281 9 298 18 q 233 0 265 0 l 108 0 q 50 38 54 0 q 48 50 48 44 q 69 111 48 81 l 504 877 q 707 986 566 986 l 818 986 q 975 907 929 986 m 525 551 l 461 425 q 459 384 451 402 q 490 366 468 366 l 616 366 q 657 381 645 366 q 668 406 668 395 q 663 429 668 418 l 611 548 q 568 584 594 584 q 525 551 541 584 m 430 1148 q 470 1236 430 1200 q 577 1273 511 1273 q 675 1238 643 1273 q 707 1155 707 1202 q 668 1070 707 1108 q 570 1032 629 1032 q 471 1063 512 1032 q 430 1148 430 1095 m 800 1148 q 840 1236 800 1200 q 946 1273 880 1273 q 1044 1238 1012 1273 q 1076 1155 1076 1202 q 1037 1070 1076 1108 q 940 1032 998 1032 q 841 1063 882 1032 q 800 1148 800 1095 "},"¸":{"x_min":390.3125,"x_max":666.71875,"ha":1157,"o":"m 411 -145 l 430 -147 q 481 -122 481 -147 q 447 -89 481 -102 q 413 -55 413 -76 q 429 -23 413 -34 l 572 -31 q 666 -136 666 -48 q 627 -206 666 -175 q 516 -241 588 -238 l 500 -241 q 390 -213 390 -241 q 411 -145 390 -147 "},"a":{"x_min":55.5625,"x_max":1032.03125,"ha":1115,"o":"m 572 729 q 1029 434 1025 729 q 1032 205 1032 309 q 1030 65 1032 101 q 1011 13 1029 29 q 944 -2 994 -2 l 650 -2 q 588 13 605 -2 q 570 61 572 29 q 570 65 570 62 q 569 72 569 69 q 319 -22 477 -22 q 132 32 209 -22 q 55 184 55 87 q 110 338 55 280 q 240 416 165 395 q 403 437 316 437 q 573 420 490 437 l 573 426 q 546 526 573 495 q 459 556 519 556 q 358 546 398 556 q 297 525 318 536 q 218 491 240 491 q 178 512 195 491 q 161 577 161 533 q 177 637 161 620 q 227 670 193 654 q 572 729 348 729 m 506 161 q 569 184 568 161 q 572 305 572 230 q 527 334 572 334 q 455 313 483 334 q 427 250 427 291 q 450 184 427 208 q 506 161 473 161 "},"—":{"x_min":111.125,"x_max":1558.453125,"ha":1670,"o":"m 1483 268 q 834 259 1369 259 q 186 268 300 259 q 129 287 147 270 q 111 345 111 304 l 111 366 q 129 425 111 408 q 186 444 147 441 q 834 452 300 452 q 1483 444 1369 452 q 1540 425 1522 441 q 1558 366 1558 408 l 1558 345 q 1540 287 1558 304 q 1483 268 1522 270 "},"=":{"x_min":76.390625,"x_max":966.75,"ha":1043,"o":"m 966 711 l 966 682 q 941 597 966 618 q 865 577 915 577 l 175 577 q 102 597 126 577 q 76 680 77 616 l 76 711 q 102 795 76 775 q 177 815 127 815 l 868 815 q 941 795 916 815 q 966 711 965 776 m 966 304 l 966 275 q 941 190 966 211 q 865 170 915 170 l 175 170 q 102 190 126 170 q 76 273 77 209 l 76 304 q 102 388 76 368 q 177 408 127 408 l 868 408 q 941 388 916 408 q 966 304 965 369 "},"N":{"x_min":83.34375,"x_max":1268.15625,"ha":1340,"o":"m 1025 972 l 1173 972 q 1239 957 1220 972 q 1259 894 1258 941 q 1268 440 1268 683 q 1258 84 1268 197 q 1234 26 1255 52 q 1177 0 1212 0 l 945 0 q 838 34 897 0 q 433 266 516 225 q 406 261 416 273 q 395 218 395 250 l 395 63 q 376 22 395 37 q 226 -1 347 -1 q 161 0 193 -1 q 109 29 129 2 q 87 86 88 55 q 83 504 83 252 q 84 833 83 757 q 102 941 86 909 q 166 972 119 972 l 319 972 q 416 945 366 972 q 919 686 847 722 q 957 683 943 675 q 970 713 970 691 l 970 908 q 985 954 970 936 q 1025 972 1000 972 "},"˚":{"x_min":89.5625,"x_max":472.96875,"ha":563,"o":"m 320 1018 q 281 1032 306 1032 q 243 1016 256 1032 q 230 980 230 1001 q 243 944 230 959 q 281 929 256 929 q 320 945 305 929 q 334 983 334 962 q 320 1018 334 1004 m 472 993 q 421 863 473 923 q 278 802 369 802 q 138 861 187 802 q 89 989 88 920 q 140 1113 90 1058 q 279 1169 190 1169 q 420 1116 369 1169 q 472 993 472 1063 "},"ú":{"x_min":83.34375,"x_max":1119.53125,"ha":1203,"o":"m 536 832 l 608 968 q 673 1004 632 1004 l 840 1004 q 879 991 870 1004 q 879 962 888 979 q 854 932 870 945 q 808 894 837 918 q 704 807 745 840 q 657 791 684 791 l 561 791 q 531 802 538 791 q 536 832 523 813 m 516 645 l 515 306 q 533 245 515 266 q 579 225 551 225 q 634 246 608 225 q 670 305 659 268 l 670 390 q 679 640 670 573 q 702 682 683 663 q 771 703 722 700 q 869 707 820 707 q 1034 701 918 707 q 1087 682 1068 700 q 1109 640 1107 663 q 1119 363 1119 550 q 1113 108 1119 176 q 1093 19 1108 40 q 1030 -1 1077 -1 l 759 -1 q 696 19 712 -1 q 676 90 680 40 l 676 91 q 386 -18 533 -18 q 163 54 238 -18 q 85 261 87 127 q 83 498 83 394 q 84 638 83 602 q 103 691 86 675 q 170 707 120 707 l 437 709 q 499 693 481 709 q 516 645 516 677 "},"⁄":{"x_min":111.125,"x_max":1255.65625,"ha":1367,"o":"m 923 919 q 973 963 955 955 q 1027 972 991 972 l 1209 972 q 1252 947 1243 972 q 1255 926 1255 940 q 1220 875 1255 912 q 895 527 1186 838 q 443 48 604 215 q 394 4 412 12 q 338 -4 376 -4 l 156 -4 q 113 22 123 -4 q 111 41 111 27 q 130 76 111 55 q 923 919 383 337 "},"2":{"x_min":97.234375,"x_max":1141.765625,"ha":1183,"o":"m 112 50 l 100 126 q 97 151 97 138 q 133 223 97 197 q 388 443 276 326 q 500 637 500 559 q 465 725 500 691 q 386 759 430 759 q 194 679 284 759 q 161 669 180 665 q 100 804 100 682 q 118 869 100 845 q 181 915 137 893 q 585 1001 358 1001 q 923 922 812 1001 q 1034 720 1034 844 q 970 505 1034 597 q 770 305 905 413 q 741 263 741 283 q 780 240 741 240 q 786 240 783 240 l 1087 252 q 1090 252 1088 252 q 1127 222 1113 252 q 1141 135 1141 193 q 1122 39 1141 77 q 1044 0 1102 1 q 639 -4 838 -4 q 320 -1 440 -4 q 188 2 201 1 q 154 6 175 2 q 125 21 134 11 q 112 50 116 31 "},"ü":{"x_min":83.34375,"x_max":1119.53125,"ha":1203,"o":"m 516 645 l 515 306 q 533 245 515 266 q 579 225 551 225 q 634 246 608 225 q 670 305 659 268 l 670 390 q 679 640 670 573 q 702 682 683 663 q 771 703 722 700 q 869 707 820 707 q 1034 701 918 707 q 1087 682 1068 700 q 1109 640 1107 663 q 1119 363 1119 550 q 1113 108 1119 176 q 1093 19 1108 40 q 1030 -1 1077 -1 l 759 -1 q 696 19 712 -1 q 676 90 680 40 l 676 91 q 386 -18 533 -18 q 163 54 238 -18 q 85 261 87 127 q 83 498 83 394 q 84 638 83 602 q 103 691 86 675 q 170 707 120 707 l 437 709 q 499 693 481 709 q 516 645 516 677 m 286 889 q 326 978 286 941 q 432 1015 366 1015 q 530 979 498 1015 q 562 897 562 944 q 523 811 562 850 q 426 773 484 773 q 327 805 368 773 q 286 889 286 837 m 655 889 q 695 978 655 941 q 802 1015 736 1015 q 900 979 868 1015 q 932 897 932 944 q 893 811 932 850 q 795 773 854 773 q 696 805 737 773 q 655 889 655 837 "},"¯":{"x_min":83.34375,"x_max":723.671875,"ha":807,"o":"m 655 815 l 151 816 q 99 832 115 816 q 83 902 83 847 q 99 971 83 957 q 150 986 115 986 l 657 986 q 707 970 690 986 q 723 900 723 955 q 707 830 723 845 q 655 815 691 815 "},"Z":{"x_min":51.390625,"x_max":1126.484375,"ha":1172,"o":"m 104 801 l 104 904 q 121 954 104 940 q 214 971 138 969 q 443 975 290 973 q 780 976 595 976 q 1030 976 780 976 q 1092 958 1063 976 q 1120 912 1120 940 l 1120 798 q 1113 763 1120 776 q 1105 747 1113 763 q 1095 730 1104 743 l 1084 713 q 786 273 955 509 q 774 234 769 250 q 800 218 779 218 l 1065 218 q 1110 197 1094 218 q 1126 154 1126 177 l 1126 73 q 1065 -1 1126 1 q 615 -5 883 -5 q 187 0 347 -5 q 84 18 116 2 q 51 80 51 34 l 51 187 q 79 279 51 233 q 380 716 223 508 q 384 747 393 734 q 352 759 376 759 l 169 759 q 122 771 141 759 q 104 801 104 783 "},"u":{"x_min":69.453125,"x_max":1105.640625,"ha":1189,"o":"m 502 645 l 501 306 q 519 245 501 266 q 566 225 537 225 q 620 246 594 225 q 657 305 645 268 l 657 390 q 665 640 657 573 q 688 682 669 663 q 757 703 708 700 q 855 707 807 707 q 1020 701 904 707 q 1073 682 1054 700 q 1095 640 1093 663 q 1105 363 1105 550 q 1100 108 1105 176 q 1079 19 1094 40 q 1016 -1 1063 -1 l 745 -1 q 682 19 698 -1 q 662 90 666 40 l 662 91 q 372 -18 519 -18 q 149 54 225 -18 q 71 261 73 127 q 69 498 69 394 q 70 638 69 602 q 89 691 72 675 q 156 707 106 707 l 423 709 q 485 693 468 709 q 502 645 502 677 "},"˜":{"x_min":231.96875,"x_max":854.234375,"ha":1086,"o":"m 633 769 q 525 810 586 769 q 438 851 465 851 q 395 838 411 851 q 365 793 380 825 q 338 780 352 780 l 250 780 q 231 812 231 780 q 292 970 231 913 q 452 1027 352 1027 q 560 986 500 1027 q 647 945 620 945 q 690 959 675 945 q 720 1004 705 972 q 747 1016 733 1016 l 836 1016 q 854 984 854 1016 q 793 826 854 883 q 633 769 733 769 "},"Ó":{"x_min":55.5625,"x_max":1393.171875,"ha":1449,"o":"m 754 -27 q 450 15 586 -27 q 229 133 313 59 q 100 297 144 206 q 55 487 55 388 q 100 677 55 586 q 229 841 145 768 q 450 959 313 915 q 748 1004 586 1004 q 1036 963 911 1004 q 1237 854 1161 923 q 1393 518 1393 712 q 1350 325 1393 419 q 1229 153 1308 230 q 1027 27 1151 76 q 754 -27 904 -22 m 1029 511 q 982 627 1029 577 q 838 676 934 676 q 684 625 741 676 q 627 500 627 573 q 687 381 627 426 q 831 337 747 337 q 972 391 915 337 q 1029 511 1029 445 m 976 1052 l 600 1052 q 565 1090 565 1052 q 585 1135 565 1127 q 663 1165 605 1143 q 758 1201 720 1187 q 938 1257 907 1257 q 986 1226 969 1257 q 1041 1093 1041 1113 q 976 1052 1041 1052 "},"k":{"x_min":83.34375,"x_max":1140.375,"ha":1182,"o":"m 897 -1 l 744 0 q 670 31 691 0 l 541 237 q 528 243 530 245 q 525 196 526 241 q 518 59 525 151 q 495 19 515 37 q 429 -1 476 1 q 317 -4 383 -4 q 170 0 251 -4 q 118 18 137 1 q 97 59 100 36 q 83 512 83 229 q 94 925 83 795 q 113 993 98 972 q 173 1015 127 1015 l 440 1015 q 501 993 486 1015 q 520 925 516 972 q 529 519 529 804 q 540 487 529 487 q 555 495 547 487 l 737 662 q 776 689 761 683 q 819 695 791 695 l 1022 695 q 1048 672 1040 695 q 1051 655 1051 666 q 1037 630 1051 644 l 844 461 q 844 437 833 450 q 1125 73 976 281 q 1140 36 1140 52 q 1088 1 1140 1 l 897 -1 "},"ˇ":{"x_min":143.0625,"x_max":726.453125,"ha":782,"o":"m 480 1002 l 388 1002 q 312 1044 361 1002 l 150 1186 q 143 1208 143 1197 q 159 1268 143 1250 q 186 1287 175 1287 q 206 1283 198 1287 l 434 1180 l 662 1283 q 682 1287 670 1287 q 709 1269 694 1287 q 725 1236 725 1251 q 726 1209 726 1220 q 719 1186 726 1197 l 556 1044 q 480 1002 508 1002 "},"Ù":{"x_min":52.78125,"x_max":1173.703125,"ha":1229,"o":"m 622 826 l 619 700 l 619 431 q 655 341 619 373 q 740 309 691 309 q 824 341 788 309 q 859 431 859 373 l 859 845 q 877 941 859 911 q 952 972 894 972 l 1080 972 q 1141 945 1125 972 q 1173 580 1173 898 q 1170 420 1173 476 q 1118 220 1166 308 q 995 79 1070 131 q 652 -27 844 -27 q 234 90 400 -27 q 103 249 151 150 q 54 480 55 348 q 52 672 52 545 q 56 856 52 800 q 78 942 59 912 q 154 972 97 972 l 525 972 q 598 943 580 972 q 622 826 622 905 m 845 1052 l 469 1052 q 404 1093 404 1052 q 459 1226 404 1113 q 505 1257 476 1257 q 632 1222 538 1257 q 782 1165 725 1187 q 860 1135 840 1143 q 880 1090 880 1127 q 845 1052 880 1052 "},"€":{"x_min":13.890625,"x_max":1091.75,"ha":1142,"o":"m 945 641 q 961 584 961 627 q 943 528 961 541 q 894 515 926 515 l 633 515 q 632 486 632 505 q 633 456 632 466 l 897 456 q 945 443 929 456 q 961 387 961 430 q 943 331 961 344 q 894 318 926 318 l 675 318 q 837 220 732 220 q 929 230 865 220 q 1016 243 1004 243 q 1091 123 1091 243 q 1023 13 1091 33 q 687 -18 913 -18 q 126 318 218 -18 l 77 318 q 30 331 45 318 q 13 387 15 344 q 31 443 13 430 q 80 456 48 456 l 106 456 l 106 515 l 77 515 q 30 528 45 515 q 13 584 15 541 q 31 641 13 627 q 80 654 48 654 l 127 654 q 318 907 175 826 q 688 987 462 987 q 1023 955 913 987 q 1091 845 1091 936 q 1016 726 1091 726 q 934 737 1004 726 q 837 748 865 748 q 676 654 734 748 l 897 654 q 945 641 929 654 "},"¢":{"x_min":52.78125,"x_max":880.625,"ha":939,"o":"m 648 634 q 552 593 583 634 q 520 492 520 552 q 558 389 520 431 q 679 347 595 347 q 757 359 705 347 q 829 372 808 372 q 880 286 877 372 q 875 215 880 247 q 823 169 870 183 q 597 129 713 136 q 594 70 595 106 q 576 16 593 34 q 518 -1 559 -1 l 437 -1 q 379 16 395 -1 q 359 73 362 34 l 355 143 q 52 470 52 194 q 356 813 52 745 l 356 866 q 376 954 356 933 q 437 975 395 975 l 518 975 q 576 957 559 975 q 598 870 598 933 l 598 836 q 813 800 707 832 q 865 704 865 784 q 853 634 865 665 q 818 604 841 604 q 741 619 795 604 q 648 634 686 634 "},"Ω":{"x_min":83.34375,"x_max":1397.328125,"ha":1481,"o":"m 875 526 q 842 679 875 616 q 739 741 809 741 q 637 679 669 741 q 605 526 605 616 q 622 354 605 436 q 656 243 640 272 q 684 198 672 215 q 709 140 709 165 q 705 93 709 134 q 694 36 701 52 q 675 11 687 19 q 602 -2 657 0 q 397 -4 548 -4 q 182 -1 247 -4 q 100 39 118 1 q 83 132 83 77 q 85 203 83 187 q 98 233 87 219 q 125 247 109 247 q 159 244 141 247 q 231 220 176 241 q 297 200 286 200 q 308 211 308 200 q 297 231 308 222 q 170 388 212 291 q 127 572 127 484 q 163 736 127 659 q 256 861 198 812 q 395 942 315 909 q 561 988 476 975 q 740 1001 645 1001 q 919 988 834 1001 q 1084 942 1004 975 q 1223 861 1165 909 q 1317 736 1282 812 q 1352 572 1352 659 q 1310 388 1352 484 q 1183 231 1268 291 q 1172 211 1172 222 q 1183 200 1172 200 q 1250 220 1194 200 q 1345 247 1319 247 q 1382 233 1370 247 q 1395 203 1393 219 q 1397 132 1397 187 q 1379 39 1397 77 q 1298 -1 1362 1 q 1082 -4 1233 -4 q 884 -2 932 -4 q 826 2 836 0 q 805 11 816 4 q 776 80 782 26 q 770 145 770 134 q 777 169 770 156 q 795 198 783 181 q 824 243 808 215 q 857 354 840 272 q 875 526 875 436 "},"ß":{"x_min":83.34375,"x_max":1323.71875,"ha":1378,"o":"m 1118 708 q 1093 623 1118 659 q 1045 558 1069 587 q 1022 494 1022 529 q 1069 430 1022 459 q 1173 382 1116 401 q 1276 321 1229 363 q 1323 220 1323 279 q 1292 106 1323 162 q 1213 20 1261 50 q 957 -30 1126 -30 q 676 26 787 -30 q 622 57 638 41 q 605 115 605 73 q 622 176 605 158 q 652 194 640 194 q 683 177 665 194 q 802 130 740 130 q 845 145 826 130 q 863 193 863 161 q 838 247 863 225 q 777 283 813 270 q 706 311 741 295 q 645 366 670 327 q 620 461 620 404 q 653 561 620 518 q 718 640 686 605 q 751 707 751 675 q 720 766 751 740 q 650 791 688 791 q 550 752 581 791 q 519 655 519 712 l 519 91 q 502 22 519 44 q 437 0 486 0 l 166 0 q 100 22 118 0 q 83 91 83 44 q 84 636 84 280 q 129 804 84 732 q 248 920 173 877 q 605 1007 398 1007 q 1038 877 891 1007 q 1118 708 1118 807 "},"é":{"x_min":55.5625,"x_max":975.078125,"ha":1031,"o":"m 477 829 l 550 965 q 615 1001 573 1001 l 782 1001 q 821 988 812 1001 q 821 959 830 976 q 795 929 812 943 q 750 891 779 915 q 645 804 687 837 q 598 788 626 788 l 502 788 q 472 800 480 788 q 477 829 465 811 m 275 664 q 406 709 338 695 q 572 723 473 723 q 762 699 672 723 q 897 633 852 675 q 975 454 975 556 q 702 293 975 293 q 504 311 607 293 q 538 181 508 219 q 644 144 568 144 q 770 161 720 144 q 851 195 820 177 q 903 212 882 212 q 940 193 925 212 q 963 124 963 168 q 946 64 963 80 q 891 33 929 48 q 516 -22 759 -22 q 185 74 315 -22 q 55 334 55 170 q 84 479 55 413 q 162 589 113 545 q 275 664 211 633 m 597 565 q 505 427 512 565 q 575 422 572 422 q 666 483 666 422 q 597 565 666 565 "},"s":{"x_min":55.5625,"x_max":847.296875,"ha":903,"o":"m 388 181 q 356 243 388 220 q 277 277 323 265 q 183 304 230 288 q 103 360 136 320 q 70 465 70 400 q 472 723 70 723 q 748 665 644 723 q 795 631 782 647 q 809 575 809 615 q 793 514 809 534 q 761 494 777 494 q 692 525 745 494 q 581 558 638 556 q 536 512 536 558 q 568 463 536 481 q 645 432 600 445 q 737 400 691 419 q 815 338 783 381 q 847 227 847 294 q 445 -30 847 -30 q 126 26 250 -30 q 72 57 88 41 q 55 115 55 73 q 72 176 55 158 q 102 194 90 194 q 181 163 113 194 q 319 133 250 133 q 388 181 388 133 "},"B":{"x_min":77.78125,"x_max":1300.109375,"ha":1353,"o":"m 644 402 l 643 222 q 651 200 643 209 q 673 191 659 191 q 813 225 758 191 q 868 329 868 258 q 811 429 868 401 q 711 451 765 451 q 683 450 697 451 q 644 402 644 447 m 643 784 l 644 670 q 676 644 644 644 q 816 723 816 644 q 691 815 816 815 q 676 815 683 815 q 643 784 643 815 m 188 970 q 619 976 361 976 q 977 971 877 976 q 1152 894 1076 966 q 1229 727 1229 822 q 1129 558 1229 612 q 1119 545 1119 552 q 1129 534 1119 537 q 1250 451 1201 515 q 1300 300 1300 387 q 1215 101 1300 190 q 955 4 1130 12 q 702 -2 780 -2 q 183 1 625 -2 q 118 27 143 1 q 88 86 93 52 q 77 442 77 208 q 87 841 77 676 q 111 939 91 909 q 188 970 130 969 "},"…":{"x_min":180.5625,"x_max":1722.359375,"ha":1903,"o":"m 180 132 q 229 247 180 200 q 362 294 279 294 q 486 248 445 294 q 526 142 526 202 q 477 32 526 81 q 356 -16 429 -16 q 231 24 283 -16 q 180 132 180 65 m 777 132 q 827 247 777 200 q 959 294 876 294 q 1083 248 1043 294 q 1123 142 1123 202 q 1075 32 1123 81 q 953 -16 1026 -16 q 829 24 880 -16 q 777 132 777 65 m 1376 132 q 1425 247 1376 200 q 1558 294 1475 294 q 1682 248 1641 294 q 1722 142 1722 202 q 1673 32 1722 81 q 1552 -16 1625 -16 q 1427 24 1479 -16 q 1376 132 1376 65 "},"?":{"x_min":27.78125,"x_max":832.015625,"ha":943,"o":"m 187 395 l 179 476 q 213 554 179 522 q 290 600 248 586 q 366 639 331 613 q 401 702 401 665 q 374 759 401 738 q 306 780 347 780 q 187 733 243 780 q 126 705 152 705 q 63 745 100 705 q 27 816 27 786 q 56 876 27 847 q 484 1007 187 1007 q 734 945 637 1007 q 832 754 832 883 q 799 665 832 704 q 720 602 766 626 q 626 555 673 577 q 513 444 513 505 q 514 422 513 440 q 514 398 515 404 q 511 379 513 393 q 502 359 508 365 q 351 330 469 330 q 255 336 316 330 q 187 395 194 343 m 177 121 q 227 236 177 188 q 359 283 276 283 q 483 237 443 283 q 523 131 523 191 q 475 21 523 70 q 353 -27 426 -27 q 229 13 280 -27 q 177 121 177 54 "},"H":{"x_min":83.34375,"x_max":1433.453125,"ha":1517,"o":"m 1422 87 q 1395 30 1419 55 q 1329 2 1370 5 q 1141 -4 1215 -4 q 968 2 1068 -4 q 887 69 891 9 q 884 131 886 93 q 881 198 883 169 q 866 244 879 227 q 819 261 852 261 l 715 261 q 668 244 682 261 q 653 198 655 227 q 650 131 651 169 q 647 69 648 93 q 566 2 643 9 q 384 -4 466 -4 q 187 2 301 -4 q 121 30 145 5 q 94 87 97 55 q 83 480 83 209 q 88 832 83 751 q 113 943 94 913 q 191 973 133 973 l 530 973 q 613 940 579 973 q 647 854 647 907 l 647 562 q 690 512 647 512 l 844 512 q 887 562 887 512 l 887 854 q 921 940 887 907 q 1004 973 955 973 l 1325 973 q 1402 943 1383 973 q 1427 832 1422 913 q 1433 480 1433 751 q 1422 87 1433 209 "},"î":{"x_min":16.671875,"x_max":600.046875,"ha":615,"o":"m 172 702 l 443 702 q 506 681 490 702 q 527 589 522 661 q 531 328 531 518 q 523 61 531 138 q 500 19 519 37 q 431 -2 480 1 q 313 -5 381 -5 q 190 -2 245 -5 q 115 19 134 1 q 93 61 95 37 q 83 338 83 151 q 88 593 83 525 q 109 681 94 661 q 172 702 125 702 m 262 1036 l 354 1036 q 430 994 381 1036 l 593 852 q 600 830 600 841 q 584 770 600 788 q 556 751 568 751 q 536 755 544 751 l 308 858 l 80 755 q 60 751 72 751 q 33 769 48 751 q 17 802 18 787 q 16 829 16 818 q 23 852 16 841 l 186 994 q 262 1036 234 1036 "},"c":{"x_min":69.453125,"x_max":897.296875,"ha":939,"o":"m 666 506 q 569 463 601 506 q 537 356 537 420 q 575 247 537 293 q 695 201 612 201 q 773 215 722 201 q 845 229 825 229 q 897 136 894 229 q 892 61 897 95 q 840 11 887 26 q 595 -31 701 -31 q 421 -24 488 -31 q 285 6 354 -16 q 171 69 216 30 q 97 174 126 108 q 69 341 69 240 q 113 520 69 441 q 233 641 156 600 q 594 719 377 719 q 832 682 711 719 q 883 570 883 665 q 834 475 883 475 q 759 491 813 475 q 666 506 704 506 "},"¶":{"x_min":177.796875,"x_max":1308.4375,"ha":1433,"o":"m 1151 370 l 1148 83 q 987 -177 1148 -106 q 594 -240 844 -240 q 535 -213 550 -240 q 520 -120 520 -186 q 572 -48 520 -54 q 698 87 698 -34 l 698 190 q 686 213 698 204 q 662 222 675 222 l 554 222 q 273 319 369 222 q 177 566 177 416 q 286 841 177 716 q 572 970 394 965 q 824 975 705 975 q 1047 972 943 975 l 1248 972 q 1282 957 1268 972 q 1308 879 1308 927 q 1297 816 1308 830 q 1262 801 1286 801 l 1175 801 q 1150 772 1150 801 q 1151 444 1151 634 l 1151 370 "},"−":{"x_min":76.390625,"x_max":966.75,"ha":1043,"o":"m 966 505 l 966 476 q 941 392 966 412 q 865 372 915 372 l 175 372 q 102 391 126 372 q 76 475 77 411 l 76 505 q 102 589 76 569 q 177 609 127 609 l 868 609 q 941 590 916 609 q 966 505 965 570 "},"≠":{"x_min":76.390625,"x_max":966.75,"ha":1043,"o":"m 808 973 q 838 958 829 973 q 848 925 848 943 q 793 815 848 908 l 868 815 q 941 795 916 815 q 966 711 965 776 l 966 682 q 941 597 966 618 q 865 577 915 577 l 655 577 l 556 408 l 868 408 q 941 388 916 408 q 966 304 965 369 l 966 275 q 941 190 966 211 q 865 170 915 170 l 415 170 q 348 59 365 84 q 265 8 313 8 l 197 8 q 166 23 176 8 q 156 50 156 38 q 163 77 156 62 q 192 130 170 91 q 213 170 213 169 l 175 170 q 102 190 126 170 q 76 273 77 209 l 76 304 q 102 388 76 368 q 177 408 127 408 l 352 408 l 452 577 l 175 577 q 102 597 126 577 q 76 680 77 616 l 76 711 q 102 795 76 775 q 177 815 127 815 l 591 815 q 661 929 632 884 q 740 973 691 973 l 808 973 "},"•":{"x_min":111.125,"x_max":884.796875,"ha":996,"o":"m 522 119 q 219 228 327 119 q 111 486 111 337 q 220 746 111 636 q 512 857 329 857 q 790 757 695 857 q 884 518 884 658 q 843 330 884 419 q 718 180 802 241 q 522 119 633 119 "},"¥":{"x_min":41.671875,"x_max":1259.828125,"ha":1327,"o":"m 1232 972 q 1259 944 1259 972 q 1244 905 1259 926 l 955 448 l 1077 448 q 1125 435 1109 448 q 1141 379 1141 422 q 1124 322 1141 336 q 1075 309 1107 309 l 932 309 q 930 251 932 270 l 1077 251 q 1125 238 1109 251 q 1141 181 1141 225 q 1124 125 1141 138 q 1075 112 1107 112 l 927 112 l 926 84 q 900 28 925 54 q 833 0 875 2 q 643 -5 754 -5 q 438 0 531 -5 q 372 28 397 2 q 345 84 347 54 l 344 112 l 208 112 q 161 125 176 112 q 144 181 145 138 q 161 238 144 225 q 211 251 179 251 l 343 251 l 343 309 l 208 309 q 161 322 176 309 q 144 379 145 336 q 161 435 144 422 q 211 448 179 448 l 300 448 l 62 847 q 41 900 41 879 q 109 969 41 969 l 584 972 q 645 959 625 972 q 693 908 665 947 l 777 726 q 814 695 800 695 q 850 720 829 695 l 991 943 q 1051 972 1015 972 l 1232 972 "},"(":{"x_min":83.34375,"x_max":652.828125,"ha":736,"o":"m 632 1091 q 493 817 543 977 q 443 477 443 657 q 493 137 443 297 q 632 -136 543 -22 q 652 -197 652 -170 q 575 -243 652 -243 l 472 -243 q 298 -143 388 -243 q 145 125 208 -44 q 83 454 83 295 q 120 747 83 612 q 214 980 158 883 q 340 1138 270 1077 q 472 1198 409 1198 l 575 1198 q 652 1152 652 1198 q 632 1091 652 1126 "},"U":{"x_min":52.78125,"x_max":1173.703125,"ha":1229,"o":"m 622 826 l 619 700 l 619 431 q 655 341 619 373 q 740 309 691 309 q 824 341 788 309 q 859 431 859 373 l 859 845 q 877 941 859 911 q 952 972 894 972 l 1080 972 q 1141 945 1125 972 q 1173 580 1173 898 q 1170 420 1173 476 q 1118 220 1166 308 q 995 79 1070 131 q 652 -27 844 -27 q 234 90 400 -27 q 103 249 151 150 q 54 480 55 348 q 52 672 52 545 q 56 856 52 800 q 78 942 59 912 q 154 972 97 972 l 525 972 q 598 943 580 972 q 622 826 622 905 "},"◊":{"x_min":97.234375,"x_max":855.625,"ha":953,"o":"m 506 -8 l 445 -8 q 384 13 397 -8 l 109 447 q 97 487 97 468 q 109 527 97 506 l 384 961 q 445 983 397 983 l 506 983 q 568 961 555 983 l 843 527 q 855 487 855 506 q 843 447 855 468 l 568 13 q 506 -8 555 -8 m 647 487 l 476 773 l 305 487 l 476 201 l 647 487 "},"Ñ":{"x_min":77.78125,"x_max":1268.15625,"ha":1340,"o":"m 1025 972 l 1173 972 q 1239 957 1220 972 q 1259 894 1258 941 q 1268 440 1268 683 q 1258 84 1268 197 q 1234 26 1255 52 q 1177 0 1212 0 l 945 0 q 838 34 897 0 q 433 266 516 225 q 406 261 416 273 q 395 218 395 250 l 395 63 q 376 22 395 37 q 226 -1 347 -1 q 161 0 193 -1 q 110 28 130 2 q 87 86 90 54 q 77 468 77 211 q 83 819 77 726 q 104 942 88 912 q 166 972 119 972 l 319 972 q 416 945 366 972 q 919 686 847 722 q 957 683 943 675 q 970 713 970 691 l 970 908 q 985 954 970 936 q 1025 972 1000 972 m 795 1027 q 651 1077 733 1027 q 534 1126 569 1126 q 477 1109 498 1126 q 438 1048 456 1091 q 416 1033 430 1033 l 343 1037 q 325 1048 329 1041 q 322 1073 322 1055 q 388 1288 322 1211 q 568 1365 455 1365 q 712 1316 630 1365 q 829 1266 794 1266 q 886 1284 865 1266 q 925 1344 907 1301 q 947 1359 933 1359 l 1020 1355 q 1038 1344 1034 1351 q 1041 1319 1041 1337 q 975 1104 1041 1182 q 795 1027 908 1027 "},"F":{"x_min":77.78125,"x_max":1091.75,"ha":1129,"o":"m 79 97 l 77 851 q 176 972 88 966 q 1008 973 238 973 q 1091 850 1091 973 q 1018 787 1091 787 l 715 787 q 668 768 686 787 q 651 716 651 748 l 651 618 q 687 575 651 575 l 918 575 q 968 559 951 575 q 984 489 984 544 q 968 419 984 434 q 916 404 952 404 l 709 404 q 661 387 675 404 q 648 334 648 370 l 648 95 q 627 23 648 47 q 573 0 607 0 l 179 0 q 112 25 140 0 q 79 97 84 51 "},"­":{"x_min":111.125,"x_max":590.328125,"ha":703,"o":"m 590 387 l 590 330 q 572 274 590 287 q 523 261 555 261 l 175 261 q 127 274 143 261 q 111 330 112 287 l 111 387 q 128 443 111 430 q 177 456 145 456 l 526 456 q 573 443 558 456 q 590 387 588 430 "},":":{"x_min":83.34375,"x_max":429.203125,"ha":513,"o":"m 83 132 q 132 247 83 200 q 265 294 181 294 q 388 248 348 294 q 429 142 429 202 q 380 32 429 81 q 259 -16 331 -16 q 134 24 186 -16 q 83 132 83 65 m 83 759 q 132 873 83 826 q 265 920 181 920 q 388 875 348 920 q 429 768 429 829 q 380 659 429 708 q 259 609 331 609 q 134 650 186 609 q 83 759 83 691 "},"Û":{"x_min":52.78125,"x_max":1173.703125,"ha":1229,"o":"m 622 826 l 619 700 l 619 431 q 655 341 619 373 q 740 309 691 309 q 824 341 788 309 q 859 431 859 373 l 859 845 q 877 941 859 911 q 952 972 894 972 l 1080 972 q 1141 945 1125 972 q 1173 580 1173 898 q 1170 420 1173 476 q 1118 220 1166 308 q 995 79 1070 131 q 652 -27 844 -27 q 234 90 400 -27 q 103 249 151 150 q 54 480 55 348 q 52 672 52 545 q 56 856 52 800 q 78 942 59 912 q 154 972 97 972 l 525 972 q 598 943 580 972 q 622 826 622 905 m 693 1308 l 784 1308 q 861 1266 812 1308 l 1023 1125 q 1030 1102 1030 1113 q 1014 1042 1030 1061 q 986 1023 998 1023 q 966 1027 975 1023 l 738 1130 l 511 1027 q 491 1023 502 1023 q 463 1041 479 1023 q 447 1075 448 1059 q 447 1102 447 1090 q 454 1125 447 1113 l 616 1266 q 693 1308 665 1308 "},"*":{"x_min":111.125,"x_max":758.390625,"ha":870,"o":"m 144 668 q 111 711 111 679 q 123 781 111 743 q 152 839 136 819 q 180 858 168 859 q 362 775 254 851 q 336 948 336 869 q 339 973 336 963 q 366 993 343 983 q 427 1004 388 1004 q 488 999 466 1004 q 519 983 509 994 q 531 947 531 969 q 505 775 531 869 q 661 852 576 825 q 686 856 673 854 q 716 838 700 858 q 745 780 733 818 q 758 710 758 743 q 725 668 758 677 q 547 640 654 644 q 670 516 629 577 q 680 488 680 502 q 623 412 680 454 q 545 380 579 380 q 513 401 530 380 q 433 550 465 468 q 355 401 402 465 q 327 380 338 380 q 297 384 315 380 q 243 413 279 387 q 195 461 208 438 q 185 493 181 483 q 198 516 188 504 l 197 516 q 320 640 241 577 q 144 668 229 643 "},"†":{"x_min":83.34375,"x_max":1055.640625,"ha":1139,"o":"m 715 647 q 983 700 869 700 q 1008 696 998 700 q 1030 677 1018 693 q 1055 554 1055 650 q 1043 418 1055 458 q 1017 370 1030 377 q 983 362 1004 362 q 704 419 865 362 q 684 411 691 422 q 683 379 676 400 q 736 123 733 234 l 736 116 q 662 -202 736 -16 q 573 -238 650 -238 l 563 -238 q 472 -202 486 -238 q 400 109 400 -16 q 454 386 400 236 q 447 413 458 404 q 423 415 437 422 q 155 361 269 361 q 88 438 102 361 q 83 532 83 475 q 89 626 83 590 q 108 677 95 662 q 130 695 120 691 q 155 698 140 698 q 434 641 273 698 q 455 650 448 638 q 455 680 463 662 q 402 945 402 833 q 406 970 402 961 q 425 993 409 980 q 548 1018 452 1018 q 684 1005 644 1018 q 732 979 725 993 q 740 945 740 966 q 687 684 740 836 l 687 680 q 689 650 679 661 q 715 647 700 640 "},"°":{"x_min":70.125,"x_max":518.796875,"ha":589,"o":"m 348 833 q 295 852 330 852 q 243 832 261 852 q 225 783 225 812 q 243 733 225 754 q 294 712 261 712 q 347 734 327 712 q 366 785 366 757 q 348 833 366 813 m 518 797 q 459 644 519 715 q 291 573 398 573 q 127 643 184 573 q 70 793 69 712 q 129 938 70 873 q 292 1004 187 1004 q 457 942 397 1004 q 518 797 518 880 "},"V":{"x_min":41.671875,"x_max":1287.609375,"ha":1338,"o":"m 888 72 q 802 -1 863 25 q 668 -27 740 -27 q 536 -2 595 -27 q 450 69 476 22 q 62 825 241 454 q 41 893 41 869 q 109 968 41 968 l 511 970 q 589 952 562 970 q 637 880 616 934 l 772 536 q 802 513 780 513 q 836 536 825 513 l 1018 930 q 1057 972 1036 968 q 1086 973 1065 973 l 1245 970 q 1283 945 1272 970 q 1287 922 1287 936 q 1256 845 1287 908 q 1093 498 1225 783 q 888 72 962 213 "},"å":{"x_min":55.5625,"x_max":1032.03125,"ha":1115,"o":"m 572 729 q 1029 434 1025 729 q 1032 205 1032 309 q 1030 65 1032 101 q 1011 13 1029 29 q 944 -2 994 -2 l 650 -2 q 588 13 605 -2 q 570 61 572 29 q 570 65 570 62 q 569 72 569 69 q 319 -22 477 -22 q 132 32 209 -22 q 55 184 55 87 q 110 338 55 280 q 240 416 165 395 q 403 437 316 437 q 573 420 490 437 l 573 426 q 546 526 573 495 q 459 556 519 556 q 358 546 398 556 q 297 525 318 536 q 218 491 240 491 q 178 512 195 491 q 161 577 161 533 q 177 637 161 620 q 227 670 193 654 q 572 729 348 729 m 506 161 q 569 184 568 161 q 572 305 572 230 q 527 334 572 334 q 455 313 483 334 q 427 250 427 291 q 450 184 427 208 q 506 161 473 161 m 650 1018 q 611 1032 636 1032 q 572 1016 586 1032 q 559 980 559 1001 q 572 944 559 959 q 610 929 586 929 q 649 945 634 929 q 663 983 663 962 q 650 1018 663 1004 m 802 993 q 750 863 802 923 q 607 802 698 802 q 467 861 516 802 q 418 989 418 920 q 469 1113 419 1058 q 609 1169 519 1169 q 750 1116 698 1169 q 802 993 801 1063 "}," ":{"x_min":0,"x_max":0,"ha":556},"0":{"x_min":55.5625,"x_max":1166.765625,"ha":1222,"o":"m 497 488 q 527 316 497 390 q 609 243 556 243 q 691 316 661 243 q 720 487 720 390 q 691 654 720 584 q 609 723 661 723 q 527 654 556 723 q 497 488 497 586 m 852 14 q 611 -29 744 -29 q 369 14 477 -29 q 193 131 261 58 q 90 296 126 205 q 55 486 55 387 q 90 676 55 584 q 193 841 126 768 q 369 959 261 915 q 611 1004 477 1004 q 852 959 744 1004 q 1028 841 961 915 q 1131 676 1095 768 q 1166 486 1166 584 q 1131 296 1166 387 q 1028 131 1095 205 q 852 14 961 58 "},"”":{"x_min":83.34375,"x_max":890.34375,"ha":1001,"o":"m 93 619 q 165 702 179 663 q 144 741 158 722 q 98 861 98 798 q 152 963 98 923 q 276 1004 205 1004 q 395 964 347 1004 q 444 851 444 925 q 349 632 444 727 q 129 537 254 537 q 99 559 115 537 q 83 597 83 581 q 93 619 83 613 m 538 619 q 611 702 625 663 q 588 741 604 722 q 544 861 544 798 q 597 963 544 923 q 722 1004 651 1004 q 841 964 793 1004 q 890 851 890 925 q 795 632 890 727 q 575 537 700 537 q 545 559 561 537 q 529 597 529 581 q 538 619 529 613 "},"¾":{"x_min":86.125,"x_max":1840.421875,"ha":1924,"o":"m 1257 919 q 1307 963 1288 955 q 1361 972 1325 972 l 1543 972 q 1586 947 1576 972 q 1589 926 1589 940 q 1554 875 1589 912 q 1228 527 1519 838 q 776 48 937 215 q 727 4 745 12 q 672 -4 709 -4 l 490 -4 q 447 22 456 -4 q 444 41 444 27 q 463 76 444 55 q 1257 919 716 337 m 1805 118 q 1787 116 1791 116 q 1783 58 1787 81 q 1721 4 1776 8 q 1600 1 1666 1 q 1468 5 1534 1 q 1431 20 1444 6 q 1415 52 1418 34 q 1411 116 1411 111 l 1240 116 q 1151 162 1151 119 l 1150 198 q 1165 250 1150 230 q 1412 541 1287 412 q 1450 551 1425 551 l 1720 551 q 1770 535 1758 551 q 1786 473 1782 519 q 1790 272 1790 427 l 1790 241 l 1805 241 q 1831 230 1822 241 q 1840 205 1840 219 l 1840 159 q 1805 118 1840 118 m 1345 265 q 1345 252 1336 252 l 1412 252 l 1412 344 q 1345 265 1391 322 m 154 794 q 112 888 112 794 q 123 927 112 913 q 161 954 134 941 q 400 1004 258 1004 q 704 845 704 1004 q 608 732 704 769 q 697 672 668 712 q 727 584 727 632 q 640 445 727 491 q 379 398 552 398 q 130 423 206 398 q 88 466 91 437 q 86 493 86 476 q 88 520 86 511 q 133 579 91 579 q 183 570 136 579 q 258 561 230 561 q 323 619 323 561 q 270 650 323 650 l 195 638 q 159 656 168 638 q 151 708 151 675 q 161 748 151 741 q 197 758 170 755 q 331 815 331 768 q 278 847 331 847 q 169 801 225 847 q 154 794 159 794 "},"@":{"x_min":97.234375,"x_max":2019.609375,"ha":2117,"o":"m 1083 441 q 1068 490 1083 470 q 1027 509 1052 509 q 987 474 1002 509 q 972 381 972 438 q 986 287 972 323 q 1025 251 1001 251 q 1066 270 1048 251 q 1083 333 1083 290 l 1083 441 m 1265 694 l 1425 693 q 1489 675 1461 693 q 1516 625 1516 657 l 1516 250 q 1554 202 1516 202 q 1632 282 1600 202 q 1665 470 1665 362 q 1504 773 1665 663 q 1084 883 1343 883 q 622 747 791 883 q 452 362 452 612 q 618 2 452 119 q 839 -59 705 -59 q 1066 15 973 -59 q 1111 31 1086 31 q 1176 -6 1137 31 q 1215 -75 1215 -44 q 1159 -147 1215 -105 q 993 -223 1104 -190 q 758 -256 883 -256 q 261 -95 426 -256 q 97 354 97 65 q 229 716 97 559 q 584 954 361 873 q 1083 1034 807 1034 q 1747 908 1494 1034 q 1948 729 1877 843 q 2019 461 2019 616 q 1422 37 2019 37 q 1216 79 1302 37 q 1107 206 1130 120 q 1036 108 1088 150 q 832 36 941 36 q 644 115 722 36 q 566 363 566 194 q 657 621 566 533 q 878 709 747 709 q 1069 608 1009 709 q 1148 693 1073 687 q 1265 694 1173 694 "},"ö":{"x_min":55.5625,"x_max":1091.75,"ha":1147,"o":"m 491 347 q 573 191 491 191 q 655 347 655 191 q 638 456 655 418 q 573 494 622 494 q 508 456 525 494 q 491 347 491 418 m 1091 347 q 573 -30 1091 -30 q 55 347 55 -30 q 187 625 55 526 q 573 723 319 723 q 959 625 827 723 q 1091 347 1091 526 m 250 891 q 290 979 250 943 q 396 1016 330 1016 q 494 981 462 1016 q 526 898 526 945 q 487 813 526 851 q 390 775 448 775 q 290 807 331 775 q 250 891 250 838 m 619 891 q 659 979 619 943 q 766 1016 700 1016 q 863 981 832 1016 q 895 898 895 945 q 857 813 895 851 q 759 775 818 775 q 660 807 701 775 q 619 891 619 838 "},"i":{"x_min":83.34375,"x_max":531.984375,"ha":615,"o":"m 172 702 l 443 702 q 506 681 490 702 q 527 589 522 661 q 531 328 531 518 q 523 61 531 138 q 500 19 519 37 q 431 -2 480 1 q 313 -5 381 -5 q 190 -2 245 -5 q 115 19 134 1 q 93 61 95 37 q 83 338 83 151 q 88 593 83 525 q 109 681 94 661 q 172 702 125 702 m 322 1030 q 460 993 413 1030 q 506 893 506 957 q 306 743 506 743 q 169 777 226 743 q 112 882 112 812 q 322 1030 112 1030 "},"≤":{"x_min":111.125,"x_max":863.953125,"ha":975,"o":"m 451 647 l 811 491 q 863 406 863 468 l 863 369 q 836 304 863 329 q 780 280 808 280 q 738 287 752 280 l 145 558 q 111 630 111 575 l 111 663 q 145 737 111 720 l 738 1007 q 780 1013 752 1013 q 836 989 808 1013 q 863 925 863 965 l 863 887 q 811 802 863 826 l 451 647 m 863 108 l 863 102 q 838 18 863 38 q 762 -1 812 -1 l 211 -1 q 138 18 162 -1 q 112 101 113 37 l 112 108 q 138 192 112 172 q 213 212 163 212 l 765 212 q 838 193 813 212 q 863 108 862 173 "},"Õ":{"x_min":55.5625,"x_max":1393.171875,"ha":1449,"o":"m 754 -27 q 450 15 586 -27 q 229 133 313 59 q 100 297 144 206 q 55 487 55 388 q 100 677 55 586 q 229 841 145 768 q 450 959 313 915 q 748 1004 586 1004 q 1036 963 911 1004 q 1237 854 1161 923 q 1393 518 1393 712 q 1350 325 1393 419 q 1229 153 1308 230 q 1027 27 1151 76 q 754 -27 904 -22 m 1029 511 q 982 627 1029 577 q 838 676 934 676 q 684 625 741 676 q 627 500 627 573 q 687 381 627 426 q 831 337 747 337 q 972 391 915 337 q 1029 511 1029 445 m 882 1044 q 737 1093 819 1044 q 620 1143 655 1143 q 563 1125 584 1143 q 525 1065 543 1108 q 502 1050 516 1050 l 429 1054 q 411 1065 415 1058 q 408 1090 408 1072 q 475 1304 408 1227 q 654 1382 541 1382 q 798 1332 716 1382 q 916 1283 880 1283 q 972 1300 951 1283 q 1011 1361 993 1318 q 1033 1376 1019 1376 l 1107 1372 q 1124 1361 1120 1368 q 1127 1336 1127 1354 q 1061 1121 1127 1198 q 882 1044 994 1044 "},"þ":{"x_min":83.34375,"x_max":1086.203125,"ha":1129,"o":"m 90 -151 q 83 444 83 179 q 88 925 83 709 q 106 993 90 970 q 168 1015 122 1015 l 434 1015 q 496 993 480 1015 q 517 900 512 972 q 522 644 522 827 q 526 631 522 636 q 538 633 530 626 q 775 725 636 725 q 1000 636 913 725 q 1086 358 1086 548 q 1057 174 1086 251 q 977 56 1029 97 q 750 -19 882 -19 q 544 66 619 -19 q 529 72 534 76 q 525 59 525 68 q 516 -155 525 -38 q 498 -221 513 -201 q 436 -241 483 -241 l 169 -241 q 107 -219 123 -241 q 90 -151 91 -197 m 609 211 q 691 346 691 211 q 609 481 691 481 q 552 460 577 481 q 526 400 526 438 l 526 293 q 552 232 526 254 q 609 211 577 211 "},"]":{"x_min":83.34375,"x_max":643.109375,"ha":726,"o":"m 637 1084 l 643 476 l 637 -131 q 606 -213 637 -183 q 536 -247 576 -244 l 406 -247 l 387 -245 l 166 -244 q 83 -120 83 -244 q 156 -58 83 -58 l 262 -58 q 325 -9 322 -58 q 331 489 331 277 q 325 962 331 701 q 262 1011 322 1011 l 156 1011 q 83 1073 83 1011 q 166 1197 83 1197 l 387 1198 l 406 1200 l 536 1200 q 606 1166 576 1197 q 637 1084 637 1136 "},"m":{"x_min":83.34375,"x_max":1705.6875,"ha":1775,"o":"m 1272 59 l 1273 398 q 1252 461 1273 440 q 1200 481 1232 481 q 1143 460 1169 481 q 1118 400 1118 438 l 1119 198 q 1118 66 1119 102 q 1099 14 1116 30 q 1032 -1 1082 -1 l 765 -4 q 703 11 720 -4 q 686 59 686 27 l 687 398 q 666 461 687 440 q 614 481 645 481 q 557 460 583 481 q 531 400 531 438 l 531 315 q 523 65 531 131 q 500 23 519 41 q 431 2 480 5 q 333 -1 381 -1 q 168 4 284 -1 q 115 23 134 5 q 93 65 95 41 q 83 341 83 155 q 88 596 83 527 q 109 686 94 665 q 172 707 125 707 l 443 707 q 506 686 490 707 q 526 615 522 665 l 526 613 q 798 725 633 725 q 975 686 900 725 q 1086 572 1050 647 q 1211 686 1132 647 q 1384 725 1291 725 q 1614 650 1526 725 q 1703 443 1701 575 q 1705 206 1705 311 q 1704 66 1705 102 q 1685 14 1702 30 q 1618 -1 1668 -1 l 1351 -4 q 1289 11 1307 -4 q 1272 59 1272 27 "},"8":{"x_min":55.5625,"x_max":1068.140625,"ha":1124,"o":"m 55 291 q 229 544 55 468 q 108 717 108 622 q 177 877 108 812 q 568 1002 306 1002 q 940 894 815 1002 q 1004 763 1004 838 q 887 572 1004 643 q 1068 300 1068 479 q 988 121 1068 198 q 788 7 908 44 q 537 -29 668 -29 q 301 4 406 -29 q 125 111 195 37 q 55 291 55 186 m 640 284 q 520 404 640 344 q 476 313 476 363 q 505 241 476 262 q 568 220 534 220 q 621 240 602 220 q 640 284 640 259 m 481 769 q 584 676 481 713 q 623 761 623 711 q 605 809 623 790 q 554 829 587 829 q 502 811 522 829 q 481 769 481 793 "},"R":{"x_min":77.78125,"x_max":1216.765625,"ha":1271,"o":"m 655 682 l 658 425 q 687 398 658 398 q 822 446 773 398 q 872 559 872 494 q 825 672 872 625 q 688 719 779 719 q 655 682 655 719 m 1019 266 q 1207 56 1045 238 q 1216 34 1216 44 q 1184 -1 1216 -1 q 1036 -2 1111 -2 q 888 -1 962 -2 q 815 30 848 -1 l 695 211 q 679 222 688 219 q 657 204 657 230 l 657 62 q 578 -1 657 2 q 406 -5 500 -5 q 181 1 313 -5 q 117 29 141 4 q 88 86 93 54 q 77 470 77 208 q 86 851 77 732 q 206 972 94 970 q 494 973 312 973 q 795 970 676 973 q 1077 843 968 968 q 1187 561 1187 718 q 1145 391 1187 469 q 1019 266 1102 313 "},"á":{"x_min":69.453125,"x_max":1045.921875,"ha":1129,"o":"m 530 832 l 602 968 q 668 1004 626 1004 l 834 1004 q 875 991 865 1004 q 848 932 891 968 l 698 807 q 651 791 679 791 l 555 791 q 525 802 533 791 q 530 832 518 813 m 586 729 q 1043 434 1038 729 q 1045 205 1045 309 q 1044 65 1045 101 q 1025 13 1043 29 q 958 -2 1008 -2 l 663 -2 q 602 13 619 -2 q 584 61 586 29 q 584 65 584 62 q 583 72 583 69 q 333 -22 491 -22 q 146 32 223 -22 q 69 184 69 87 q 124 338 69 280 q 254 416 179 395 q 417 437 330 437 q 587 420 504 437 l 587 426 q 560 526 587 495 q 472 556 533 556 q 372 546 412 556 q 311 525 331 536 q 231 491 254 491 q 192 512 209 491 q 175 577 175 533 q 190 637 175 620 q 241 670 206 654 q 586 729 362 729 m 520 161 q 583 184 581 161 q 586 305 586 230 q 541 334 586 334 q 469 313 497 334 q 441 250 441 291 q 464 184 441 208 q 520 161 487 161 "},"×":{"x_min":158.34375,"x_max":884.796875,"ha":1043,"o":"m 195 794 l 216 816 q 290 854 254 854 q 362 818 326 854 l 520 659 l 682 820 q 749 854 715 854 q 825 816 783 854 l 847 795 q 884 722 884 758 q 848 650 884 686 l 690 490 l 851 330 q 884 262 884 297 q 847 186 884 227 l 826 165 q 752 127 788 127 q 680 163 716 127 l 520 322 l 361 161 q 293 127 327 127 q 216 165 258 127 l 195 186 q 158 259 158 223 q 194 331 158 295 l 352 490 l 191 651 q 158 718 158 684 q 195 794 158 752 "},"o":{"x_min":55.5625,"x_max":1091.75,"ha":1147,"o":"m 491 347 q 573 191 491 191 q 655 347 655 191 q 638 456 655 418 q 573 494 622 494 q 508 456 525 494 q 491 347 491 418 m 1091 347 q 573 -30 1091 -30 q 55 347 55 -30 q 187 625 55 526 q 573 723 319 723 q 959 625 827 723 q 1091 347 1091 526 "},"5":{"x_min":84.734375,"x_max":983.40625,"ha":1067,"o":"m 912 869 q 848 741 912 741 l 547 745 q 508 725 512 745 q 500 675 500 691 q 527 641 500 641 q 580 643 545 643 q 879 550 775 643 q 983 322 983 458 q 868 78 983 186 q 556 -29 752 -29 q 150 13 263 -29 q 87 83 95 33 q 84 128 84 100 q 93 206 84 156 q 140 279 98 279 q 213 267 159 279 q 297 255 266 255 q 437 362 437 255 q 405 429 437 401 q 315 456 373 456 q 213 448 313 456 q 152 466 170 448 q 134 541 134 483 q 162 890 134 600 q 188 954 166 933 q 259 975 211 975 l 629 977 q 812 975 755 977 q 887 959 869 973 q 912 869 912 940 "},"õ":{"x_min":55.5625,"x_max":1091.75,"ha":1147,"o":"m 672 769 q 564 810 625 769 q 477 851 504 851 q 434 838 450 851 q 404 793 419 825 q 377 780 391 780 l 288 780 q 270 812 270 780 q 331 970 270 913 q 491 1027 391 1027 q 599 986 538 1027 q 686 945 659 945 q 729 959 713 945 q 759 1004 744 972 q 786 1016 772 1016 l 875 1016 q 893 984 893 1016 q 832 826 893 883 q 672 769 772 769 m 491 347 q 573 191 491 191 q 655 347 655 191 q 638 456 655 418 q 573 494 622 494 q 508 456 525 494 q 491 347 491 418 m 1091 347 q 573 -30 1091 -30 q 55 347 55 -30 q 187 625 55 526 q 573 723 319 723 q 959 625 827 723 q 1091 347 1091 526 "},"7":{"x_min":83.34375,"x_max":1025.078125,"ha":1095,"o":"m 433 977 l 923 975 q 994 962 975 975 q 1025 844 1025 943 q 1007 759 1025 794 q 920 581 990 723 q 822 386 850 440 q 638 48 736 212 q 602 5 619 16 q 545 -5 584 -5 q 151 2 252 -5 q 83 55 83 8 q 105 122 83 81 q 316 485 226 337 q 426 669 405 633 q 447 716 447 705 q 415 745 447 745 q 147 740 415 745 q 104 766 118 740 q 90 828 90 791 q 94 904 90 865 q 116 958 98 944 q 215 975 134 972 q 433 977 297 977 "},"K":{"x_min":77.78125,"x_max":1419.5625,"ha":1453,"o":"m 911 23 l 748 218 q 697 248 723 248 q 665 195 665 248 l 665 63 q 643 23 665 38 q 590 5 620 8 q 392 0 502 0 q 183 5 281 0 q 116 34 141 8 q 88 91 91 59 q 77 471 77 213 q 84 820 77 729 q 109 942 90 912 q 186 972 127 972 l 558 972 q 634 936 604 972 q 665 847 665 900 l 666 691 q 682 662 666 662 q 720 686 691 662 l 993 940 q 1073 972 1026 972 q 1172 973 1119 973 l 1279 972 q 1309 951 1301 972 q 1301 913 1318 930 q 982 618 1141 754 q 968 592 968 605 q 983 563 968 579 l 1058 488 q 1152 395 1115 431 q 1238 308 1188 359 q 1391 141 1339 205 q 1419 73 1419 108 q 1415 47 1419 61 q 1348 0 1400 0 l 975 0 q 911 23 932 0 "},",":{"x_min":68.0625,"x_max":429.203125,"ha":513,"o":"m 165 1 q 83 143 83 33 q 136 252 83 212 q 261 293 190 293 q 380 253 331 293 q 429 140 429 213 q 334 -78 429 16 q 113 -173 238 -173 q 84 -151 100 -173 q 68 -113 68 -129 q 77 -91 68 -97 q 165 1 150 -54 "},"d":{"x_min":55.5625,"x_max":1077.859375,"ha":1147,"o":"m 538 494 q 456 359 456 494 q 538 223 456 223 q 596 245 570 223 q 622 305 622 266 l 622 412 q 596 472 622 451 q 538 494 570 494 m 997 2 l 850 0 q 741 2 769 0 q 655 100 655 8 q 522 5 604 41 q 373 -30 441 -30 q 145 61 234 -30 q 55 344 55 152 q 218 677 55 583 q 419 729 304 729 q 615 677 534 729 q 644 689 641 659 q 647 777 647 719 l 647 893 q 648 949 647 920 q 665 996 650 977 q 727 1015 680 1015 l 994 1015 q 1056 993 1040 1015 q 1073 925 1072 970 q 1077 522 1077 727 q 1075 68 1077 522 q 1049 21 1075 40 q 997 2 1023 2 "},"¨":{"x_min":90.28125,"x_max":736.171875,"ha":828,"o":"m 90 889 q 130 978 90 941 q 236 1015 170 1015 q 334 979 302 1015 q 366 897 366 944 q 327 811 366 850 q 230 773 288 773 q 131 805 172 773 q 90 889 90 837 m 459 889 q 500 978 459 941 q 606 1015 540 1015 q 704 979 672 1015 q 736 897 736 944 q 697 811 736 850 q 600 773 658 773 q 500 805 541 773 q 459 889 459 837 "},"Ô":{"x_min":55.5625,"x_max":1393.171875,"ha":1449,"o":"m 754 -27 q 450 15 586 -27 q 229 133 313 59 q 100 297 144 206 q 55 487 55 388 q 100 677 55 586 q 229 841 145 768 q 450 959 313 915 q 748 1004 586 1004 q 1036 963 911 1004 q 1237 854 1161 923 q 1393 518 1393 712 q 1350 325 1393 419 q 1229 153 1308 230 q 1027 27 1151 76 q 754 -27 904 -22 m 1029 511 q 982 627 1029 577 q 838 676 934 676 q 684 625 741 676 q 627 500 627 573 q 687 381 627 426 q 831 337 747 337 q 972 391 915 337 q 1029 511 1029 445 m 695 1308 l 787 1308 q 863 1266 815 1308 l 1026 1125 q 1033 1102 1033 1113 q 1017 1042 1033 1061 q 989 1023 1001 1023 q 969 1027 977 1023 l 741 1130 l 513 1027 q 493 1023 505 1023 q 466 1041 481 1023 q 450 1075 451 1059 q 450 1102 450 1090 q 456 1125 450 1113 l 619 1266 q 695 1308 668 1308 "},"E":{"x_min":77.78125,"x_max":1122.3125,"ha":1172,"o":"m 186 0 q 120 25 147 0 q 85 110 93 51 q 77 464 77 169 q 87 850 77 759 q 186 969 98 966 q 1015 972 286 972 q 1097 868 1097 972 q 1025 786 1097 786 l 719 786 q 672 766 690 786 q 655 716 655 747 l 655 616 q 693 575 655 575 l 945 575 q 979 570 968 575 q 1001 546 991 566 q 1011 480 1011 526 q 995 419 1011 434 q 943 404 979 404 l 716 404 q 668 386 682 404 q 655 333 655 369 l 655 265 q 712 205 655 205 l 1058 205 q 1102 190 1083 205 q 1122 127 1122 176 q 1098 38 1122 77 q 1043 0 1075 0 l 186 0 "},"Y":{"x_min":41.671875,"x_max":1259.828125,"ha":1327,"o":"m 1232 972 q 1259 944 1259 972 q 1244 905 1259 926 l 933 412 q 926 84 933 300 q 900 28 925 54 q 833 0 875 2 q 643 -5 754 -5 q 438 0 531 -5 q 372 28 397 2 q 345 84 347 54 q 343 376 343 225 l 62 847 q 41 900 41 879 q 109 969 41 969 l 584 972 q 645 959 625 972 q 693 908 665 947 l 777 726 q 814 695 800 695 q 850 720 829 695 l 991 943 q 1051 972 1015 972 l 1232 972 "},"\"":{"x_min":111.125,"x_max":723.671875,"ha":835,"o":"m 115 987 q 150 1011 120 998 q 232 1023 180 1023 q 313 1017 284 1023 q 355 1000 343 1011 q 373 954 373 980 q 318 650 373 823 q 247 615 306 615 l 236 615 q 168 650 177 615 q 111 957 111 827 q 115 987 111 976 m 466 987 q 500 1011 470 998 q 582 1023 530 1023 q 663 1017 634 1023 q 705 1000 693 1011 q 723 954 723 980 q 668 650 723 823 q 597 615 657 615 l 586 615 q 518 650 527 615 q 461 957 461 827 q 466 987 461 976 "},"‹":{"x_min":83.34375,"x_max":543.09375,"ha":626,"o":"m 83 279 l 83 343 q 112 404 83 379 l 395 647 q 428 663 415 663 q 451 659 441 663 q 543 562 543 609 q 530 530 543 545 l 351 311 l 530 91 q 543 54 543 76 q 511 2 543 31 q 459 -34 480 -26 q 426 -41 438 -41 q 404 -31 413 -41 l 112 218 q 83 279 83 243 "},"˙":{"x_min":261.125,"x_max":537.546875,"ha":828,"o":"m 261 1148 q 301 1236 261 1200 q 407 1273 341 1273 q 505 1238 473 1273 q 537 1155 537 1202 q 498 1070 537 1108 q 401 1032 459 1032 q 302 1063 343 1032 q 261 1148 261 1095 "},"ê":{"x_min":55.5625,"x_max":975.078125,"ha":1031,"o":"m 275 664 q 406 709 338 695 q 572 723 473 723 q 762 699 672 723 q 897 633 852 675 q 975 454 975 556 q 702 293 975 293 q 504 311 607 293 q 538 181 508 219 q 644 144 568 144 q 770 161 720 144 q 851 195 820 177 q 903 212 882 212 q 940 193 925 212 q 963 124 963 168 q 946 64 963 80 q 891 33 929 48 q 516 -22 759 -22 q 185 74 315 -22 q 55 334 55 170 q 84 479 55 413 q 162 589 113 545 q 275 664 211 633 m 597 565 q 505 427 512 565 q 575 422 572 422 q 666 483 666 422 q 597 565 666 565 m 533 1037 l 625 1037 q 701 995 652 1037 l 863 854 q 870 830 870 843 q 854 771 870 790 q 827 752 838 752 q 807 757 815 752 l 579 859 l 351 757 q 331 752 343 752 q 304 770 319 752 q 288 804 288 788 q 287 831 287 819 q 294 854 287 843 l 456 995 q 533 1037 505 1037 "},"Ï":{"x_min":55.5625,"x_max":701.4375,"ha":756,"o":"m 191 972 l 563 972 q 641 943 622 972 q 666 822 659 913 q 672 470 672 732 q 661 86 672 208 q 632 29 657 54 q 568 1 608 4 q 384 -4 488 -4 q 187 1 280 -4 q 122 29 147 4 q 94 86 98 54 q 83 470 83 208 q 89 822 83 732 q 114 943 95 913 q 191 972 133 972 m 55 1148 q 95 1236 55 1200 q 202 1273 136 1273 q 300 1238 268 1273 q 331 1155 331 1202 q 293 1070 331 1108 q 195 1032 254 1032 q 96 1063 137 1032 q 55 1148 55 1095 m 425 1148 q 465 1236 425 1200 q 571 1273 505 1273 q 669 1238 637 1273 q 701 1155 701 1202 q 662 1070 701 1108 q 565 1032 623 1032 q 466 1063 506 1032 q 425 1148 425 1095 "},"„":{"x_min":83.34375,"x_max":890.34375,"ha":1001,"o":"m 93 -91 q 165 -8 179 -47 q 144 30 158 11 q 98 150 98 87 q 152 252 98 212 q 276 293 205 293 q 395 253 347 293 q 444 140 444 213 q 349 -78 444 16 q 129 -173 254 -173 q 99 -151 115 -173 q 83 -113 83 -129 q 93 -91 83 -97 m 538 -91 q 611 -8 625 -47 q 588 30 604 11 q 544 150 544 87 q 597 252 544 212 q 722 293 651 293 q 841 253 793 293 q 890 140 890 213 q 795 -78 890 16 q 575 -173 700 -173 q 545 -151 561 -173 q 529 -113 529 -129 q 538 -91 529 -97 "},"Â":{"x_min":48.609375,"x_max":1457.0625,"ha":1506,"o":"m 975 907 l 1429 138 q 1457 61 1457 93 q 1432 15 1457 30 q 1373 0 1407 0 l 926 0 q 838 25 858 0 q 823 54 833 33 l 783 140 q 698 186 765 180 l 436 186 q 391 180 406 186 q 366 155 376 175 l 312 43 q 281 9 298 18 q 233 0 265 0 l 108 0 q 50 38 54 0 q 48 50 48 44 q 69 111 48 81 l 504 877 q 707 986 566 986 l 818 986 q 975 907 929 986 m 525 551 l 461 425 q 455 402 455 412 q 490 366 455 366 l 616 366 q 657 381 645 366 q 668 406 668 395 q 663 429 668 418 l 611 548 q 568 584 594 584 q 525 551 541 584 m 707 1308 l 798 1308 q 875 1266 826 1308 l 1037 1125 q 1044 1102 1044 1113 q 1028 1042 1044 1061 q 1000 1023 1012 1023 q 980 1027 988 1023 l 752 1130 l 525 1027 q 504 1023 516 1023 q 477 1041 493 1023 q 461 1075 462 1059 q 461 1102 461 1090 q 468 1125 461 1113 l 630 1266 q 707 1308 679 1308 "},"Í":{"x_min":83.34375,"x_max":672.28125,"ha":756,"o":"m 191 972 l 563 972 q 641 943 622 972 q 666 822 659 913 q 672 470 672 732 q 661 86 672 208 q 632 29 657 54 q 568 1 608 4 q 384 -4 488 -4 q 187 1 280 -4 q 122 29 147 4 q 94 86 98 54 q 83 470 83 208 q 89 822 83 732 q 114 943 95 913 q 191 972 133 972 m 561 1052 l 184 1052 q 150 1090 150 1052 q 170 1135 150 1127 q 247 1165 190 1143 q 343 1201 305 1187 q 522 1257 491 1257 q 570 1226 554 1257 q 626 1093 626 1113 q 561 1052 626 1052 "},"´":{"x_min":118.0625,"x_max":475.03125,"ha":593,"o":"m 151 791 q 118 812 118 791 q 126 832 118 820 l 198 968 q 263 1004 222 1004 l 430 1004 q 475 977 475 1004 q 444 932 475 957 l 294 807 q 247 791 275 791 l 151 791 "},"ì":{"x_min":83.34375,"x_max":531.984375,"ha":615,"o":"m 369 968 l 441 832 q 446 802 454 813 q 416 791 438 791 l 320 791 q 270 809 293 791 q 222 848 247 827 q 168 893 197 869 q 123 932 140 918 q 97 962 106 945 q 97 991 88 979 q 137 1004 106 1004 l 304 1004 q 369 968 345 1004 m 172 702 l 443 702 q 506 681 490 702 q 527 589 522 661 q 531 328 531 518 q 523 61 531 138 q 500 19 519 37 q 431 -2 480 1 q 313 -5 381 -5 q 190 -2 245 -5 q 115 19 134 1 q 93 61 95 37 q 83 338 83 151 q 88 593 83 525 q 109 681 94 661 q 172 702 125 702 "},"±":{"x_min":76.390625,"x_max":966.75,"ha":1157,"o":"m 76 623 l 76 637 q 102 721 76 701 q 177 741 127 741 l 402 741 l 402 915 q 422 988 402 963 q 505 1013 441 1012 l 536 1013 q 620 988 600 1013 q 640 912 640 962 l 640 741 l 868 741 q 941 722 916 741 q 966 637 965 702 l 966 625 q 936 538 966 558 q 865 523 912 523 l 640 523 l 640 336 q 620 263 640 287 q 536 237 601 238 l 506 237 q 422 263 443 237 q 402 338 402 288 l 402 523 l 175 523 q 84 568 100 523 q 76 623 77 588 m 966 97 l 966 68 q 941 -15 966 4 q 865 -36 915 -36 l 175 -36 q 102 -16 126 -36 q 76 66 77 2 l 76 97 q 102 181 76 161 q 177 201 127 201 l 868 201 q 941 181 916 201 q 966 97 965 162 "},"Ú":{"x_min":52.78125,"x_max":1173.703125,"ha":1229,"o":"m 622 826 l 619 700 l 619 431 q 655 341 619 373 q 740 309 691 309 q 824 341 788 309 q 859 431 859 373 l 859 845 q 877 941 859 911 q 952 972 894 972 l 1080 972 q 1141 945 1125 972 q 1173 580 1173 898 q 1170 420 1173 476 q 1118 220 1166 308 q 995 79 1070 131 q 652 -27 844 -27 q 234 90 400 -27 q 103 249 151 150 q 54 480 55 348 q 52 672 52 545 q 56 856 52 800 q 78 942 59 912 q 154 972 97 972 l 525 972 q 598 943 580 972 q 622 826 622 905 m 943 1052 l 566 1052 q 531 1090 531 1052 q 552 1135 531 1127 q 629 1165 572 1143 q 725 1201 687 1187 q 904 1257 873 1257 q 952 1226 936 1257 q 1008 1093 1008 1113 q 943 1052 1008 1052 "},"|":{"x_min":83.34375,"x_max":405.59375,"ha":489,"o":"m 91 -172 q 83 476 83 -58 q 91 1125 83 1011 q 111 1182 94 1163 q 169 1200 127 1200 l 319 1200 q 377 1182 361 1200 q 397 1125 394 1163 q 405 476 405 1011 q 397 -172 405 -58 q 377 -229 394 -211 q 319 -247 361 -247 l 169 -247 q 111 -229 127 -247 q 91 -172 94 -211 "},"§":{"x_min":111.125,"x_max":1032.03125,"ha":1143,"o":"m 479 483 q 436 427 436 472 q 457 378 436 395 q 491 352 479 361 q 527 332 504 343 q 561 318 550 322 q 597 304 573 313 q 626 294 622 295 q 669 350 669 305 q 647 399 669 381 q 613 425 626 416 q 578 445 601 434 q 543 459 555 455 q 507 472 531 463 q 479 483 483 481 m 497 38 q 457 102 497 72 q 361 161 418 133 q 247 221 304 188 q 150 306 190 254 q 111 426 111 359 q 208 612 111 538 q 154 743 154 669 q 586 1004 154 1004 q 933 940 784 1004 q 1009 862 1009 907 q 982 783 1009 818 q 923 748 954 748 q 852 766 913 748 q 743 784 791 784 q 645 726 645 784 q 685 662 645 693 q 782 604 725 632 q 895 543 838 576 q 992 458 952 511 q 1032 338 1032 405 q 934 152 1032 226 q 988 22 988 95 q 556 -238 988 -238 q 211 -175 358 -238 q 133 -97 133 -141 q 161 -18 133 -52 q 219 16 188 16 q 290 -1 229 16 q 400 -19 351 -19 q 497 38 497 -19 "},"Ý":{"x_min":41.671875,"x_max":1259.828125,"ha":1327,"o":"m 1232 972 q 1259 944 1259 972 q 1244 905 1259 926 l 933 412 q 926 84 933 300 q 900 28 925 54 q 833 0 875 2 q 643 -5 754 -5 q 438 0 531 -5 q 372 28 397 2 q 345 84 347 54 q 343 376 343 225 l 62 847 q 41 900 41 879 q 109 969 41 969 l 584 972 q 645 959 625 972 q 693 908 665 947 l 777 726 q 814 695 800 695 q 850 720 829 695 l 991 943 q 1051 972 1015 972 l 1232 972 m 987 1051 l 611 1051 q 576 1088 576 1051 q 596 1134 576 1126 q 674 1163 616 1141 q 769 1200 732 1186 q 949 1255 918 1255 q 997 1225 980 1255 q 1052 1091 1052 1112 q 987 1051 1052 1051 "},"b":{"x_min":83.34375,"x_max":1084.8125,"ha":1128,"o":"m 608 211 q 690 346 690 211 q 608 481 690 481 q 550 460 576 481 q 525 400 525 438 l 525 293 q 550 232 525 254 q 608 211 576 211 m 86 65 l 83 519 q 87 925 83 727 q 104 993 88 970 q 166 1015 120 1015 l 433 1015 q 495 993 479 1015 q 516 900 511 972 q 520 644 520 827 q 525 631 520 636 q 537 633 529 626 q 772 725 634 725 q 998 636 911 725 q 1084 350 1084 548 q 997 67 1084 152 q 768 -18 909 -18 q 504 77 559 -18 q 477 22 502 41 q 422 0 452 2 q 311 -2 391 -2 l 163 0 q 111 18 137 0 q 86 65 86 37 "},"q":{"x_min":55.5625,"x_max":1063.96875,"ha":1147,"o":"m 538 494 q 456 359 456 494 q 538 223 456 223 q 596 245 570 223 q 622 305 622 266 l 622 412 q 596 472 622 451 q 538 494 570 494 m 1061 640 l 1063 186 q 1059 -150 1063 47 q 1042 -218 1058 -195 q 980 -240 1026 -240 l 713 -240 q 651 -222 666 -240 q 626 61 626 -190 q 622 74 626 69 q 609 72 618 79 q 367 -30 500 -30 q 145 58 234 -30 q 55 338 55 147 q 87 522 55 444 q 175 643 119 601 q 425 723 280 723 q 643 627 569 723 q 669 683 644 663 q 725 705 694 702 q 836 708 755 708 l 983 705 q 1035 686 1009 705 q 1061 640 1061 668 "},"Ω":{"x_min":83.34375,"x_max":1397.328125,"ha":1481,"o":"m 875 526 q 842 679 875 616 q 739 741 809 741 q 637 679 669 741 q 605 526 605 616 q 622 354 605 436 q 656 243 640 272 q 684 198 672 215 q 709 140 709 165 q 705 93 709 134 q 694 36 701 52 q 675 11 687 19 q 602 -2 657 0 q 397 -4 548 -4 q 182 -1 247 -4 q 100 39 118 1 q 83 132 83 77 q 85 203 83 187 q 98 233 87 219 q 125 247 109 247 q 159 244 141 247 q 231 220 176 241 q 297 200 286 200 q 308 211 308 200 q 297 231 308 222 q 170 388 212 291 q 127 572 127 484 q 163 736 127 659 q 256 861 198 812 q 395 942 315 909 q 561 988 476 975 q 740 1001 645 1001 q 919 988 834 1001 q 1084 942 1004 975 q 1223 861 1165 909 q 1317 736 1282 812 q 1352 572 1352 659 q 1310 388 1352 484 q 1183 231 1268 291 q 1172 211 1172 222 q 1183 200 1172 200 q 1250 220 1194 200 q 1345 247 1319 247 q 1382 233 1370 247 q 1395 203 1393 219 q 1397 132 1397 187 q 1379 39 1397 77 q 1298 -1 1362 1 q 1082 -4 1233 -4 q 884 -2 932 -4 q 826 2 836 0 q 805 11 816 4 q 776 80 782 26 q 770 145 770 134 q 777 169 770 156 q 795 198 783 181 q 824 243 808 215 q 857 354 840 272 q 875 526 875 436 "},"Ö":{"x_min":55.5625,"x_max":1393.171875,"ha":1449,"o":"m 754 -27 q 450 15 586 -27 q 229 133 313 59 q 100 297 144 206 q 55 487 55 388 q 100 677 55 586 q 229 841 145 768 q 450 959 313 915 q 748 1004 586 1004 q 1036 963 911 1004 q 1237 854 1161 923 q 1393 518 1393 712 q 1350 325 1393 419 q 1229 153 1308 230 q 1027 27 1151 76 q 754 -27 904 -22 m 1029 511 q 982 627 1029 577 q 838 676 934 676 q 684 625 741 676 q 627 500 627 573 q 687 381 627 426 q 831 337 747 337 q 972 391 915 337 q 1029 511 1029 445 m 419 1148 q 459 1236 419 1200 q 566 1273 500 1273 q 663 1238 632 1273 q 695 1155 695 1202 q 657 1070 695 1108 q 559 1032 618 1032 q 460 1063 501 1032 q 419 1148 419 1095 m 788 1148 q 829 1236 788 1200 q 935 1273 869 1273 q 1033 1238 1001 1273 q 1065 1155 1065 1202 q 1026 1070 1065 1108 q 929 1032 987 1032 q 829 1063 870 1032 q 788 1148 788 1095 "},"z":{"x_min":55.5625,"x_max":901.46875,"ha":943,"o":"m 438 -5 l 120 -1 q 76 11 97 -1 q 55 44 55 23 l 55 126 q 77 184 55 161 q 155 266 98 206 q 345 477 280 397 q 354 505 358 493 q 336 518 351 518 l 130 518 q 97 532 109 518 q 86 565 86 547 l 86 652 q 130 707 86 707 q 811 705 643 707 q 855 693 834 705 q 876 659 876 680 l 876 577 q 846 511 876 545 q 729 385 816 476 q 586 226 643 294 q 577 198 573 211 q 595 186 580 186 l 857 186 q 889 171 877 186 q 901 138 901 156 l 901 51 q 857 -2 901 -2 l 438 -5 "},"™":{"x_min":83.34375,"x_max":1536.234375,"ha":1620,"o":"m 1134 855 q 1157 838 1147 838 q 1186 871 1166 838 q 1216 917 1207 904 q 1237 944 1226 930 q 1279 975 1259 975 l 1465 975 q 1516 958 1501 975 q 1533 891 1530 941 q 1536 722 1536 840 q 1530 534 1536 605 q 1514 504 1529 518 q 1476 491 1500 491 l 1327 491 q 1237 493 1275 491 q 1208 522 1209 495 l 1204 636 q 1198 654 1204 652 q 1184 645 1191 657 q 1077 501 1148 591 q 1040 481 1062 481 q 1005 501 1018 481 q 923 647 976 543 q 909 654 915 662 q 904 636 904 647 l 900 522 q 863 493 900 495 q 824 491 845 491 q 776 493 802 491 q 732 534 737 494 q 726 724 726 605 q 729 909 726 843 q 782 975 733 975 l 1018 975 q 1057 952 1036 975 q 1134 855 1077 930 m 550 534 q 536 506 548 519 q 504 493 525 494 q 386 490 431 490 q 259 493 340 490 q 220 506 234 494 q 205 533 205 519 q 202 711 202 663 q 203 786 202 758 q 183 815 204 815 l 119 815 q 84 848 86 815 q 83 897 83 872 q 84 948 83 922 q 125 975 87 975 q 380 976 162 976 q 631 975 598 976 q 668 948 665 975 q 669 907 669 932 q 668 851 669 883 q 637 819 668 819 l 575 819 q 550 797 550 819 q 551 659 551 743 q 550 534 551 575 "},"ã":{"x_min":69.453125,"x_max":1045.921875,"ha":1129,"o":"m 716 769 q 609 810 669 769 q 521 851 548 851 q 479 838 494 851 q 448 793 463 825 q 422 780 436 780 l 333 780 q 315 812 315 780 q 375 970 315 913 q 536 1027 436 1027 q 643 986 583 1027 q 731 945 704 945 q 773 959 758 945 q 804 1004 788 972 q 830 1016 816 1016 l 919 1016 q 937 984 937 1016 q 877 826 937 883 q 716 769 816 769 m 586 729 q 1043 434 1038 729 q 1045 205 1045 309 q 1044 65 1045 101 q 1025 13 1043 29 q 958 -2 1008 -2 l 663 -2 q 602 13 619 -2 q 584 61 586 29 q 584 65 584 62 q 583 72 583 69 q 333 -22 491 -22 q 146 32 223 -22 q 69 184 69 87 q 124 338 69 280 q 254 416 179 395 q 417 437 330 437 q 587 420 504 437 l 587 426 q 560 526 587 495 q 472 556 533 556 q 372 546 412 556 q 311 525 331 536 q 231 491 254 491 q 192 512 209 491 q 175 577 175 533 q 190 637 175 620 q 241 670 206 654 q 586 729 362 729 m 520 161 q 583 184 581 161 q 586 305 586 230 q 541 334 586 334 q 469 313 497 334 q 441 250 441 291 q 464 184 441 208 q 520 161 487 161 "},"æ":{"x_min":55.5625,"x_max":1491.78125,"ha":1547,"o":"m 595 204 q 572 305 572 258 q 527 334 572 334 q 455 313 483 334 q 427 250 427 291 q 450 185 427 209 q 509 161 473 161 q 595 204 575 161 m 636 134 q 319 -22 504 -22 q 132 32 209 -22 q 55 184 55 87 q 110 338 55 280 q 240 416 165 395 q 403 437 316 437 q 573 420 490 437 l 573 426 q 546 526 573 495 q 459 556 519 556 q 358 546 398 556 q 297 525 318 536 q 218 491 240 491 q 178 512 195 491 q 161 577 161 533 q 177 637 161 620 q 227 670 193 654 q 545 729 348 729 q 847 687 741 729 q 1070 723 951 723 q 1279 699 1188 723 q 1414 633 1369 675 q 1491 454 1491 556 q 1219 293 1491 293 q 1020 311 1123 293 q 1054 181 1025 219 q 1161 144 1084 144 q 1287 161 1237 144 q 1368 195 1337 177 q 1420 212 1398 212 q 1457 193 1441 212 q 1480 124 1480 168 q 1463 64 1480 80 q 1408 33 1445 48 q 1025 -22 1276 -22 q 797 19 900 -22 q 636 134 694 61 m 1113 565 q 1022 427 1029 565 q 1091 422 1088 422 q 1183 483 1183 422 q 1113 565 1183 565 "},"®":{"x_min":55.5625,"x_max":1123.703125,"ha":1157,"o":"m 993 147 q 832 20 932 69 q 606 -27 733 -27 q 370 15 479 -27 q 193 133 261 59 q 90 297 126 206 q 55 487 55 388 q 91 677 55 586 q 195 841 127 768 q 370 959 262 915 q 629 1004 479 1004 q 898 933 780 1004 q 1070 754 1016 862 q 1123 533 1123 647 q 1089 322 1123 419 q 993 147 1055 226 m 613 111 q 814 172 727 111 q 943 326 901 234 q 984 518 984 418 q 888 763 984 662 q 604 865 791 865 q 305 752 416 865 q 194 486 194 640 q 304 222 194 333 q 613 111 415 111 m 559 270 l 480 268 q 372 269 402 268 q 316 313 319 273 q 311 505 311 366 q 315 690 311 644 q 375 754 319 752 l 511 754 q 682 752 622 754 q 822 689 768 751 q 876 550 876 627 q 793 402 876 450 q 873 313 832 363 q 879 297 879 308 q 852 270 879 272 q 783 269 834 269 q 710 270 732 269 q 677 286 688 270 l 618 375 q 605 381 612 381 q 598 372 598 381 l 598 301 q 559 270 598 270 m 591 595 l 593 495 q 607 481 593 481 q 673 500 650 481 q 697 548 697 518 q 608 613 697 613 q 591 595 591 613 "},"É":{"x_min":77.78125,"x_max":1122.3125,"ha":1172,"o":"m 186 0 q 120 25 147 0 q 85 110 93 51 q 77 464 77 169 q 87 850 77 759 q 186 969 98 966 q 1015 972 286 972 q 1097 868 1097 972 q 1025 786 1097 786 l 719 786 q 672 766 690 786 q 655 716 655 747 l 655 616 q 693 575 655 575 l 945 575 q 979 570 968 575 q 1001 546 991 566 q 1011 480 1011 526 q 995 419 1011 434 q 943 404 979 404 l 716 404 q 668 386 682 404 q 655 333 655 369 l 655 265 q 712 205 655 205 l 1058 205 q 1102 190 1083 205 q 1122 127 1122 176 q 1098 38 1122 77 q 1043 0 1075 0 l 186 0 m 827 1052 l 451 1052 q 416 1090 416 1052 q 436 1135 416 1127 q 514 1165 456 1143 q 609 1201 572 1187 q 789 1257 758 1257 q 837 1226 820 1257 q 893 1093 893 1113 q 827 1052 893 1052 "},"~":{"x_min":111.125,"x_max":1072.3125,"ha":1183,"o":"m 750 301 q 570 368 686 301 q 387 436 455 436 q 240 331 275 436 q 223 315 234 315 l 134 319 q 111 356 111 326 q 206 582 111 498 q 433 666 301 666 q 612 600 513 666 q 700 552 650 573 q 795 531 751 531 q 943 636 908 531 q 959 652 948 652 l 1048 648 q 1072 611 1072 641 q 977 385 1072 469 q 750 301 882 301 "},"³":{"x_min":56.953125,"x_max":698.671875,"ha":754,"o":"m 125 794 q 83 888 83 794 q 94 927 83 913 q 131 954 105 941 q 370 1004 229 1004 q 675 845 675 1004 q 579 732 675 769 q 668 672 638 712 q 698 584 698 632 q 611 445 698 491 q 350 398 523 398 q 101 423 177 398 q 59 466 62 437 q 56 493 56 476 q 59 520 56 511 q 104 579 62 579 q 153 570 106 579 q 229 561 200 561 q 294 619 294 561 q 241 650 294 650 l 166 638 q 130 656 138 638 q 122 708 122 675 q 131 748 122 741 q 168 758 141 755 q 302 815 302 768 q 249 847 302 847 q 140 801 195 847 q 125 794 130 794 "},"¡":{"x_min":83.34375,"x_max":605.609375,"ha":689,"o":"m 472 -20 q 348 -27 420 -27 q 224 -20 276 -27 q 145 -2 172 -12 q 104 23 119 6 q 86 53 88 40 q 83 84 83 66 q 197 580 83 290 q 337 637 218 637 l 352 637 q 410 635 388 637 q 456 620 431 633 q 491 580 481 607 q 605 84 605 290 q 603 53 605 65 q 587 24 601 41 q 548 -2 573 6 q 472 -20 523 -12 m 515 845 q 475 738 515 784 q 351 693 434 693 q 218 740 268 693 q 169 854 169 787 q 220 963 169 922 q 345 1004 272 1004 q 466 954 418 1004 q 515 845 515 905 "},"[":{"x_min":83.34375,"x_max":643.109375,"ha":726,"o":"m 88 -131 l 83 476 l 88 1084 q 119 1166 88 1136 q 190 1200 150 1197 l 319 1200 l 338 1198 l 559 1197 q 643 1073 643 1197 q 569 1011 643 1011 l 463 1011 q 401 962 404 1011 q 394 489 394 701 q 401 -9 394 277 q 463 -58 404 -58 l 569 -58 q 643 -120 643 -58 q 559 -244 643 -244 l 338 -245 l 319 -247 l 190 -247 q 119 -213 150 -244 q 88 -131 88 -183 "},"L":{"x_min":77.78125,"x_max":1173.703125,"ha":1192,"o":"m 662 637 l 661 359 q 679 268 661 298 q 758 238 698 238 l 1109 238 q 1173 141 1173 237 q 1155 34 1173 68 q 1082 0 1137 1 q 694 -5 886 -5 q 205 -2 502 -5 q 124 21 155 -2 q 88 88 93 45 q 77 470 77 209 q 84 821 77 730 q 109 942 90 912 q 186 972 129 972 l 558 972 q 635 941 616 972 q 658 843 654 911 q 662 637 662 775 "}," ":{"x_min":0,"x_max":0,"ha":556},"∑":{"x_min":84.734375,"x_max":1047.3125,"ha":1117,"o":"m 84 766 l 87 886 q 113 950 87 932 q 186 972 138 968 q 541 979 325 979 q 955 972 758 979 q 1003 952 982 970 q 1026 901 1025 933 q 1029 794 1026 901 q 1018 743 1029 761 q 977 726 1008 726 l 726 727 q 697 713 700 727 q 709 683 694 698 l 755 626 q 777 579 777 601 q 747 533 777 558 l 625 430 q 616 412 611 419 q 630 405 622 405 l 994 400 q 1028 381 1015 398 q 1043 341 1041 365 l 1047 233 q 1045 179 1047 216 q 1041 100 1043 143 q 1019 34 1040 58 q 972 5 998 9 q 579 -4 869 -4 q 184 1 290 -4 q 111 28 137 5 q 86 111 86 51 l 86 138 q 113 208 86 172 l 341 411 q 354 435 354 422 q 337 465 354 448 l 104 673 q 84 766 84 690 "},"%":{"x_min":166.6875,"x_max":1987.65625,"ha":2099,"o":"m 572 704 q 522 826 572 826 q 472 704 472 826 q 522 581 472 581 q 572 704 572 581 m 1298 919 q 1348 963 1330 955 q 1402 972 1366 972 l 1612 972 q 1655 947 1645 972 q 1658 926 1658 940 q 1623 875 1658 912 q 1298 527 1589 838 q 845 48 1007 215 q 797 4 815 12 q 741 -4 779 -4 l 531 -4 q 488 22 498 -4 q 486 41 486 27 q 505 76 486 55 q 1298 919 758 337 m 166 707 q 261 909 166 825 q 522 993 355 993 q 784 909 690 993 q 877 707 877 825 q 802 508 877 591 q 692 439 763 465 q 523 413 620 413 q 354 439 426 413 q 241 508 281 465 q 166 707 166 590 m 1682 275 q 1632 397 1682 397 q 1582 275 1582 397 q 1632 152 1582 152 q 1682 275 1682 152 m 1276 278 q 1370 479 1276 395 q 1632 563 1465 563 q 1893 479 1800 563 q 1987 277 1987 395 q 1912 79 1987 162 q 1802 10 1873 36 q 1633 -15 1730 -15 q 1464 10 1536 -15 q 1352 79 1391 36 q 1276 278 1276 161 "},"P":{"x_min":77.78125,"x_max":1190.375,"ha":1242,"o":"m 657 179 l 657 62 q 575 -1 657 2 q 399 -5 494 -5 q 181 1 304 -5 q 117 29 141 4 q 88 86 93 54 q 77 470 77 208 q 86 851 77 732 q 206 972 94 970 q 483 975 336 975 q 802 970 630 975 q 1082 841 973 966 q 1190 566 1190 716 q 1094 319 1190 416 q 813 222 998 222 l 705 222 q 672 209 687 222 q 657 179 657 197 m 655 682 l 658 425 q 687 398 658 398 q 822 446 773 398 q 872 559 872 494 q 825 672 872 625 q 688 719 779 719 q 655 682 655 719 "},"∏":{"x_min":83.34375,"x_max":1433.453125,"ha":1517,"o":"m 1422 882 q 1433 488 1433 759 q 1427 136 1433 218 q 1402 25 1422 55 q 1325 -4 1383 -4 l 1004 -4 q 921 29 955 -4 q 887 115 887 62 l 887 675 q 844 725 887 725 l 690 725 q 647 675 647 725 l 647 115 q 613 29 647 62 q 530 -4 579 -4 l 191 -4 q 113 25 133 -4 q 88 136 94 55 q 83 488 83 218 q 94 882 83 759 q 122 941 98 915 q 187 966 147 966 q 739 970 570 970 q 1329 966 908 970 q 1393 941 1369 966 q 1422 882 1418 915 "},"À":{"x_min":48.609375,"x_max":1457.0625,"ha":1506,"o":"m 975 907 l 1429 138 q 1457 61 1457 93 q 1432 15 1457 30 q 1373 0 1407 0 l 926 0 q 838 25 858 0 q 823 54 833 33 l 783 140 q 698 186 765 180 l 436 186 q 391 180 406 186 q 366 155 376 175 l 312 43 q 281 9 298 18 q 233 0 265 0 l 108 0 q 50 38 54 0 q 48 50 48 44 q 69 111 48 81 l 504 877 q 707 986 566 986 l 818 986 q 975 907 929 986 m 525 551 l 461 425 q 455 402 455 412 q 490 366 455 366 l 616 366 q 657 381 645 366 q 668 406 668 395 q 663 429 668 418 l 611 548 q 568 584 594 584 q 525 551 541 584 m 957 1052 l 580 1052 q 515 1093 515 1052 q 570 1226 515 1113 q 616 1257 587 1257 q 743 1222 650 1257 q 893 1165 836 1187 q 971 1135 951 1143 q 991 1090 991 1127 q 957 1052 991 1052 "},"_":{"x_min":111.125,"x_max":932.015625,"ha":1043,"o":"m 890 -168 q 538 -176 829 -176 q 186 -168 247 -176 q 129 -148 147 -165 q 111 -90 111 -131 l 111 -69 q 129 -11 111 -27 q 186 8 147 5 q 538 16 247 16 q 890 8 829 16 q 922 -11 912 5 q 932 -70 932 -27 l 932 -91 q 922 -148 932 -131 q 890 -168 912 -165 "},"ñ":{"x_min":83.34375,"x_max":1119.53125,"ha":1203,"o":"m 734 769 q 627 810 687 769 q 539 851 566 851 q 497 838 512 851 q 466 793 481 825 q 440 780 454 780 l 351 780 q 333 812 333 780 q 393 970 333 913 q 554 1027 454 1027 q 661 986 601 1027 q 749 945 722 945 q 791 959 776 945 q 822 1004 807 972 q 848 1016 834 1016 l 937 1016 q 955 984 955 1016 q 895 826 955 883 q 734 769 834 769 m 686 59 l 687 398 q 666 461 687 440 q 614 481 645 481 q 557 460 583 481 q 531 400 531 438 l 531 315 q 523 65 531 131 q 500 23 519 41 q 431 2 480 5 q 333 -1 381 -1 q 168 4 284 -1 q 115 23 134 5 q 93 65 95 41 q 83 341 83 155 q 88 596 83 527 q 109 686 94 665 q 172 707 125 707 l 443 707 q 506 686 490 707 q 526 615 522 665 l 526 613 q 786 725 633 725 q 1027 650 940 725 q 1117 443 1115 575 q 1119 206 1119 311 q 1118 66 1119 102 q 1099 14 1116 30 q 1032 -1 1082 -1 l 765 -4 q 703 11 720 -4 q 686 59 686 27 "},"+":{"x_min":111.125,"x_max":1001.46875,"ha":1113,"o":"m 111 484 l 111 494 q 136 578 111 558 q 212 598 162 598 l 437 598 l 437 830 q 456 903 437 879 q 540 929 476 927 l 570 929 q 654 903 634 929 q 675 827 675 877 l 675 598 l 902 598 q 975 579 951 598 q 1001 494 1000 559 l 1001 486 q 970 400 1001 419 q 900 384 947 384 l 675 384 l 675 151 q 655 78 675 102 q 570 52 636 54 l 541 52 q 457 78 477 52 q 437 154 437 104 l 437 384 l 209 384 q 119 429 134 384 q 111 484 112 450 "},"‚":{"x_min":83.34375,"x_max":444.484375,"ha":556,"o":"m 93 -91 q 165 -8 179 -47 q 144 30 158 11 q 98 150 98 87 q 152 252 98 212 q 276 293 205 293 q 395 253 347 293 q 444 140 444 213 q 349 -78 444 16 q 129 -173 254 -173 q 99 -151 115 -173 q 83 -113 83 -129 q 93 -91 83 -97 "},"½":{"x_min":83.34375,"x_max":1773.75,"ha":1857,"o":"m 1176 520 q 1443 576 1291 576 q 1662 529 1594 576 q 1730 409 1730 483 q 1564 198 1730 275 q 1547 185 1547 190 q 1562 180 1547 180 q 1741 187 1577 180 q 1765 165 1757 187 q 1773 100 1773 143 q 1762 26 1773 56 q 1718 -5 1751 -4 q 1458 -8 1545 -8 q 1272 -6 1370 -8 q 1163 -3 1173 -4 q 1143 4 1154 -2 q 1129 27 1132 12 l 1122 77 q 1120 94 1120 86 q 1141 143 1120 127 q 1184 170 1151 150 q 1242 207 1218 190 q 1294 247 1266 225 q 1352 347 1352 295 q 1336 391 1352 373 q 1291 409 1320 409 q 1183 363 1230 409 q 1161 358 1175 355 q 1123 450 1123 366 q 1176 520 1123 495 m 1091 919 q 1141 963 1123 955 q 1195 972 1159 972 l 1377 972 q 1420 947 1411 972 q 1423 926 1423 940 q 1389 875 1423 912 q 1063 527 1354 838 q 611 48 772 215 q 562 4 580 12 q 506 -4 544 -4 l 325 -4 q 281 22 291 -4 q 279 41 279 27 q 298 76 279 55 q 1091 919 551 337 m 479 994 q 530 976 518 994 q 547 916 543 958 q 554 697 554 816 q 544 487 554 579 q 525 452 541 468 q 474 434 508 436 q 354 431 440 431 q 231 434 268 431 q 180 452 195 436 q 165 486 165 468 q 158 677 158 590 q 159 795 158 763 l 120 798 q 83 852 83 800 q 90 921 83 905 q 129 944 98 937 q 479 994 323 980 "},"Æ":{"x_min":48.609375,"x_max":1664.015625,"ha":1714,"o":"m 1150 973 l 1557 972 q 1639 868 1639 972 q 1566 786 1639 786 l 1261 786 q 1214 766 1232 786 q 1197 716 1197 747 l 1197 616 q 1234 575 1197 575 l 1487 575 q 1521 570 1509 575 q 1543 546 1533 566 q 1552 480 1552 526 q 1536 419 1552 434 q 1484 404 1520 404 l 1258 404 q 1210 386 1223 404 q 1197 333 1197 369 l 1197 265 q 1254 205 1197 205 l 1600 205 q 1644 190 1625 205 q 1664 127 1664 176 q 1640 38 1664 77 q 1584 0 1616 0 l 768 0 q 702 25 729 0 q 670 95 675 51 q 664 146 665 138 q 661 161 663 154 q 648 177 659 169 q 618 186 637 186 l 452 186 q 386 155 405 186 l 318 43 q 288 9 302 18 q 244 0 275 0 l 119 0 q 52 40 65 0 q 48 72 48 54 q 65 111 48 90 l 565 859 q 752 968 638 968 l 1150 973 m 479 395 q 516 366 479 366 l 612 366 q 659 419 659 366 l 658 545 q 647 577 658 566 q 618 588 637 588 q 580 561 600 588 l 490 425 q 479 395 479 411 "},"Ë":{"x_min":77.78125,"x_max":1122.3125,"ha":1172,"o":"m 186 0 q 120 25 147 0 q 85 110 93 51 q 77 464 77 169 q 87 850 77 759 q 186 969 98 966 q 1015 972 286 972 q 1097 868 1097 972 q 1025 786 1097 786 l 719 786 q 672 766 690 786 q 655 716 655 747 l 655 616 q 693 575 655 575 l 945 575 q 979 570 968 575 q 1001 546 991 566 q 1011 480 1011 526 q 995 419 1011 434 q 943 404 979 404 l 716 404 q 668 386 682 404 q 655 333 655 369 l 655 265 q 712 205 655 205 l 1058 205 q 1102 190 1083 205 q 1122 127 1122 176 q 1098 38 1122 77 q 1043 0 1075 0 l 186 0 m 262 1148 q 302 1236 262 1200 q 409 1273 343 1273 q 506 1238 475 1273 q 538 1155 538 1202 q 500 1070 538 1108 q 402 1032 461 1032 q 303 1063 344 1032 q 262 1148 262 1095 m 632 1148 q 672 1236 632 1200 q 778 1273 712 1273 q 876 1238 844 1273 q 908 1155 908 1202 q 869 1070 908 1108 q 772 1032 830 1032 q 672 1063 713 1032 q 632 1148 632 1095 "},"ﬆ":{"x_min":55.5625,"x_max":1776.53125,"ha":1821,"o":"m 388 181 q 356 243 388 220 q 277 277 323 265 q 183 304 230 288 q 103 360 136 320 q 70 465 70 400 q 472 723 70 723 q 598 718 559 723 q 577 802 577 758 q 652 969 577 901 q 1020 1091 786 1091 q 1336 1019 1201 1091 q 1443 923 1404 984 q 1482 786 1483 862 l 1480 727 q 1505 698 1480 698 l 1654 698 q 1706 683 1690 698 q 1722 613 1722 668 q 1705 543 1722 558 q 1655 527 1689 527 l 1511 527 q 1486 518 1491 527 q 1480 490 1480 508 l 1480 323 q 1516 244 1483 276 q 1608 212 1548 212 q 1680 228 1637 212 q 1739 244 1723 244 q 1776 133 1776 244 q 1733 36 1776 52 q 1608 11 1689 20 q 1447 1 1527 1 q 1293 14 1366 1 q 1161 61 1220 27 q 1044 320 1044 129 l 1044 505 q 1036 522 1044 516 q 1013 527 1027 527 q 988 529 1000 527 q 965 538 976 531 q 944 606 944 554 q 954 675 944 658 q 988 694 965 691 q 1111 748 1066 702 q 1155 856 1155 794 q 1105 952 1155 918 q 979 987 1055 987 q 780 934 862 987 q 698 797 698 882 q 722 715 698 761 q 787 640 745 669 q 809 579 809 623 q 793 514 809 534 q 761 494 777 494 q 692 525 745 494 q 581 558 638 556 q 536 512 536 558 q 568 463 536 481 q 645 432 600 445 q 737 400 691 419 q 815 338 783 381 q 847 227 847 294 q 445 -30 847 -30 q 126 26 250 -30 q 72 57 88 41 q 55 115 55 73 q 72 176 55 158 q 102 194 90 194 q 181 163 113 194 q 319 133 250 133 q 388 181 388 133 "},"'":{"x_min":111.125,"x_max":373.640625,"ha":485,"o":"m 115 987 q 150 1011 120 998 q 232 1023 180 1023 q 313 1017 284 1023 q 355 1000 343 1011 q 373 954 373 980 q 318 650 373 823 q 247 615 306 615 l 236 615 q 168 650 177 615 q 111 957 111 827 q 115 987 111 976 "},"ª":{"x_min":55.5625,"x_max":748.671875,"ha":804,"o":"m 747 807 l 748 648 q 747 560 748 584 q 733 525 745 536 q 686 515 720 515 l 476 515 q 436 525 447 515 q 423 556 425 536 l 423 565 q 234 502 358 502 q 106 536 158 502 q 55 635 55 570 q 97 738 55 700 q 322 808 170 808 q 426 797 368 808 l 426 800 q 404 850 426 834 q 325 866 383 866 q 219 845 266 866 q 161 825 172 825 q 136 836 150 825 q 120 893 120 851 q 169 962 120 936 q 425 1002 262 1002 q 747 807 743 1002 m 427 715 q 401 732 427 732 q 362 716 375 732 q 350 681 350 701 q 359 647 350 661 q 396 633 369 633 q 426 648 423 633 q 427 715 427 673 "},"˛":{"x_min":401.421875,"x_max":666.71875,"ha":1157,"o":"m 618 -147 l 645 -145 q 666 -213 666 -145 q 534 -241 666 -241 q 401 -140 401 -241 q 430 -64 401 -102 q 509 1 459 -26 l 601 1 q 550 -98 550 -54 q 618 -147 550 -147 "},"ð":{"x_min":55.5625,"x_max":1068.140625,"ha":1147,"o":"m 316 1016 l 368 1015 l 386 1059 q 406 1091 397 1086 q 427 1097 415 1097 q 461 1091 438 1097 l 487 1082 q 527 1033 527 1066 q 518 997 527 1016 q 927 782 786 944 q 1068 405 1068 620 q 938 66 1068 176 q 573 -30 825 -30 q 55 329 55 -30 q 181 596 55 498 q 551 698 308 694 q 438 791 505 755 l 427 762 q 407 731 416 736 q 386 726 398 726 q 351 732 375 726 l 327 740 q 286 788 286 758 q 293 816 286 802 l 301 840 l 250 848 q 205 880 205 852 q 232 953 205 908 q 275 1007 259 998 q 316 1016 290 1016 m 573 191 q 644 341 644 191 q 572 469 644 469 q 506 434 523 469 q 490 334 490 400 q 506 229 490 268 q 573 191 523 191 "},"T":{"x_min":48.609375,"x_max":1115.359375,"ha":1164,"o":"m 873 84 q 847 28 872 54 q 780 0 822 2 q 590 -5 701 -5 q 386 0 479 -5 q 319 28 344 2 q 293 84 294 54 q 288 445 288 295 q 290 663 288 594 q 243 716 290 716 l 118 716 q 70 730 88 716 q 50 779 52 744 q 48 851 48 813 q 50 916 48 888 q 72 957 52 943 q 116 972 93 972 q 605 975 297 975 q 1047 972 913 975 q 1091 957 1070 970 q 1113 916 1111 943 q 1115 852 1115 888 q 1113 783 1115 816 q 1045 720 1109 720 l 920 720 q 873 672 873 720 q 877 355 877 497 q 873 84 877 213 "},"℮":{"x_min":125.015625,"x_max":1273.71875,"ha":1399,"o":"m 1273 473 l 343 473 q 334 466 334 473 l 334 186 q 348 154 334 163 q 700 0 498 0 q 904 45 808 0 q 1069 170 1000 91 l 1154 170 q 954 24 1075 77 q 698 -29 834 -29 q 292 121 459 -29 q 125 486 125 272 q 292 852 125 701 q 697 1004 459 1004 q 1104 852 936 1004 q 1273 487 1273 701 l 1273 473 m 1062 509 l 1062 794 q 1048 827 1062 811 q 699 975 898 975 q 350 822 500 975 q 334 787 334 808 l 334 509 q 343 501 334 501 l 1055 501 q 1062 509 1062 501 "},"Þ":{"x_min":83.34375,"x_max":1207.046875,"ha":1288,"o":"m 191 972 l 563 972 q 641 943 622 972 q 663 845 659 913 q 665 833 663 838 q 816 830 705 833 q 1100 724 993 827 q 1207 481 1207 620 q 1111 244 1207 341 q 830 147 1015 147 l 665 147 l 661 86 q 634 29 658 55 q 568 1 609 4 q 384 -4 488 -4 q 187 1 280 -4 q 122 29 147 4 q 94 86 98 54 q 83 470 83 208 q 89 822 83 732 q 114 943 95 913 q 191 972 133 972 m 672 627 l 675 350 q 704 320 675 320 q 841 372 791 320 q 890 495 890 425 q 843 617 890 566 q 707 668 797 668 q 672 627 672 668 "},"j":{"x_min":-69.453125,"x_max":550.046875,"ha":633,"o":"m 550 350 l 544 81 q 390 -179 544 -109 q 4 -241 252 -241 q -54 -214 -40 -241 q -69 -121 -69 -187 q -18 -50 -69 -55 q 109 86 109 -34 l 108 611 q 125 680 108 658 q 190 702 141 702 l 461 702 q 525 681 509 702 q 544 611 541 659 q 550 350 550 493 m 340 1030 q 478 993 431 1030 q 525 893 525 957 q 325 743 525 743 q 187 777 244 743 q 130 882 130 812 q 340 1030 130 1030 "},"1":{"x_min":55.5625,"x_max":769.5,"ha":839,"o":"m 658 973 q 735 944 716 973 q 758 847 754 915 q 769 460 769 687 q 755 84 769 233 q 727 27 751 52 q 662 0 702 2 q 479 -5 583 -5 q 281 0 375 -5 q 215 28 240 2 q 188 84 190 54 q 177 447 177 275 q 179 677 177 620 l 116 682 q 55 760 55 686 q 68 859 55 834 q 130 893 80 883 q 658 973 406 950 "},"›":{"x_min":83.34375,"x_max":543.09375,"ha":626,"o":"m 543 343 l 543 279 q 513 218 543 243 l 222 -31 q 200 -41 212 -41 q 166 -34 187 -41 q 114 2 145 -26 q 83 54 83 31 q 95 91 83 76 l 275 311 l 95 530 q 83 562 83 545 q 175 659 83 609 q 197 663 184 663 q 230 647 211 663 l 513 404 q 543 343 543 379 "},"ℓ":{"x_min":69.453125,"x_max":995.90625,"ha":1093,"o":"m 163 197 q 111 188 134 188 q 69 263 69 188 q 100 323 69 312 q 150 334 101 323 l 150 643 q 189 811 150 737 q 294 927 229 884 q 595 1015 429 1015 q 863 958 748 1015 q 959 872 923 927 q 994 741 994 816 q 587 311 994 472 q 752 202 587 202 q 871 222 816 202 q 943 243 926 243 q 995 134 995 243 q 944 34 995 50 q 602 -12 790 -12 q 223 88 322 -12 q 163 197 181 131 m 698 734 q 682 783 698 766 q 642 800 665 800 q 603 779 619 800 q 587 720 587 759 l 587 547 q 698 734 698 640 "},"ä":{"x_min":69.453125,"x_max":1045.921875,"ha":1129,"o":"m 586 729 q 1043 434 1038 729 q 1045 205 1045 309 q 1044 65 1045 101 q 1025 13 1043 29 q 958 -2 1008 -2 l 663 -2 q 602 13 619 -2 q 584 61 586 29 q 584 65 584 62 q 583 72 583 69 q 333 -22 491 -22 q 146 32 223 -22 q 69 184 69 87 q 124 338 69 280 q 254 416 179 395 q 417 437 330 437 q 587 420 504 437 l 587 426 q 560 526 587 495 q 472 556 533 556 q 372 546 412 556 q 311 525 331 536 q 231 491 254 491 q 192 512 209 491 q 175 577 175 533 q 190 637 175 620 q 241 670 206 654 q 586 729 362 729 m 520 161 q 583 184 581 161 q 586 305 586 230 q 541 334 586 334 q 469 313 497 334 q 441 250 441 291 q 464 184 441 208 q 520 161 487 161 m 265 889 q 305 978 265 941 q 411 1015 345 1015 q 509 979 477 1015 q 541 897 541 944 q 502 811 541 850 q 405 773 463 773 q 306 805 347 773 q 265 889 265 837 m 634 889 q 675 978 634 941 q 781 1015 715 1015 q 879 979 847 1015 q 911 897 911 944 q 872 811 911 850 q 775 773 833 773 q 675 805 716 773 q 634 889 634 837 "},"<":{"x_min":111.125,"x_max":863.953125,"ha":1051,"o":"m 111 522 q 145 595 111 579 l 738 879 q 780 886 752 886 q 836 861 808 886 q 863 797 863 837 l 863 745 q 811 661 863 687 l 451 491 q 543 447 512 461 l 657 393 q 733 355 682 380 q 809 318 784 330 q 863 237 863 290 l 863 186 q 836 121 863 145 q 780 97 808 97 q 738 104 752 97 l 145 388 q 111 461 111 405 l 111 522 "},"£":{"x_min":77.78125,"x_max":1326.5,"ha":1410,"o":"m 1006 528 q 1022 472 1022 515 q 1004 416 1022 429 q 955 402 987 402 l 776 402 q 784 334 784 355 q 744 220 784 266 q 988 173 863 173 q 1233 276 1113 173 q 1266 287 1247 287 q 1301 263 1284 287 q 1326 161 1326 231 q 1263 44 1326 91 q 925 -43 1143 -43 q 716 4 841 -43 q 472 52 590 52 q 291 11 398 52 q 154 -30 184 -30 q 103 2 123 -30 q 83 77 83 34 q 105 151 83 119 q 172 186 127 183 q 280 305 280 193 q 266 402 280 343 l 141 402 q 94 416 109 402 q 77 472 79 429 q 95 528 77 515 q 144 541 112 541 l 227 541 q 195 686 195 644 q 669 1004 195 1004 q 1075 925 907 1004 q 1138 881 1119 904 q 1157 800 1157 858 q 1136 716 1157 743 q 1096 686 1116 690 q 1062 695 1076 683 q 947 758 1016 734 q 829 782 879 782 q 746 751 779 782 q 713 669 713 720 q 736 541 713 618 l 958 541 q 1006 528 990 541 "},"¹":{"x_min":83.34375,"x_max":554.21875,"ha":651,"o":"m 479 994 q 530 976 518 994 q 547 916 543 958 q 554 697 554 816 q 544 487 554 579 q 525 452 541 468 q 474 434 508 436 q 354 431 440 431 q 231 434 268 431 q 180 452 195 436 q 165 486 165 468 q 158 677 158 590 q 159 795 158 763 l 120 798 q 83 852 83 800 q 90 921 83 905 q 129 944 98 937 q 479 994 323 980 "},"t":{"x_min":41.671875,"x_max":873.6875,"ha":918,"o":"m 141 505 q 111 527 141 527 q 47 563 56 527 q 41 619 41 581 q 52 672 41 657 q 92 696 62 688 q 146 722 122 704 q 246 805 170 741 q 352 888 322 869 q 426 908 381 908 l 495 908 q 561 896 544 908 q 577 859 577 884 l 577 727 q 602 698 577 698 l 751 698 q 803 683 787 698 q 819 613 819 668 q 802 543 819 558 q 752 527 786 527 l 608 527 q 583 518 588 527 q 577 490 577 508 l 577 323 q 613 244 580 276 q 705 212 645 212 q 777 228 734 212 q 836 244 820 244 q 873 133 873 244 q 830 36 873 52 q 705 11 786 20 q 544 1 625 1 q 391 14 463 1 q 258 61 318 27 q 141 320 141 129 l 141 505 "},"¬":{"x_min":83.34375,"x_max":933.40625,"ha":1017,"o":"m 83 505 l 83 529 q 184 626 83 626 l 834 626 q 907 605 882 626 q 933 529 933 584 l 933 218 q 913 143 933 168 q 829 119 894 119 l 800 119 q 716 145 736 119 q 695 220 695 170 l 695 412 l 181 412 q 108 431 133 412 q 83 505 83 450 "},"ù":{"x_min":83.34375,"x_max":1119.53125,"ha":1203,"o":"m 608 968 l 680 832 q 685 802 693 813 q 655 791 677 791 l 559 791 q 509 809 531 791 q 461 848 486 827 q 407 893 436 869 q 362 932 379 918 q 336 962 345 945 q 336 991 327 979 q 376 1004 345 1004 l 543 1004 q 608 968 584 1004 m 516 645 l 515 306 q 533 245 515 266 q 579 225 551 225 q 634 246 608 225 q 670 305 659 268 l 670 390 q 679 640 670 573 q 702 682 683 663 q 771 703 722 700 q 869 707 820 707 q 1034 701 918 707 q 1087 682 1068 700 q 1109 640 1107 663 q 1119 363 1119 550 q 1113 108 1119 176 q 1093 19 1108 40 q 1030 -1 1077 -1 l 759 -1 q 696 19 712 -1 q 676 90 680 40 l 676 91 q 386 -18 533 -18 q 163 54 238 -18 q 85 261 87 127 q 83 498 83 394 q 84 638 83 602 q 103 691 86 675 q 170 707 120 707 l 437 709 q 499 693 481 709 q 516 645 516 677 "},"W":{"x_min":45.84375,"x_max":1897.375,"ha":1977,"o":"m 1087 898 l 1280 895 q 1347 879 1323 895 q 1382 823 1370 862 l 1466 543 q 1476 527 1469 531 q 1490 527 1483 523 q 1500 541 1497 531 l 1616 919 q 1642 958 1625 947 q 1697 969 1659 969 l 1854 969 q 1891 944 1880 969 q 1897 919 1897 933 q 1871 841 1897 905 q 1757 502 1845 776 q 1602 87 1668 229 q 1387 -29 1547 -29 q 1225 10 1301 -29 q 1123 109 1148 50 q 1054 281 1097 168 q 995 440 1012 395 q 866 88 923 212 q 770 2 840 33 q 615 -27 700 -27 q 345 122 412 -27 q 56 832 133 605 q 45 893 45 868 q 119 970 45 970 l 516 975 q 593 957 568 975 q 633 887 618 938 l 730 545 q 740 529 733 533 q 763 544 755 520 l 857 827 q 943 895 877 894 q 1087 898 1029 898 "},"ï":{"x_min":-15.28125,"x_max":630.609375,"ha":615,"o":"m 172 702 l 443 702 q 506 681 490 702 q 527 589 522 661 q 531 328 531 518 q 523 61 531 138 q 500 19 519 37 q 431 -2 480 1 q 313 -5 381 -5 q 190 -2 245 -5 q 115 19 134 1 q 93 61 95 37 q 83 338 83 151 q 88 593 83 525 q 109 681 94 661 q 172 702 125 702 m -15 889 q 25 978 -15 941 q 131 1015 65 1015 q 229 979 197 1015 q 261 897 261 944 q 222 811 261 850 q 125 773 183 773 q 25 805 66 773 q -15 889 -15 837 m 354 889 q 394 978 354 941 q 500 1015 434 1015 q 598 979 566 1015 q 630 897 630 944 q 591 811 630 850 q 494 773 552 773 q 395 805 436 773 q 354 889 354 837 "},">":{"x_min":111.125,"x_max":863.953125,"ha":975,"o":"m 863 522 l 863 461 q 829 388 863 405 l 236 104 q 194 97 222 97 q 138 121 166 97 q 111 186 111 145 l 111 237 q 165 318 111 290 q 241 355 190 330 q 318 393 293 380 l 431 447 q 523 491 462 461 l 163 661 q 111 745 111 687 l 111 797 q 138 861 111 837 q 194 886 166 886 q 236 879 222 886 l 829 595 q 863 522 863 579 "},"v":{"x_min":27.78125,"x_max":1037.578125,"ha":1065,"o":"m 27 655 q 84 705 27 705 l 390 707 q 459 693 436 707 q 501 640 483 680 l 630 398 q 652 381 636 381 q 677 398 669 381 l 811 675 q 841 704 822 700 q 861 705 847 705 l 1007 707 q 1033 688 1026 707 q 1037 670 1037 680 q 1030 647 1037 659 q 720 44 841 258 q 645 -11 697 8 q 533 -30 594 -30 q 352 39 397 -30 q 256 200 306 109 q 143 412 206 290 q 43 600 79 534 q 27 655 27 632 "},"û":{"x_min":83.34375,"x_max":1119.53125,"ha":1203,"o":"m 516 645 l 515 306 q 533 245 515 266 q 579 225 551 225 q 634 246 608 225 q 670 305 659 268 l 670 390 q 679 640 670 573 q 702 682 683 663 q 771 703 722 700 q 869 707 820 707 q 1034 701 918 707 q 1087 682 1068 700 q 1109 640 1107 663 q 1119 363 1119 550 q 1113 108 1119 176 q 1093 19 1108 40 q 1030 -1 1077 -1 l 759 -1 q 696 19 712 -1 q 676 90 680 40 l 676 91 q 386 -18 533 -18 q 163 54 238 -18 q 85 261 87 127 q 83 498 83 394 q 84 638 83 602 q 103 691 86 675 q 170 707 120 707 l 437 709 q 499 693 481 709 q 516 645 516 677 m 568 1036 l 659 1036 q 736 994 687 1036 l 898 852 q 905 830 905 841 q 889 770 905 788 q 861 751 873 751 q 841 755 850 751 l 613 858 l 386 755 q 366 751 377 751 q 338 769 354 751 q 322 802 323 787 q 322 829 322 818 q 329 852 322 841 l 491 994 q 568 1036 540 1036 "},"Ò":{"x_min":55.5625,"x_max":1393.171875,"ha":1449,"o":"m 754 -27 q 450 15 586 -27 q 229 133 313 59 q 100 297 144 206 q 55 487 55 388 q 100 677 55 586 q 229 841 145 768 q 450 959 313 915 q 748 1004 586 1004 q 1036 963 911 1004 q 1237 854 1161 923 q 1393 518 1393 712 q 1350 325 1393 419 q 1229 153 1308 230 q 1027 27 1151 76 q 754 -27 904 -22 m 1029 511 q 982 627 1029 577 q 838 676 934 676 q 684 625 741 676 q 627 500 627 573 q 687 381 627 426 q 831 337 747 337 q 972 391 915 337 q 1029 511 1029 445 m 929 1052 l 552 1052 q 487 1093 487 1052 q 543 1226 487 1113 q 588 1257 559 1257 q 715 1222 622 1257 q 866 1165 808 1187 q 943 1135 923 1143 q 963 1090 963 1127 q 929 1052 963 1052 "},"&":{"x_min":83.34375,"x_max":1322.328125,"ha":1420,"o":"m 791 365 q 734 388 791 388 q 648 356 677 388 q 619 284 619 325 q 654 214 619 244 q 745 184 690 184 q 779 190 763 184 q 795 222 795 195 q 791 365 791 330 m 1318 144 l 1322 62 q 1269 -18 1322 -1 q 1165 -31 1227 -31 q 900 43 986 -31 q 493 -31 723 -31 q 209 30 326 -31 q 116 119 150 62 q 83 254 83 176 q 225 494 83 422 q 122 702 122 562 q 165 840 122 780 q 284 936 209 900 q 625 1005 433 1005 q 955 959 818 1005 q 1025 855 1025 937 q 1006 783 1025 809 q 946 757 987 757 q 852 771 905 757 q 754 786 798 786 q 667 760 709 786 q 625 679 625 734 q 652 625 625 625 q 679 629 655 625 q 754 633 704 633 q 925 615 805 633 q 1088 597 1044 597 q 1186 613 1133 597 q 1258 630 1240 630 q 1315 520 1315 630 q 1263 427 1315 455 q 1172 393 1227 408 l 1172 263 q 1196 202 1172 218 q 1262 187 1220 187 q 1318 144 1318 187 "},"˝":{"x_min":83.34375,"x_max":893.125,"ha":976,"o":"m 116 1020 q 83 1040 83 1020 q 91 1061 83 1048 l 229 1266 q 294 1302 252 1302 l 461 1302 q 504 1277 504 1298 q 470 1226 504 1257 q 362 1129 437 1195 q 256 1036 287 1063 q 216 1020 240 1022 l 116 1020 m 505 1020 q 472 1040 472 1020 q 480 1061 472 1048 l 618 1266 q 683 1302 641 1302 l 850 1302 q 893 1277 893 1298 q 859 1226 893 1257 q 751 1129 826 1195 q 645 1036 676 1063 q 605 1020 629 1022 l 505 1020 "},"Ð":{"x_min":-12.5,"x_max":1212.59375,"ha":1263,"o":"m 736 2 q 469 -5 643 -5 q 232 0 295 -5 q 137 22 169 4 q 102 79 105 40 q 93 425 93 248 l 52 425 q 18 429 30 425 q -2 453 6 433 q -12 519 -12 473 q 3 580 -12 565 q 55 595 19 595 l 94 595 q 100 829 97 751 q 223 970 102 962 q 483 976 308 976 q 757 971 658 976 q 949 925 857 966 q 1097 819 1041 884 q 1212 506 1212 684 q 1091 172 1212 319 q 941 55 1033 101 q 736 2 848 9 m 673 672 l 673 595 l 755 595 q 789 591 777 595 q 811 567 801 587 q 820 501 820 547 q 804 440 820 455 q 752 425 788 425 l 673 425 l 673 336 q 682 315 673 325 q 704 305 690 305 q 841 366 793 305 q 888 511 888 427 q 845 656 888 594 q 727 718 801 718 q 700 716 709 718 q 673 672 673 709 "},"I":{"x_min":83.34375,"x_max":672.28125,"ha":756,"o":"m 191 972 l 563 972 q 641 943 622 972 q 666 822 659 913 q 672 470 672 732 q 661 86 672 208 q 632 29 657 54 q 568 1 608 4 q 384 -4 488 -4 q 187 1 280 -4 q 122 29 147 4 q 94 86 98 54 q 83 470 83 208 q 89 822 83 732 q 114 943 95 913 q 191 972 133 972 "},"G":{"x_min":55.5625,"x_max":1140.375,"ha":1224,"o":"m 876 747 q 700 682 751 747 q 650 477 650 618 q 779 256 650 256 q 813 258 805 256 q 786 316 797 258 q 776 438 776 375 q 811 521 776 502 q 907 540 845 540 q 993 539 969 540 q 1049 534 1018 538 q 1097 519 1080 529 q 1136 452 1136 497 l 1136 250 q 1097 77 1136 141 q 951 1 1058 12 q 493 -13 801 -13 q 281 25 369 -13 q 144 133 193 63 q 55 461 55 262 q 183 816 55 661 q 523 983 311 972 q 734 991 669 991 q 1072 962 972 991 q 1140 852 1140 943 q 1069 732 1140 732 q 980 740 1047 733 q 876 747 913 747 "},"`":{"x_min":144.453125,"x_max":501.421875,"ha":593,"o":"m 144 977 q 188 1004 144 1004 l 355 1004 q 420 968 397 1004 l 493 832 q 501 812 501 820 q 468 791 501 791 l 372 791 q 321 809 344 791 q 273 848 298 827 q 220 893 248 869 q 175 932 191 918 q 144 977 144 957 "},"·":{"x_min":83.34375,"x_max":429.203125,"ha":513,"o":"m 83 353 q 132 468 83 420 q 265 515 181 515 q 388 469 348 515 q 429 363 429 423 q 380 253 429 302 q 259 204 331 204 q 134 245 186 204 q 83 353 83 286 "},"r":{"x_min":83.34375,"x_max":912.578125,"ha":913,"o":"m 172 707 l 443 707 q 508 686 490 707 q 526 626 526 666 l 526 576 q 779 723 604 723 q 875 686 837 723 q 912 586 912 648 q 879 461 912 523 q 786 400 845 400 q 708 428 758 400 q 627 456 658 456 q 564 434 597 456 q 531 361 531 412 q 523 65 531 137 q 500 23 519 41 q 431 2 480 5 q 333 -1 381 -1 q 168 4 284 -1 q 115 23 134 5 q 93 65 95 41 q 83 341 83 155 q 88 596 83 527 q 109 686 94 665 q 172 707 125 707 "},"₤":{"x_min":83.34375,"x_max":1326.5,"ha":1440,"o":"m 949 418 q 965 362 965 405 q 947 306 965 319 q 898 293 930 293 l 780 293 q 744 220 772 252 q 988 173 863 173 q 1233 276 1113 173 q 1266 287 1247 287 q 1301 263 1284 287 q 1326 161 1326 231 q 1263 44 1326 91 q 925 -43 1143 -43 q 716 4 841 -43 q 472 52 590 52 q 291 11 398 52 q 154 -30 184 -30 q 103 2 123 -30 q 83 77 83 34 q 105 151 83 119 q 172 186 127 183 q 280 293 273 191 l 150 293 q 102 306 118 293 q 86 362 87 319 q 103 418 86 405 q 152 431 120 431 l 259 431 l 243 490 l 150 490 q 102 503 118 490 q 86 559 87 516 q 103 616 86 602 q 152 629 120 629 l 204 629 q 195 686 195 662 q 669 1004 195 1004 q 1075 925 907 1004 q 1138 881 1119 904 q 1157 800 1157 858 q 1136 716 1157 743 q 1096 686 1116 690 q 1062 695 1076 683 q 947 758 1016 734 q 829 782 879 782 q 746 751 779 782 q 713 682 713 720 q 716 629 713 643 l 901 629 q 949 616 933 629 q 965 559 965 602 q 947 503 965 516 q 898 490 930 490 l 751 490 q 769 431 758 470 l 901 431 q 949 418 933 431 "},"¿":{"x_min":111.125,"x_max":915.34375,"ha":943,"o":"m 755 369 l 763 288 q 729 211 763 243 q 652 165 694 179 q 576 125 611 151 q 541 63 541 100 q 568 5 541 26 q 636 -15 595 -15 q 755 31 700 -15 q 816 59 790 59 q 879 19 843 59 q 915 -51 915 -20 q 886 -111 915 -81 q 458 -241 755 -241 q 208 -179 305 -241 q 111 11 111 -118 q 143 100 111 61 q 223 163 176 138 q 316 208 270 187 q 429 320 429 261 q 428 343 429 325 q 428 366 427 361 q 431 386 429 372 q 441 405 434 400 q 591 434 473 434 q 687 428 626 434 q 755 369 748 422 m 765 643 q 716 529 765 576 q 583 481 666 481 q 459 527 500 481 q 419 634 419 573 q 468 743 419 694 q 589 793 516 793 q 713 752 662 793 q 765 643 765 711 "},"ý":{"x_min":29.171875,"x_max":1038.96875,"ha":1067,"o":"m 552 829 l 625 965 q 690 1001 648 1001 l 857 1001 q 896 988 887 1001 q 896 959 905 976 q 870 929 887 943 q 825 891 854 915 q 720 804 762 837 q 673 788 701 788 l 577 788 q 547 800 555 788 q 552 829 540 811 m 183 -54 q 366 0 366 -54 q 344 54 366 18 q 44 600 243 212 q 29 650 29 632 q 86 707 29 707 l 391 707 q 459 693 436 707 q 502 640 481 679 l 632 398 q 655 381 640 381 q 679 398 670 381 l 812 675 q 841 705 825 702 q 862 707 847 705 l 1008 707 q 1036 688 1027 707 q 1038 670 1038 680 q 1028 639 1038 659 q 923 418 1018 619 q 779 122 829 216 q 710 -6 730 27 q 656 -89 690 -41 q 593 -161 623 -137 q 516 -211 562 -186 q 310 -254 436 -254 q 144 -232 184 -254 q 104 -138 104 -211 q 117 -79 104 -104 q 152 -54 130 -54 l 183 -54 "},"x":{"x_min":26.390625,"x_max":1091.75,"ha":1120,"o":"m 476 707 l 497 705 q 506 703 501 705 q 513 700 511 701 q 520 695 516 700 q 527 691 525 691 q 534 684 529 690 q 540 677 538 679 q 555 659 552 665 q 648 554 644 558 q 791 700 788 700 q 800 704 798 704 l 812 705 l 1052 705 q 1075 693 1069 705 q 1069 668 1082 680 l 782 409 q 1066 95 948 229 q 1091 41 1091 66 q 1048 1 1091 2 q 920 0 1004 0 l 666 1 q 586 34 619 1 l 465 163 q 311 5 313 5 q 302 1 304 1 l 290 0 l 51 0 q 30 8 34 0 q 26 22 26 16 q 34 37 26 29 l 334 305 l 55 607 q 33 650 33 633 q 38 676 33 666 q 93 707 54 707 l 476 707 "},"è":{"x_min":55.5625,"x_max":975.078125,"ha":1031,"o":"m 588 965 l 661 829 q 666 800 673 811 q 636 788 658 788 l 540 788 q 489 807 512 788 q 441 845 466 825 q 388 891 416 866 q 343 929 359 915 q 317 959 326 943 q 317 988 308 976 q 356 1001 326 1001 l 523 1001 q 588 965 565 1001 m 275 664 q 406 709 338 695 q 572 723 473 723 q 762 699 672 723 q 897 633 852 675 q 975 454 975 556 q 702 293 975 293 q 504 311 607 293 q 538 181 508 219 q 644 144 568 144 q 770 161 720 144 q 851 195 820 177 q 903 212 882 212 q 940 193 925 212 q 963 124 963 168 q 946 64 963 80 q 891 33 929 48 q 516 -22 759 -22 q 185 74 315 -22 q 55 334 55 170 q 84 479 55 413 q 162 589 113 545 q 275 664 211 633 m 597 565 q 505 427 512 565 q 575 422 572 422 q 666 483 666 422 q 597 565 666 565 "},"º":{"x_min":55.5625,"x_max":827.84375,"ha":883,"o":"m 388 754 q 442 655 388 655 q 495 754 495 655 q 442 852 495 852 q 388 754 388 852 m 827 754 q 441 512 827 512 q 55 748 55 512 q 154 935 55 869 q 442 1001 252 1001 q 729 936 632 1001 q 827 754 827 872 "},"Ø":{"x_min":55.5625,"x_max":1393.171875,"ha":1449,"o":"m 754 -27 q 352 54 520 -27 l 313 19 q 230 -31 279 -31 l 141 -31 q 109 -16 119 -31 q 98 10 98 -1 q 108 36 98 22 l 223 137 q 55 487 55 280 q 100 677 55 586 q 229 841 145 768 q 450 959 313 915 q 776 1004 586 1004 q 1122 927 966 1004 l 1154 957 q 1238 1008 1190 1008 l 1327 1008 q 1358 993 1348 1008 q 1368 966 1368 977 q 1361 941 1368 955 l 1248 843 q 1393 518 1393 711 q 1350 325 1393 419 q 1229 153 1308 230 q 1027 27 1151 76 q 754 -27 904 -22 m 1029 511 q 982 627 1029 577 q 838 676 934 676 q 684 625 741 676 q 627 500 627 573 q 687 381 627 426 q 831 337 747 337 q 972 391 915 337 q 1029 511 1029 445 "},"∞":{"x_min":111.125,"x_max":1389,"ha":1500,"o":"m 895 420 q 948 368 912 388 q 1016 348 984 348 q 1069 366 1048 348 q 1090 420 1090 384 q 1069 475 1090 456 q 1016 493 1048 493 q 948 472 984 493 q 895 420 912 452 m 604 416 q 551 468 587 448 q 483 488 515 488 q 430 470 451 488 q 409 416 409 452 q 430 362 409 380 q 483 344 451 344 q 551 364 515 344 q 604 416 587 384 m 748 223 q 454 91 608 91 q 205 188 300 91 q 111 418 111 284 q 205 647 111 551 q 457 744 300 744 q 750 615 615 744 q 1042 744 884 744 q 1294 647 1200 744 q 1389 418 1389 551 q 1294 188 1389 284 q 1047 91 1200 91 q 748 223 894 91 "},"μ":{"x_min":83.34375,"x_max":1119.53125,"ha":1203,"o":"m 516 645 l 515 306 q 533 245 515 266 q 579 225 551 225 q 634 246 608 225 q 670 305 659 268 l 670 390 q 679 640 670 573 q 702 682 683 663 q 771 703 722 700 q 869 707 820 707 q 1034 701 918 707 q 1087 682 1068 700 q 1109 640 1107 663 q 1119 363 1119 550 q 1113 108 1119 176 q 1093 19 1108 40 q 1030 -1 1077 -1 l 790 -1 q 730 27 745 -1 q 711 125 715 56 q 650 27 698 68 q 544 -12 602 -12 q 458 8 486 -12 q 452 9 455 11 q 451 -6 448 6 q 461 -52 454 -19 q 475 -148 475 -127 q 433 -222 475 -198 q 279 -247 391 -247 q 94 -183 108 -247 q 88 45 93 -173 q 83 434 83 265 q 84 638 83 602 q 103 691 86 675 q 170 707 120 707 l 437 709 q 499 693 481 709 q 516 645 516 677 "},"÷":{"x_min":111.125,"x_max":1001.46875,"ha":1113,"o":"m 431 799 q 472 888 431 851 q 578 925 512 925 q 676 889 644 925 q 708 807 708 854 q 669 721 708 759 q 572 683 630 683 q 472 715 513 683 q 431 799 431 747 m 431 172 q 472 261 431 225 q 578 298 512 298 q 676 263 644 298 q 708 180 708 227 q 669 95 708 133 q 572 56 630 56 q 472 88 513 56 q 431 172 431 120 m 1001 504 l 1001 475 q 975 391 1001 411 q 900 370 950 370 l 209 370 q 136 390 161 370 q 111 473 112 409 l 111 504 q 136 588 111 568 q 212 608 162 608 l 902 608 q 975 588 951 608 q 1001 504 1000 569 "},"h":{"x_min":90.28125,"x_max":1119.53125,"ha":1189,"o":"m 93 65 l 90 519 q 94 925 90 727 q 111 993 95 970 q 173 1015 127 1015 l 440 1015 q 502 993 486 1015 q 521 916 518 972 q 527 615 525 859 q 788 725 636 725 q 1027 650 940 725 q 1117 443 1115 575 q 1119 206 1119 311 q 1118 66 1119 102 q 1099 14 1116 30 q 1032 -1 1082 -1 l 765 -4 q 703 11 720 -4 q 686 59 686 27 l 687 398 q 666 461 687 440 q 614 481 645 481 q 558 460 583 481 q 531 400 533 438 l 523 65 q 498 20 522 38 q 441 0 475 2 q 365 -2 406 -2 l 170 0 q 118 18 144 0 q 93 65 93 37 "},".":{"x_min":83.34375,"x_max":429.203125,"ha":513,"o":"m 83 132 q 132 247 83 200 q 265 294 181 294 q 388 248 348 294 q 429 142 429 202 q 380 32 429 81 q 259 -16 331 -16 q 134 24 186 -16 q 83 132 83 65 "},";":{"x_min":68.0625,"x_max":429.203125,"ha":513,"o":"m 83 759 q 132 873 83 826 q 265 920 181 920 q 388 875 348 920 q 429 768 429 829 q 380 659 429 708 q 259 609 331 609 q 134 650 186 609 q 83 759 83 691 m 165 1 q 83 143 83 33 q 136 252 83 212 q 261 293 190 293 q 380 253 331 293 q 429 140 429 213 q 334 -78 429 16 q 113 -173 238 -173 q 84 -151 100 -173 q 68 -113 68 -129 q 77 -91 68 -97 q 165 1 150 -54 "},"f":{"x_min":27.78125,"x_max":869.515625,"ha":842,"o":"m 697 484 l 568 484 q 543 455 543 484 l 543 91 q 526 22 543 44 q 461 0 509 0 l 190 0 q 125 21 141 0 q 106 91 109 43 q 101 438 101 209 q 95 478 101 470 q 75 486 90 486 q 27 570 27 486 q 41 637 27 620 q 84 655 55 654 q 100 662 93 655 q 106 677 106 669 l 106 707 q 440 1019 106 982 q 607 1027 506 1027 q 820 990 708 1027 q 869 878 869 973 q 825 783 869 783 q 755 799 805 783 q 670 815 705 815 q 575 779 607 815 q 543 693 543 744 q 573 655 543 655 l 698 655 q 748 640 732 655 q 765 570 765 625 q 749 500 765 515 q 697 484 733 484 "},"“":{"x_min":111.125,"x_max":918.125,"ha":1001,"o":"m 908 922 q 836 838 822 877 q 858 800 843 819 q 902 680 902 743 q 849 577 902 618 q 725 537 795 537 q 605 577 654 537 q 556 690 556 616 q 652 909 556 813 q 872 1004 747 1004 q 902 982 886 1004 q 918 943 918 959 q 908 922 918 927 m 462 922 q 390 838 376 877 q 411 800 397 819 q 456 680 456 743 q 403 577 456 618 q 279 537 350 537 q 159 577 208 537 q 111 690 111 616 q 206 909 111 813 q 426 1004 301 1004 q 456 982 440 1004 q 472 943 472 959 q 462 922 472 927 "},"̇":{"x_min":261.125,"x_max":537.546875,"ha":828,"o":"m 261 1148 q 301 1236 261 1200 q 407 1273 341 1273 q 505 1238 473 1273 q 537 1155 537 1202 q 498 1070 537 1108 q 401 1032 459 1032 q 302 1063 343 1032 q 261 1148 261 1095 "},"A":{"x_min":48.609375,"x_max":1457.0625,"ha":1506,"o":"m 975 907 l 1429 138 q 1457 61 1457 93 q 1432 15 1457 30 q 1373 0 1407 0 l 926 0 q 838 25 858 0 q 823 54 833 33 l 783 140 q 698 186 765 180 l 436 186 q 391 180 406 186 q 366 155 376 175 l 312 43 q 281 9 298 18 q 233 0 265 0 l 108 0 q 50 38 54 0 q 48 50 48 44 q 69 111 48 81 l 504 877 q 707 986 566 986 l 818 986 q 975 907 929 986 m 525 551 l 461 425 q 455 402 455 412 q 490 366 455 366 l 616 366 q 657 381 645 366 q 668 406 668 395 q 663 429 668 418 l 611 548 q 568 584 594 584 q 525 551 541 584 "},"6":{"x_min":83.34375,"x_max":1118.140625,"ha":1188,"o":"m 1118 323 q 977 63 1118 155 q 640 -29 837 -29 q 200 108 352 -29 q 115 230 147 155 q 83 394 83 305 q 109 563 83 483 q 193 719 136 644 q 334 852 251 794 q 538 943 416 909 q 808 977 661 977 q 925 970 858 977 q 997 922 970 965 q 1023 830 1023 880 q 1000 742 1023 780 q 932 704 977 704 q 848 708 888 708 q 704 678 757 708 q 623 575 651 648 q 777 604 698 604 q 1020 529 923 604 q 1118 323 1118 455 m 688 295 q 670 382 688 348 q 616 416 651 416 q 561 379 580 416 q 541 288 541 343 q 562 204 541 234 q 613 173 583 173 q 666 207 643 173 q 688 295 688 241 "},"‘":{"x_min":111.125,"x_max":472.265625,"ha":556,"o":"m 462 922 q 390 838 376 877 q 411 800 397 819 q 456 680 456 743 q 403 577 456 618 q 279 537 350 537 q 159 577 208 537 q 111 690 111 616 q 206 909 111 813 q 426 1004 301 1004 q 456 982 440 1004 q 472 943 472 959 q 462 922 472 927 "},"π":{"x_min":90.28125,"x_max":1382.0625,"ha":1495,"o":"m 784 200 q 783 359 784 200 q 787 480 783 413 q 702 479 773 479 q 690 295 702 383 q 667 168 677 208 q 640 102 657 127 q 594 49 623 77 q 525 5 565 20 q 295 -30 431 -30 q 220 3 255 -30 q 186 76 186 37 q 220 131 186 115 q 261 172 254 148 q 311 458 297 287 q 253 423 286 455 q 192 391 220 391 q 144 409 163 391 q 107 461 125 426 q 90 525 90 495 q 108 581 90 554 q 276 687 154 651 q 494 723 398 723 q 697 718 590 723 q 881 709 804 713 q 979 704 958 704 q 1029 705 1001 704 q 1080 711 1057 707 q 1119 718 1104 715 q 1152 727 1134 720 l 1177 736 q 1200 745 1184 737 q 1228 758 1216 752 q 1268 763 1240 763 q 1322 737 1295 763 q 1382 629 1382 673 q 1365 572 1382 601 q 1191 475 1319 491 q 1182 327 1182 398 q 1181 238 1182 255 q 1181 213 1180 220 q 1183 194 1182 206 q 1241 184 1190 158 q 1266 194 1259 194 q 1325 156 1293 194 q 1357 86 1357 118 q 1327 30 1357 55 q 1251 -6 1297 5 q 1082 -30 1165 -30 q 849 33 913 -30 q 784 200 784 97 "},"O":{"x_min":55.5625,"x_max":1393.171875,"ha":1449,"o":"m 754 -27 q 450 15 586 -27 q 229 133 313 59 q 100 297 144 206 q 55 487 55 388 q 100 677 55 586 q 229 841 145 768 q 450 959 313 915 q 748 1004 586 1004 q 1036 963 911 1004 q 1237 854 1161 923 q 1393 518 1393 712 q 1350 325 1393 419 q 1229 153 1308 230 q 1027 27 1151 76 q 754 -27 904 -22 m 1029 511 q 982 627 1029 577 q 838 676 934 676 q 684 625 741 676 q 627 500 627 573 q 687 381 627 426 q 831 337 747 337 q 972 391 915 337 q 1029 511 1029 445 "},"n":{"x_min":83.34375,"x_max":1119.53125,"ha":1189,"o":"m 686 59 l 687 398 q 666 461 687 440 q 614 481 645 481 q 557 460 583 481 q 531 400 531 438 l 531 315 q 523 65 531 131 q 500 23 519 41 q 431 2 480 5 q 333 -1 381 -1 q 168 4 284 -1 q 115 23 134 5 q 93 65 95 41 q 83 341 83 155 q 88 596 83 527 q 109 686 94 665 q 172 707 125 707 l 443 707 q 506 686 490 707 q 526 615 522 665 l 526 613 q 786 725 633 725 q 1027 650 940 725 q 1117 443 1115 575 q 1119 206 1119 311 q 1118 66 1119 102 q 1099 14 1116 30 q 1032 -1 1082 -1 l 765 -4 q 703 11 720 -4 q 686 59 686 27 "},"3":{"x_min":69.453125,"x_max":1044.53125,"ha":1111,"o":"m 151 255 l 326 248 q 447 283 404 248 q 473 338 473 304 q 366 427 473 427 q 277 418 327 427 q 218 408 227 408 q 158 509 158 408 q 173 565 158 552 q 212 580 188 577 q 275 584 236 583 q 343 586 313 584 q 456 618 425 593 q 488 682 488 643 q 460 741 488 720 q 387 762 431 762 q 209 684 300 762 q 177 673 195 673 q 141 697 158 673 q 116 788 116 729 q 135 872 116 848 q 208 922 154 895 q 370 975 262 950 q 575 1001 479 1001 q 736 989 672 1001 q 862 950 800 977 q 963 869 925 922 q 1001 745 1001 816 q 963 618 1001 673 q 857 543 926 562 q 997 443 950 509 q 1044 294 1044 376 q 920 53 1044 136 q 609 -29 795 -29 q 143 13 273 -29 q 72 84 80 34 q 69 136 69 101 q 72 187 69 170 q 151 255 79 255 "},"9":{"x_min":69.453125,"x_max":1087.59375,"ha":1171,"o":"m 251 205 l 315 204 q 470 242 406 204 q 570 376 534 280 q 381 337 484 337 q 156 409 244 337 q 69 606 69 480 q 138 816 69 733 q 556 975 270 975 q 977 836 834 975 q 1057 712 1027 787 q 1087 534 1087 637 q 1048 335 1087 431 q 925 156 1008 238 q 694 22 841 73 q 348 -36 547 -29 l 329 -36 q 243 -32 293 -36 q 167 15 194 -29 q 140 114 140 59 q 170 187 140 169 q 251 205 200 205 m 477 655 q 498 566 477 602 q 554 531 519 530 q 606 566 588 531 q 625 654 625 600 q 603 741 625 708 q 552 773 581 773 q 500 741 522 773 q 477 655 477 708 "},"l":{"x_min":83.34375,"x_max":529.203125,"ha":613,"o":"m 173 1015 l 440 1015 q 501 993 486 1015 q 520 925 516 972 q 529 464 529 758 q 518 59 529 170 q 495 19 515 37 q 427 -2 476 1 q 311 -5 377 -5 q 191 -2 244 -5 q 97 59 101 4 q 83 488 83 180 q 94 925 83 795 q 113 993 98 972 q 173 1015 127 1015 "},"¤":{"x_min":95.84375,"x_max":786.171875,"ha":882,"o":"m 298 734 q 437 766 358 766 q 583 734 516 766 q 655 826 638 809 q 691 843 672 843 q 741 812 711 843 q 786 743 786 768 q 768 718 786 736 q 682 648 751 701 q 733 477 733 570 q 682 309 733 383 q 786 215 786 231 q 748 152 786 190 q 691 115 711 115 q 657 128 672 115 q 581 222 643 141 q 440 191 520 191 q 298 223 359 191 q 226 131 243 148 q 190 115 209 115 q 140 145 170 115 q 95 215 95 190 q 108 235 95 222 q 198 309 120 248 q 148 479 148 384 q 198 648 148 573 q 111 720 120 709 q 95 743 95 736 q 133 805 95 768 q 190 843 170 843 q 219 833 209 843 q 298 734 255 793 m 551 479 q 522 554 551 523 q 439 586 493 586 q 356 554 386 586 q 327 479 327 523 q 356 404 327 436 q 439 372 386 372 q 522 404 493 372 q 551 479 551 436 "},"∂":{"x_min":83.34375,"x_max":1143.140625,"ha":1213,"o":"m 563 705 q 732 663 666 705 q 733 698 733 676 q 706 805 733 770 q 619 840 679 840 q 507 821 559 840 q 419 784 455 802 q 362 765 383 765 q 311 863 311 765 q 439 964 311 922 q 722 1007 568 1007 q 1143 609 1143 1007 q 1102 382 1143 494 q 985 177 1061 270 q 786 26 909 83 q 511 -30 662 -30 q 186 59 288 -29 q 83 288 83 148 q 220 588 83 470 q 563 705 356 705 m 498 265 q 511 228 498 241 q 545 215 523 215 q 595 252 566 215 q 694 459 655 330 q 630 491 679 491 q 540 420 581 491 q 498 265 498 348 "},"4":{"x_min":69.453125,"x_max":1186.203125,"ha":1256,"o":"m 1125 201 l 1093 200 q 1086 86 1091 152 q 1057 29 1082 54 q 993 1 1033 4 q 809 -4 913 -4 q 612 1 705 -4 q 547 29 572 4 q 518 95 523 54 q 511 200 513 137 l 206 200 q 103 218 136 202 q 70 280 70 234 l 69 345 q 97 437 69 401 q 550 954 266 663 q 616 972 573 972 l 988 972 q 1066 943 1047 972 q 1090 832 1084 913 q 1095 476 1095 751 l 1095 420 l 1125 420 q 1170 400 1154 420 q 1186 356 1186 380 l 1186 276 q 1125 201 1186 204 m 343 445 q 369 420 343 420 l 508 420 l 508 654 q 453 591 480 623 q 397 526 426 559 q 356 476 369 493 q 343 445 343 459 "},"p":{"x_min":84.734375,"x_max":1086.203125,"ha":1128,"o":"m 609 211 q 691 346 691 211 q 609 481 691 481 q 552 460 577 481 q 526 400 526 438 l 526 293 q 552 232 526 254 q 609 211 577 211 m 165 707 l 420 705 q 479 685 454 705 q 505 627 504 665 q 636 701 559 676 q 788 726 713 726 q 1002 634 919 726 q 1086 354 1086 541 q 1057 171 1086 247 q 977 55 1027 95 q 749 -18 882 -18 q 541 68 616 -18 q 527 73 531 77 q 522 61 522 69 q 513 -154 522 -37 q 495 -220 511 -200 q 433 -240 480 -240 l 166 -240 q 104 -218 120 -240 q 87 -150 88 -195 q 84 187 84 -18 l 87 641 q 113 688 87 669 q 165 707 138 707 "},"‡":{"x_min":83.34375,"x_max":875.0625,"ha":958,"o":"m 556 -238 q 472 -243 526 -243 q 385 -232 418 -243 q 346 -211 352 -222 q 340 -183 340 -200 q 383 29 340 -95 l 383 31 q 381 56 388 47 q 361 59 373 65 q 141 16 237 16 q 88 75 97 16 q 83 159 83 105 q 93 246 83 213 q 114 285 104 279 q 141 291 125 291 q 369 244 213 291 q 387 252 380 241 q 387 275 394 262 q 354 386 354 341 q 387 501 354 431 q 387 523 394 513 q 369 530 380 533 q 141 483 213 483 q 114 489 125 483 q 93 529 104 495 q 83 616 83 562 q 88 700 83 670 q 102 741 93 729 q 141 758 119 758 q 361 715 237 758 q 381 719 373 711 q 383 743 388 727 l 383 745 q 340 959 340 873 q 346 986 340 976 q 385 1007 352 997 q 472 1018 418 1018 q 556 1013 526 1018 q 600 997 587 1008 q 618 959 618 982 q 575 745 618 868 l 575 743 q 577 719 569 727 q 598 715 584 711 q 816 758 720 758 q 852 744 841 758 q 875 638 875 716 q 865 528 875 561 q 844 489 855 495 q 816 483 833 483 q 588 530 747 483 q 571 523 577 533 q 570 501 565 513 q 605 386 605 429 q 570 275 605 344 q 571 252 565 262 q 588 244 577 241 q 816 291 747 291 q 844 285 833 291 q 865 246 855 279 q 875 159 875 213 q 870 75 875 105 q 855 33 865 45 q 816 16 841 16 q 598 59 720 16 q 577 56 586 65 q 575 31 569 48 l 575 29 q 618 -183 618 -91 q 556 -238 618 -227 "},"à":{"x_min":69.453125,"x_max":1045.921875,"ha":1129,"o":"m 694 968 l 766 832 q 771 802 779 813 q 741 791 763 791 l 645 791 q 595 809 618 791 q 547 848 572 827 q 493 893 522 869 q 448 932 465 918 q 422 962 431 945 q 422 991 413 979 q 462 1004 431 1004 l 629 1004 q 694 968 670 1004 m 586 729 q 1043 434 1038 729 q 1045 205 1045 309 q 1044 65 1045 101 q 1025 13 1043 29 q 958 -2 1008 -2 l 663 -2 q 602 13 619 -2 q 584 61 586 29 q 584 65 584 62 q 583 72 583 69 q 333 -22 491 -22 q 146 32 223 -22 q 69 184 69 87 q 124 338 69 280 q 254 416 179 395 q 417 437 330 437 q 587 420 504 437 l 587 426 q 560 526 587 495 q 472 556 533 556 q 372 546 412 556 q 311 525 331 536 q 231 491 254 491 q 192 512 209 491 q 175 577 175 533 q 190 637 175 620 q 241 670 206 654 q 586 729 362 729 m 520 161 q 583 184 581 161 q 586 305 586 230 q 541 334 586 334 q 469 313 497 334 q 441 250 441 291 q 464 184 441 208 q 520 161 487 161 "},"Ü":{"x_min":52.78125,"x_max":1173.703125,"ha":1229,"o":"m 622 826 l 619 700 l 619 431 q 655 341 619 373 q 740 309 691 309 q 824 341 788 309 q 859 431 859 373 l 859 845 q 877 941 859 911 q 952 972 894 972 l 1080 972 q 1141 945 1125 972 q 1173 580 1173 898 q 1170 420 1173 476 q 1118 220 1166 308 q 995 79 1070 131 q 652 -27 844 -27 q 234 90 400 -27 q 103 249 151 150 q 54 480 55 348 q 52 672 52 545 q 56 856 52 800 q 78 942 59 912 q 154 972 97 972 l 525 972 q 598 943 580 972 q 622 826 622 905 m 412 1148 q 452 1236 412 1200 q 559 1273 493 1273 q 656 1238 625 1273 q 688 1155 688 1202 q 650 1070 688 1108 q 552 1032 611 1032 q 453 1063 494 1032 q 412 1148 412 1095 m 782 1148 q 822 1236 782 1200 q 928 1273 862 1273 q 1026 1238 994 1273 q 1058 1155 1058 1202 q 1019 1070 1058 1108 q 922 1032 980 1032 q 822 1063 863 1032 q 782 1148 782 1095 "},"ó":{"x_min":55.5625,"x_max":1091.75,"ha":1147,"o":"m 506 832 l 579 968 q 644 1004 602 1004 l 811 1004 q 850 991 841 1004 q 850 962 859 979 q 825 932 841 945 q 780 894 808 918 q 675 807 716 840 q 627 791 655 791 l 531 791 q 502 802 509 791 q 506 832 494 813 m 491 347 q 573 191 491 191 q 655 347 655 191 q 638 456 655 418 q 573 494 622 494 q 508 456 525 494 q 491 347 491 418 m 1091 347 q 573 -30 1091 -30 q 55 347 55 -30 q 187 625 55 526 q 573 723 319 723 q 959 625 827 723 q 1091 347 1091 526 "},"√":{"x_min":70.84375,"x_max":877.84375,"ha":1043,"o":"m 88 494 q 70 554 70 525 q 134 632 70 602 l 302 711 q 356 726 338 726 q 433 665 409 726 l 537 415 l 663 1145 q 689 1207 670 1186 q 747 1229 708 1229 q 797 1223 754 1229 q 877 1141 877 1213 q 684 44 877 1130 q 642 -13 679 9 q 566 -37 605 -37 q 456 31 490 -37 l 255 469 l 218 451 q 161 434 184 434 q 88 494 116 434 "},"⁴":{"x_min":55.5625,"x_max":745.890625,"ha":801,"o":"m 711 541 q 693 540 697 540 q 688 481 693 505 q 627 428 682 431 q 506 425 572 425 q 373 429 440 425 q 336 444 350 430 q 320 476 323 458 q 316 540 316 534 l 145 540 q 56 586 56 543 l 55 622 q 70 673 55 654 q 318 965 193 836 q 355 975 330 975 l 626 975 q 675 959 663 975 q 691 897 687 943 q 695 695 695 851 l 695 665 l 711 665 q 736 654 727 665 q 745 629 745 643 l 745 583 q 711 541 745 541 m 318 768 q 272 714 297 745 q 247 679 247 683 q 251 676 247 676 l 318 676 l 318 768 "}}}
